<svg xmlns="http://www.w3.org/2000/svg" viewBox="0 0 47.34 52.09"><defs><style>.cls-1{fill:#034861;}.cls-2{fill:#067dbe;}</style></defs><g id="Layer_2" data-name="Layer 2"><g id="Layer_1-2" data-name="Layer 1"><path class="cls-1" d="M26.22,19.35a4.34,4.34,0,1,0-5.15,0L9.75,50.44A1.22,1.22,0,0,0,10.49,52a1.25,1.25,0,0,0,.42.08,1.22,1.22,0,0,0,1.15-.81L13.27,48H34l1.21,3.32a1.22,1.22,0,0,0,1.15.81,1.25,1.25,0,0,0,.42-.08,1.22,1.22,0,0,0,.74-1.57ZM23.66,14a1.88,1.88,0,1,1-1.88,1.88A1.88,1.88,0,0,1,23.66,14Zm0,6.21h.25l4,11h-8.5l4-11ZM14.16,45.5l4.33-11.9h10.3l4.33,11.9Z"/><path class="cls-2" d="M13.2,20.64A1,1,0,0,0,14.32,19a5.3,5.3,0,0,1,0-8.83A1,1,0,0,0,13.2,8.43a7.33,7.33,0,0,0,0,12.21Z"/><path class="cls-2" d="M5,14.54a12.28,12.28,0,0,0,5.49,10.24A1,1,0,0,0,11,25a1,1,0,0,0,.84-.45,1,1,0,0,0-.28-1.4A10.29,10.29,0,0,1,11.56,6a1,1,0,1,0-1.12-1.68A12.28,12.28,0,0,0,5,14.54Z"/><path class="cls-2" d="M8.82,27.22a15.23,15.23,0,0,1,0-25.37A1,1,0,0,0,9.1.45,1,1,0,0,0,7.69.17a17.26,17.26,0,0,0,0,28.73,1,1,0,0,0,.56.17,1,1,0,0,0,.85-.45A1,1,0,0,0,8.82,27.22Z"/><path class="cls-2" d="M33,19a1,1,0,0,0-.29,1.41,1,1,0,0,0,.85.45,1.07,1.07,0,0,0,.56-.17,7.33,7.33,0,0,0,0-12.21A1,1,0,1,0,33,10.12,5.31,5.31,0,0,1,33,19Z"/><path class="cls-2" d="M35.79,6a10.3,10.3,0,0,1,0,17.13,1,1,0,0,0-.29,1.4,1,1,0,0,0,.85.45,1,1,0,0,0,.56-.17,12.32,12.32,0,0,0,0-20.49A1,1,0,1,0,35.79,6Z"/><path class="cls-2" d="M39.65.17a1,1,0,1,0-1.12,1.68,15.24,15.24,0,0,1,0,25.37,1,1,0,0,0,.56,1.85,1,1,0,0,0,.56-.17,17.26,17.26,0,0,0,0-28.73Z"/></g></g></svg>