<svg xmlns="http://www.w3.org/2000/svg" viewBox="0 0 61.28 61.7"><defs><style>.cls-1,.cls-2{fill:none;stroke-linecap:round;stroke-linejoin:round;stroke-width:1.07px;}.cls-1{stroke:#024861;}.cls-2{stroke:#067dbe;}</style></defs><g id="Layer_2" data-name="Layer 2"><g id="Layer_1-2" data-name="Layer 1"><path class="cls-1" d="M11.61,49.06a109.83,109.83,0,0,0,9.44-10"/><path class="cls-1" d="M7,38.22q2-2,3.88-4.15"/><path class="cls-1" d="M19,57.19A112.86,112.86,0,0,0,34,40.1"/><path class="cls-1" d="M30.64,61.17A122.46,122.46,0,0,0,50.36,34.12"/><path class="cls-1" d="M49.67,49.06a111.33,111.33,0,0,1-9.45-10"/><path class="cls-1" d="M54.29,38.22q-2-2-3.88-4.15"/><path class="cls-1" d="M42.29,57.19a114,114,0,0,1-15-17.09"/><path class="cls-1" d="M30.64,61.17A122.46,122.46,0,0,1,10.92,34.12"/><path class="cls-1" d="M55.88,25.9c0,19.48-11.31,35.27-25.24,35.27S5.4,45.38,5.4,25.9"/><path class="cls-1" d="M55.88,25.9C54.11,34,43.48,40.25,30.64,40.25S7.17,34,5.4,25.9"/><circle class="cls-1" cx="5.4" cy="25.9" r="2.57"/><circle class="cls-1" cx="55.88" cy="25.9" r="2.57"/><path class="cls-1" d="M5.4,23.33S7.41,8.5,20.21.53"/><path class="cls-1" d="M55.88,23.33S53.87,8.5,41.06.53"/><path class="cls-1" d="M60.74,11.91a6.63,6.63,0,0,0-8.6,0h0a6.63,6.63,0,0,1-8.6,0h0a6.63,6.63,0,0,0-8.6,0h0a6.63,6.63,0,0,1-8.6,0h0a6.63,6.63,0,0,0-8.6,0h0a6.63,6.63,0,0,1-8.6,0h0a6.63,6.63,0,0,0-8.6,0"/><circle class="cls-1" cx="15.73" cy="20.65" r="2.68"/><circle class="cls-1" cx="43.23" cy="31.57" r="1.71"/><path class="cls-2" d="M33.6,32.84c0,2.08-3.1,3.78-6.92,3.78s-10.22-3-10.22-3.78c0-1,6.4-3.78,10.22-3.78S33.6,30.75,33.6,32.84Z"/><path class="cls-2" d="M29.52,36.28a4.5,4.5,0,0,1,0-6.89"/><path class="cls-2" d="M16.56,32.59a11.77,11.77,0,0,0-4.18-2.74,10.39,10.39,0,0,1,.85,3"/><path class="cls-2" d="M27.8,29.11,25,27.27a2.17,2.17,0,0,0-2.19-.1,12.8,12.8,0,0,0-4.28,4.12"/><rect class="cls-1" x="30.21" y="32.15"/><path class="cls-2" d="M47.7,21c0,2.08-3.1,3.77-6.92,3.77s-10.22-3-10.22-3.77c0-1,6.4-3.78,10.22-3.78S47.7,18.94,47.7,21Z"/><path class="cls-2" d="M43.61,24.48A4.62,4.62,0,0,1,42,21a4.33,4.33,0,0,1,.21-1.31"/><path class="cls-2" d="M30.66,20.78A11.69,11.69,0,0,0,26.49,18a10.48,10.48,0,0,1,.84,3,10.38,10.38,0,0,1-.84,3,12,12,0,0,0,4.19-2.75"/><path class="cls-2" d="M41.9,17.3l-2.82-1.84a2.17,2.17,0,0,0-2.2-.1,12.8,12.8,0,0,0-4.28,4.12"/><rect class="cls-1" x="44.26" y="20.31"/></g></g></svg>