<svg xmlns="http://www.w3.org/2000/svg" viewBox="0 0 61.23 42.43"><defs><style>.cls-1{fill:#067dbe;}.cls-2{fill:#034861;}</style></defs><g id="Layer_2" data-name="Layer 2"><g id="Layer_1-2" data-name="Layer 1"><path class="cls-1" d="M31.06,18.12a1.56,1.56,0,0,0,2.19,0,2.77,2.77,0,0,1,3.93,0,1.55,1.55,0,0,0,2.18-2.19,5.89,5.89,0,0,0-8.3,0A1.56,1.56,0,0,0,31.06,18.12Z" transform="translate(-0.27)"/><path class="cls-1" d="M26,10.91a1.53,1.53,0,0,0,0,2.18,1.55,1.55,0,0,0,2.18,0,9.9,9.9,0,0,1,14,0A1.55,1.55,0,0,0,44.84,12a1.53,1.53,0,0,0-.45-1.09,13,13,0,0,0-18.35,0Z" transform="translate(-0.27)"/><path class="cls-1" d="M21,5.88A1.55,1.55,0,0,0,23.2,8.07a17,17,0,0,1,24,0,1.55,1.55,0,0,0,2.18,0A1.57,1.57,0,0,0,49.86,7a1.55,1.55,0,0,0-.45-1.09,20.09,20.09,0,0,0-28.4,0Z" transform="translate(-0.27)"/><path class="cls-1" d="M39.36,24.31a1.55,1.55,0,0,0-2.18,0,2.79,2.79,0,0,1-3.93,0,1.55,1.55,0,0,0-2.64,1.09,1.53,1.53,0,0,0,.45,1.09,5.87,5.87,0,0,0,8.3,0A1.55,1.55,0,0,0,39.36,24.31Z" transform="translate(-0.27)"/><path class="cls-1" d="M44.39,31.52a1.55,1.55,0,0,0-2.19-2.18,9.9,9.9,0,0,1-14,0,1.54,1.54,0,0,0-2.63,1.09A1.55,1.55,0,0,0,26,31.52a13,13,0,0,0,18.35,0Z" transform="translate(-0.27)"/><path class="cls-1" d="M49.41,36.55a1.55,1.55,0,0,0-2.18-2.19,17,17,0,0,1-24,0A1.55,1.55,0,0,0,21,36.55a20.09,20.09,0,0,0,28.4,0Z" transform="translate(-0.27)"/><path class="cls-2" d="M18,15.88,14.93,28.45h-4L9.71,23c0-.1-.06-.28-.1-.52s-.11-.53-.17-.85-.11-.62-.16-.93-.09-.56-.11-.78c0,.22-.06.47-.11.78s-.11.62-.17.93-.12.6-.17.85-.09.42-.12.52L7.39,28.45h-4L.27,15.88H3.54l1.37,6.3.14.66c.06.28.12.59.19.93s.13.65.18,1,.1.57.12.78c0-.36.11-.76.19-1.22s.16-.91.26-1.38.18-.9.27-1.3.16-.73.22-1l1.11-4.75h3.15l1.07,4.75c.06.25.13.57.22,1s.18.84.27,1.31.19.93.27,1.39.14.85.18,1.2c0-.29.09-.65.17-1.09s.16-.87.24-1.28.15-.73.2-.94l1.39-6.32Z" transform="translate(-0.27)"/><path class="cls-2" d="M21.16,14.79a2.55,2.55,0,0,1,1.26.3A1.24,1.24,0,0,1,23,16.28a1.24,1.24,0,0,1-.54,1.18,2.55,2.55,0,0,1-1.26.3,2.5,2.5,0,0,1-1.26-.3,1.28,1.28,0,0,1-.52-1.18,1.27,1.27,0,0,1,.52-1.19A2.5,2.5,0,0,1,21.16,14.79Zm1.67,3.92v9.74H19.47V18.71Z" transform="translate(-0.27)"/><path class="cls-2" d="M52,28.45H48.7V15.88h7.42V18.6H52V21h3.77v2.73H52Z" transform="translate(-0.27)"/><path class="cls-2" d="M59.7,14.79a2.55,2.55,0,0,1,1.26.3,1.24,1.24,0,0,1,.54,1.19A1.24,1.24,0,0,1,61,17.46a2.55,2.55,0,0,1-1.26.3,2.5,2.5,0,0,1-1.26-.3,1.26,1.26,0,0,1-.52-1.18,1.25,1.25,0,0,1,.52-1.19A2.5,2.5,0,0,1,59.7,14.79Zm1.67,3.92v9.74H58V18.71Z" transform="translate(-0.27)"/></g></g></svg>