<svg xmlns="http://www.w3.org/2000/svg" viewBox="0 0 169.63 249.57"><defs><style>.cls-1{fill:#034861;}.cls-2{fill:#00c2f5;}</style></defs><g id="Layer_2" data-name="Layer 2"><g id="Layer_1-2" data-name="Layer 1"><path class="cls-1" d="M67.87,73.87a6.3,6.3,0,0,0,8.91,0,11.35,11.35,0,0,1,16,0A6.29,6.29,0,1,0,101.7,65a23.94,23.94,0,0,0-33.83,0A6.3,6.3,0,0,0,67.87,73.87Z"/><path class="cls-1" d="M47.38,44.47a6.3,6.3,0,0,0,8.91,8.91,40.33,40.33,0,0,1,57,0,6.3,6.3,0,0,0,8.91-8.91,52.93,52.93,0,0,0-74.83,0Z"/><path class="cls-1" d="M26.89,24a6.3,6.3,0,1,0,8.91,8.91,69.39,69.39,0,0,1,98,0,6.3,6.3,0,0,0,10.75-4.45A6.38,6.38,0,0,0,142.71,24,81.91,81.91,0,0,0,26.89,24Z"/><polygon class="cls-1" points="61.65 157.05 61.65 218.74 115.63 187.88 61.65 157.05"/><path class="cls-2" d="M154.17,126.2H95.7l25.4-25.41-5.47-5.43L84.79,126.2,54,95.36l-5.43,5.43L73.9,126.2H15.43A15.42,15.42,0,0,0,0,141.62v92.52a15.42,15.42,0,0,0,15.43,15.43H154.21a15.42,15.42,0,0,0,15.42-15.43V141.62A15.46,15.46,0,0,0,154.17,126.2Zm0,107.94H15.39V141.62H154.17Z"/></g></g></svg>