<svg xmlns="http://www.w3.org/2000/svg" viewBox="0 0 95.38 34.09"><defs><style>.cls-1,.cls-2{fill:none;stroke-miterlimit:10;stroke-width:0.49px;}.cls-1{stroke:#024861;}.cls-2{stroke:#067dbe;}</style></defs><g id="Layer_2" data-name="Layer 2"><g id="Layer_1-2" data-name="Layer 1"><rect class="cls-1" x="62.26" y="2.35" width="4.74" height="1.14"/><path class="cls-2" d="M68.94,1.05v.8H57.83A23.4,23.4,0,0,1,64.59.24H68Z"/><path class="cls-2" d="M84.78,11.12h-45l6.38-4.47s3.07-2.77,10.31-2.77H79.26a3,3,0,0,1,2.33,1Zm-29.26-.67H62l-.64-4.26H56.8ZM68,6.19l2.93,4.26H83.33L81.16,6.19ZM42.34,10.45h5.1l3.68-4.26H48.73C48.34,6.47,42.34,10.45,42.34,10.45Zm12.08,0,1.51-4.26H52l-3.26,4.26Zm7.76-4.26.9,4.26h6.45L67,6.19Z"/><path class="cls-2" d="M76.26,32.16a1.33,1.33,0,1,0-1.33-1.33A1.34,1.34,0,0,0,76.26,32.16Zm4,0A1.33,1.33,0,1,0,79,30.83,1.34,1.34,0,0,0,80.31,32.16Zm13.58-4.35L91.77,30.9c-1.84,2.7-2.94,3-2.94,3H23.17a17.54,17.54,0,0,1-11.53-4.54l-1.5-1.5ZM84,32.16a1.33,1.33,0,1,0-1.33-1.33A1.33,1.33,0,0,0,84,32.16ZM71.19,30.83a1.33,1.33,0,1,0,1.33-1.33A1.34,1.34,0,0,0,71.19,30.83Z"/><path class="cls-1" d="M87.48,17.53H10.14s9.72-5.65,30.34-5.65h47Z"/><path class="cls-1" d="M62.54,22.55h29.7l-.44-.79H62.54a.38.38,0,0,0-.39.39A.39.39,0,0,0,62.54,22.55Zm32.55,3.51s-.2.28-.53.77H9.16L.59,18.26h90ZM70,23.89a.4.4,0,0,0,.4.4H93.3l-.47-.79H70.37A.4.4,0,0,0,70,23.89Z"/></g></g></svg>