<svg xmlns="http://www.w3.org/2000/svg" viewBox="0 0 156.95 59.59"><defs><style>.cls-1{fill:#fff;}</style></defs><g id="Layer_2" data-name="Layer 2"><g id="Layer_1-2" data-name="Layer 1"><path class="cls-1" d="M16.69,59.3H11.88L3.3,43.35H3.19q0,.63.06,1.32c0,.47,0,.94.07,1.43s.05,1,.07,1.47,0,1,0,1.48V59.3H0V39H4.79L13.33,54.8h.11c0-.38,0-.79,0-1.24s0-.91-.06-1.38l-.06-1.45c0-.5,0-1,0-1.43V39h3.45Z"/><path class="cls-1" d="M32.44,59.3h-11V39h11v3H25.29v5.18H32v3.05h-6.7v6h7.15Z"/><path class="cls-1" d="M48.14,59.3l-1.57-5.38h-7L38.05,59.3H34l6.84-20.42h4.58L52.24,59.3ZM44,45.54c-.08-.3-.18-.67-.3-1.09s-.24-.87-.34-1.33-.21-.88-.3-1.28c-.14.7-.29,1.38-.46,2s-.32,1.21-.46,1.68l-1.59,5.24h5.07Z"/><path class="cls-1" d="M60.3,39a11.25,11.25,0,0,1,4.17.66,4.83,4.83,0,0,1,2.45,2,6.31,6.31,0,0,1,.81,3.34,6.09,6.09,0,0,1-.48,2.54A5.09,5.09,0,0,1,66,49.23a6.84,6.84,0,0,1-1.77,1.13l5.47,8.94H65.34l-4.41-8H58.45v8H54.63V39Zm-.17,3H58.45v6.27h1.74a5.1,5.1,0,0,0,2.06-.37,2.53,2.53,0,0,0,1.21-1.09,3.5,3.5,0,0,0,.4-1.76,3.4,3.4,0,0,0-.4-1.78,2.22,2.22,0,0,0-1.22-1A6.29,6.29,0,0,0,60.13,42Z"/><path class="cls-1" d="M83.57,53.75a5.78,5.78,0,0,1-.81,3.1,5.26,5.26,0,0,1-2.39,2,9.47,9.47,0,0,1-3.92.72,16.94,16.94,0,0,1-2.08-.13,12,12,0,0,1-1.81-.39A12.46,12.46,0,0,1,71,58.45V55a27.9,27.9,0,0,0,2.78,1,9.83,9.83,0,0,0,2.92.47,4.11,4.11,0,0,0,1.77-.33,2.25,2.25,0,0,0,1-.91A2.7,2.7,0,0,0,79.76,54a2.49,2.49,0,0,0-.42-1.46,3.93,3.93,0,0,0-1.27-1.11,15.67,15.67,0,0,0-2.22-1.05,13.66,13.66,0,0,1-2.36-1.28,5.42,5.42,0,0,1-1.71-1.91,6.08,6.08,0,0,1-.63-2.91,5.32,5.32,0,0,1,.83-3,5.26,5.26,0,0,1,2.31-1.91,8.51,8.51,0,0,1,3.44-.65,12.52,12.52,0,0,1,3,.34,11.87,11.87,0,0,1,2.62,1l-1.19,2.93a15.1,15.1,0,0,0-2.31-.85,8.43,8.43,0,0,0-2.25-.32,3.28,3.28,0,0,0-1.48.3,2,2,0,0,0-.9.84,2.55,2.55,0,0,0-.3,1.26,2.4,2.4,0,0,0,.39,1.39,3.59,3.59,0,0,0,1.25,1.07c.58.33,1.32.72,2.24,1.15a14.89,14.89,0,0,1,2.57,1.46A5.22,5.22,0,0,1,83,51.07,5.82,5.82,0,0,1,83.57,53.75Z"/><path class="cls-1" d="M102.54,59.3H98.7v-9H90.83v9H87V39h3.81v8.21H98.7V39h3.84Z"/><path class="cls-1" d="M124.59,49.1a15.43,15.43,0,0,1-.56,4.29,9.5,9.5,0,0,1-1.66,3.32,7.14,7.14,0,0,1-2.82,2.13,11.13,11.13,0,0,1-8.06,0,7.26,7.26,0,0,1-2.82-2.14A9.3,9.3,0,0,1,107,53.38a15.6,15.6,0,0,1-.56-4.3,14,14,0,0,1,1-5.5,7.68,7.68,0,0,1,3-3.63,9.3,9.3,0,0,1,5.13-1.3,9.09,9.09,0,0,1,5.07,1.3,7.8,7.8,0,0,1,3,3.64A14.31,14.31,0,0,1,124.59,49.1Zm-14.1,0a13.51,13.51,0,0,0,.51,4,5,5,0,0,0,1.64,2.54,4.53,4.53,0,0,0,2.89.88,4.48,4.48,0,0,0,2.88-.88A5,5,0,0,0,120,53.06a13.51,13.51,0,0,0,.51-4,10.6,10.6,0,0,0-1.16-5.41,4.09,4.09,0,0,0-3.82-2,4.58,4.58,0,0,0-2.92.88A5,5,0,0,0,111,45.14,13.6,13.6,0,0,0,110.49,49.1Z"/><path class="cls-1" d="M134.19,39a11.25,11.25,0,0,1,4.17.66,4.83,4.83,0,0,1,2.45,2,6.31,6.31,0,0,1,.81,3.34,6.09,6.09,0,0,1-.48,2.54,5.09,5.09,0,0,1-1.28,1.75,7,7,0,0,1-1.77,1.13l5.47,8.94h-4.33l-4.41-8h-2.48v8h-3.82V39ZM134,42h-1.68v6.27h1.73a5.11,5.11,0,0,0,2.07-.37,2.58,2.58,0,0,0,1.21-1.09,3.5,3.5,0,0,0,.4-1.76,3.4,3.4,0,0,0-.4-1.78,2.26,2.26,0,0,0-1.22-1A6.33,6.33,0,0,0,134,42Z"/><path class="cls-1" d="M157,59.3H146V39h11v3H149.8v5.18h6.69v3.05H149.8v6H157Z"/><path class="cls-1" d="M75.24,18.15a12.86,12.86,0,0,0-15.86,0,1.06,1.06,0,0,0-.11,1.56l1.59,1.7a1.06,1.06,0,0,0,1.4.14,8.43,8.43,0,0,1,10.1,0,1,1,0,0,0,1.4-.14l1.6-1.71A1.07,1.07,0,0,0,75.24,18.15Z"/><path class="cls-1" d="M82.81,10.18a1.07,1.07,0,0,0,1.48-.08l1.59-1.71a1.06,1.06,0,0,0-.08-1.52,28.29,28.29,0,0,0-37,0,1.07,1.07,0,0,0-.07,1.53l1.59,1.7a1.06,1.06,0,0,0,1.48.07,23.84,23.84,0,0,1,31,0Z"/><path class="cls-1" d="M77.58,15.85a1,1,0,0,0,1.45-.1l1.59-1.7a1.07,1.07,0,0,0-.1-1.55,20.61,20.61,0,0,0-26.44,0,1.08,1.08,0,0,0-.1,1.55l1.59,1.7a1.07,1.07,0,0,0,1.46.09,16.17,16.17,0,0,1,20.55,0Z"/><path class="cls-1" d="M87.12,12.5A12.85,12.85,0,0,0,95,15.22a12.88,12.88,0,0,0,8-2.74,1.06,1.06,0,0,0,.11-1.56L101.5,9.21a1.07,1.07,0,0,0-1.41-.14A8.39,8.39,0,0,1,95,10.76a8.42,8.42,0,0,1-5-1.67,1.06,1.06,0,0,0-1.4.14L87,10.94A1.07,1.07,0,0,0,87.12,12.5Z"/><path class="cls-1" d="M113.65,22.21l-1.59-1.7a1.07,1.07,0,0,0-1.48-.08A23.78,23.78,0,0,1,95,26.19a23.82,23.82,0,0,1-15.49-5.71,1.06,1.06,0,0,0-1.48.07l-1.58,1.71a1.06,1.06,0,0,0,.08,1.53A28.23,28.23,0,0,0,95,30.65a28.2,28.2,0,0,0,18.54-6.92A1.05,1.05,0,0,0,113.65,22.21Z"/><path class="cls-1" d="M84.78,14.8a1.07,1.07,0,0,0-1.46.1l-1.58,1.7a1.07,1.07,0,0,0,.1,1.55A20.51,20.51,0,0,0,95,22.94a20.56,20.56,0,0,0,13.25-4.83,1.06,1.06,0,0,0,.09-1.54l-1.59-1.71a1.06,1.06,0,0,0-1.45-.09A16.14,16.14,0,0,1,95,18.48,16.06,16.06,0,0,1,84.78,14.8Z"/></g></g></svg>