<svg xmlns="http://www.w3.org/2000/svg" viewBox="0 0 59.84 40.03"><defs><style>.cls-1,.cls-2{fill:none;stroke:#034861;stroke-miterlimit:10;}.cls-1{stroke-width:2.08px;}.cls-2{stroke-width:2.06px;}.cls-3{font-size:5.87px;fill:#067dbe;font-family:OpenSans-Bold, Open Sans;font-weight:700;}</style></defs><g id="Layer_2" data-name="Layer 2"><g id="Layer_1-2" data-name="Layer 1"><path class="cls-1" d="M57.8,23.45,52,34.92A7.67,7.67,0,0,1,45.27,39l-30-.11A8.31,8.31,0,0,1,8,34.72l-5.8-10a8.38,8.38,0,0,1,.09-8.53L9.06,4.91a7.52,7.52,0,0,1,6.33-3.62L45.05,1a8.21,8.21,0,0,1,7.37,4.39l5.39,10A8.6,8.6,0,0,1,57.8,23.45Z"/><circle class="cls-2" cx="51.43" cy="15.59" r="2.09"/><circle class="cls-2" cx="8.97" cy="15.59" r="2.09"/><circle class="cls-2" cx="50.65" cy="24.96" r="2.09"/><circle class="cls-2" cx="9.28" cy="24.96" r="2.09"/><rect class="cls-2" x="15.31" y="9.66" width="29.3" height="23.23"/><text class="cls-3" transform="translate(18.08 22)">250 KPH</text><line class="cls-2" x1="15.28" y1="14.1" x2="44.14" y2="14.1"/><line class="cls-2" x1="14.97" y1="24.96" x2="23.97" y2="24.96"/><line class="cls-2" x1="14.97" y1="29" x2="23.97" y2="29"/><polyline class="cls-2" points="44.45 24.65 34.52 24.65 34.52 31.79"/></g></g></svg>