<svg xmlns="http://www.w3.org/2000/svg" viewBox="0 0 47.38 38.23"><defs><style>.cls-1{fill:#034861;}.cls-2{fill:#0e7dbd;}</style></defs><g id="Layer_2" data-name="Layer 2"><g id="Layer_1-2" data-name="Layer 1"><path class="cls-1" d="M24.86,27.82V24.46a1.53,1.53,0,0,1,.07-.49,3,3,0,0,1,1.15,2.25,2.71,2.71,0,0,1-1.22,2.67v-.58a.75.75,0,0,0,0-.47Z"/><path class="cls-2" d="M8.68,21.8v2.54l-.14-.06a2.46,2.46,0,0,0-1-.22H3.74a1.62,1.62,0,0,0-1.61,1.62v3.21a1.63,1.63,0,0,0,.94,1.47l.07,0,.06,0,5.48,1.46V33a1.94,1.94,0,0,1-1.94,1.94H1.94A1.94,1.94,0,0,1,0,33V21.8a1.94,1.94,0,0,1,1.94-1.94h4.8A1.94,1.94,0,0,1,8.68,21.8Z"/><path class="cls-1" d="M16.66,29.05V28.8a2,2,0,0,0,.78.56l0,4v.27a.91.91,0,0,0,.29.3,4.68,4.68,0,0,0,2.13.63c.28,0,.58,0,.89,0s.61,0,.9,0,.54-.07.79-.12l.24-.06c.15,0,.29-.08.43-.12a3,3,0,0,0,.36-.16l.16-.08a1.26,1.26,0,0,0,.25-.19.84.84,0,0,0,.18-.2V28.1h0l0,0h0V24.46a2.37,2.37,0,0,1,.12-.78,2.08,2.08,0,0,1,.32-.61c.38-.38.77-.47,1.93-.59l.22,0h.06l.2,0h0l.23,0h.31l.24,0h1.78L14.86,19l.57.39a8,8,0,0,1,1,.89l.16.17a4.19,4.19,0,0,1,.28.34l.12.16c.08.11.14.21.2.31a3.8,3.8,0,0,1,.19.43,1.47,1.47,0,0,1,.06.27c0,.06,0,.17,0,.3v.15c0,.4,0,.94,0,1.25,0,.16,0,.26,0,.26l.18,0,.37-.1a1.65,1.65,0,0,1,.53-.13c1.2-.09,2.27,1.16,2.39,2.78A2.92,2.92,0,0,1,19.89,29a2,2,0,0,1-.83.35l-.16,0a2.17,2.17,0,0,1-.36,0,1.74,1.74,0,0,0,.52-.32,2.37,2.37,0,0,0,.6-.86l.09-.23a3.58,3.58,0,0,0,.16-1.33s0-.08,0-.12a3,3,0,0,0-1-2.05,1.65,1.65,0,0,0-1.15-.38l-.26,0a1.78,1.78,0,0,0-.78.46,3,3,0,0,0-.77,2.17,1,1,0,0,1,0,.17,4.23,4.23,0,0,0,.13.74c-2.52-.79-5.94-1.89-7.37-2.43L8.19,25,8,25a1.4,1.4,0,0,0-.49-.08H3.74a.79.79,0,0,0-.73.48.81.81,0,0,0-.06.31v3.21a.79.79,0,0,0,.47.72L8.68,31l8,2.14Zm0-1.2a2.42,2.42,0,0,1-.31-1,.22.22,0,0,1,0-.08,2.17,2.17,0,0,1,.41-1.49.92.92,0,0,1,.62-.35c.62,0,1.21.72,1.28,1.67a2.51,2.51,0,0,1-.11.93,1.6,1.6,0,0,1-.33.59l-.14.13a.79.79,0,0,1-.45.19.85.85,0,0,1-.54-.17A1.45,1.45,0,0,1,16.65,27.85Z"/><path class="cls-1" d="M22.77,35.24v2.4a2.65,2.65,0,0,1-2,.59,2.63,2.63,0,0,1-2-.59v-2.4a9.43,9.43,0,0,0,4.05,0Z"/><path class="cls-2" d="M47.38,6.75V6.9s0,.07,0,.11a.76.76,0,0,1,0,.15v.11c0,.05,0,.1,0,.15a.49.49,0,0,1,0,.12s0,.1,0,.15,0,.07,0,.11a.77.77,0,0,1,0,.15s0,.07,0,.11a.77.77,0,0,0,0,.15.43.43,0,0,0,0,.11l0,.15a.36.36,0,0,0,0,.11l0,.14,0,.11,0,.14,0,.11a.74.74,0,0,1,0,.14l0,.11a1,1,0,0,1,0,.14l0,.1s0,.09-.05.13l0,.11s0,.09-.05.13a.42.42,0,0,1,0,.1.5.5,0,0,1,0,.13.42.42,0,0,1,0,.1.61.61,0,0,1,0,.12,1,1,0,0,1,0,.1l-.06.12a.47.47,0,0,1,0,.1.54.54,0,0,1-.05.11.31.31,0,0,0,0,.1l-.06.1-.06.1-.06.1,0,.09-.07.1-.06.08-.06.1-.06.08-.07.09-.06.08a.27.27,0,0,0-.07.08l-.07.07-.07.08-.07.07-.07.07-.07.06-.08.07-.07.06-.08.06-.08,0-.07.05-.08,0-.08.05a5244976515755.39,5244976515755.39,0,0,0-.16.08l-.09,0-.08,0-.08,0-.09,0-.08,0-.09,0h-.23a12.13,12.13,0,0,0-1.3-6.4,8,8,0,0,0-4.42-3.95,16.38,16.38,0,0,1,4.5-1.53h.58l.28,0,.11,0a2,2,0,0,1,.35.06l.25.06.08,0,.16.05.1,0,.13.06.1,0,.12.06.1.05.11.06.09.06.11.07.09.06.1.07a.6.6,0,0,1,.08.08l.1.07a.6.6,0,0,0,.08.08.6.6,0,0,1,.08.08l.08.08.08.09.08.09.07.08.08.1.06.09a.36.36,0,0,1,.07.1l.06.09.07.11.06.09.05.11.06.1.05.12a.31.31,0,0,1,0,.1.54.54,0,0,1,.05.11l0,.11s0,.08,0,.12A.49.49,0,0,1,47,4a.56.56,0,0,1,0,.12.49.49,0,0,1,0,.11l0,.13,0,.11,0,.13,0,.11,0,.14s0,.07,0,.11l0,.14a.52.52,0,0,0,0,.11.68.68,0,0,0,0,.14s0,.08,0,.11,0,.1,0,.15,0,.07,0,.11a.76.76,0,0,1,0,.15.37.37,0,0,1,0,.11.76.76,0,0,1,0,.15.45.45,0,0,0,0,.11v.53Z"/><path class="cls-2" d="M19.85,14h0l.68.05.71,0a12,12,0,0,0,.82,4.06,9.09,9.09,0,0,0,.39.83,7.39,7.39,0,0,0,.67,1l-3.38-.78L14,17.93a5.66,5.66,0,0,1-1-.36,7.21,7.21,0,0,1-3.58-5L19.81,14Z"/><path class="cls-1" d="M28,19.43c.05.1.11.2.17.3a7.67,7.67,0,0,0,.53.82c.08.12.17.23.26.34a7.2,7.2,0,0,0,.5.58l-4.81-1.1a5.42,5.42,0,0,1-1.08-1.24,6.76,6.76,0,0,1-.47-.84,10.59,10.59,0,0,1-.95-4.14l.67,0a9.68,9.68,0,0,0,3.85-.69,12.22,12.22,0,0,0,1.06,5.42C27.77,19.08,27.85,19.26,28,19.43Z"/><path class="cls-2" d="M27.46,13c0,.22,0,.44,0,.66a7.8,7.8,0,0,0,0,1c0,.16,0,.32,0,.48A10.89,10.89,0,0,0,27.86,17a10.41,10.41,0,0,0,.62,1.67l.18.37a9.92,9.92,0,0,0,.69,1.08.86.86,0,0,0,.07.1l.17.22a7.42,7.42,0,0,0,1.57,1.45,6.39,6.39,0,0,0,1.67.79l.13,0a4.42,4.42,0,0,0,.63.14c.13,0,.27,0,.4.06h.2l.33,0h.72l.21,0,.16,0,.22,0,.15,0,.22-.06.15,0,.24-.07.12,0,.31-.12,0,0,.35-.15.09-.05.26-.13L37.9,22l.21-.12.14-.09.2-.13.13-.09.2-.14.13-.1.19-.15a.69.69,0,0,1,.13-.11l.18-.16.13-.12.18-.17.12-.12.17-.19.12-.12.18-.21.09-.11.21-.26.06-.08c.09-.11.18-.23.26-.35a.1.1,0,0,1,0,0l.21-.32s0-.08.07-.13a2.13,2.13,0,0,0,.16-.25l.09-.15c0-.08.09-.16.13-.25l.09-.16.12-.24a1.42,1.42,0,0,1,.08-.18l.11-.24c0-.06,0-.13.08-.19s.07-.16.1-.25,0-.12.07-.19l.09-.25c0-.07.05-.13.07-.19l.09-.27a1.33,1.33,0,0,1,0-.19c0-.1.06-.19.08-.29s0-.12.05-.18,0-.21.07-.32a.94.94,0,0,0,0-.16l.09-.49.06-.37c.05-.35.08-.69.1-1,.29-4.72-2.09-8.82-5.72-9.7l-.19,0-.24.15-.31.2a.91.91,0,0,0-.16.11A21.23,21.23,0,0,0,32.4,7.25a31,31,0,0,0-2.46,3.27l-.13.2A7.18,7.18,0,0,1,27.46,13Zm4.13.08a6.34,6.34,0,0,1,.07-.75l.06-.27a4.18,4.18,0,0,1,3.79-3.58h.1l.41,0,.4.1A4,4,0,0,1,39,12.57a6.11,6.11,0,0,1-.08,1c-.38,2.23-2,3.84-3.84,3.84h-.1l-.42,0a2.92,2.92,0,0,1-.4-.1A4.09,4.09,0,0,1,31.59,13.12Z"/><path class="cls-2" d="M32.47,12.51a3.59,3.59,0,0,1,.08-.35l0-.12a1.42,1.42,0,0,1,.07-.22c0-.05,0-.09,0-.13l.08-.2.06-.13a.89.89,0,0,1,.08-.17.54.54,0,0,1,.07-.13l.09-.16.08-.12.1-.15.09-.11a1.34,1.34,0,0,1,.11-.14l.09-.1.12-.12.1-.09.13-.11a.39.39,0,0,1,.1-.08l.15-.1.09-.06.2-.11,0,0,.26-.1.07,0,.2,0,.1,0,.17,0h.34l.26,0a2.64,2.64,0,0,1,.4.12,1.76,1.76,0,0,1,.37.17,1.23,1.23,0,0,0-.43.21,1.68,1.68,0,0,0-.53.61,2.13,2.13,0,0,0-.21.63,2.16,2.16,0,0,0,0,.67,1.8,1.8,0,0,0,.19.58,1,1,0,0,0,.1.17,1.21,1.21,0,0,0,.74.5,1.3,1.3,0,0,0,1.2-.54,1.89,1.89,0,0,0,.34-.68,4.06,4.06,0,0,1,.08.71,4.32,4.32,0,0,1-.06.94.24.24,0,0,1,0,.08,2.56,2.56,0,0,1,0,.27.49.49,0,0,1,0,.11l-.06.23s0,.08,0,.13l-.07.19-.06.13a1.42,1.42,0,0,0-.08.18.75.75,0,0,0-.07.12.86.86,0,0,1-.1.16l-.07.12-.11.15a.44.44,0,0,1-.08.11l-.11.14-.09.1-.13.12a.38.38,0,0,1-.09.09l-.14.12-.09.07-.16.11-.08.06-.2.1,0,0-.26.11-.08,0-.19,0-.1,0-.17,0h-.35l-.26,0a1.82,1.82,0,0,1-.4-.11l-.15-.06-.35-.2a2.79,2.79,0,0,1-.54-.49,2.61,2.61,0,0,1-.19-.27,2.38,2.38,0,0,1-.23-.41,3.35,3.35,0,0,1-.27-.77c0-.11-.05-.22-.07-.33a4.17,4.17,0,0,1,0-.71v-.06A5.05,5.05,0,0,1,32.47,12.51Z"/><path class="cls-1" d="M40.3.58c-.41.14-.82.29-1.24.46s-.57.24-.85.37l-.43.21-.87.47-.24.15-.63.4-.12.08L35.5,3l0,0L35,3.39q-.36.27-.72.57c-.29.24-.59.51-.89.78q-.81.76-1.62,1.68l-.14.16-.47.55c-.29.36-.59.73-.88,1.13s-.59.81-.89,1.24l-.44.67c-.06.1-.13.19-.2.29l0,.07-.19.24,0,0-.21.25-.06.06-.19.2,0,0-.22.21-.06,0-.08.07-.11.09-.06,0-.23.17-.06,0-.2.13-.06,0-.19.11-.06,0,0,0-.21.11-.07,0-.26.11h0l-.24.09-.07,0-.25.08h0l-.26.07-.07,0-.23,0h0L24.6,13h-.07l-.22,0h-.06l-.26,0H21.62l-.29,0h-.06l-.3,0h-.14l-.24,0-.22,0h-.12L20,13,9.28,11.47,9,11.42l-.1,0a.88.88,0,0,1-.43-.24,1,1,0,0,1-.29-.61A18.05,18.05,0,0,1,8,8.47q0-.51.06-.87c.64-5.14,4.11-6.65,7-6.91L27.66.33l1.19,0,3-.08,1.74,0,1.13,0,2.16,0,1.48,0,1.36,0,1.88,0h1.11l-.16,0A18,18,0,0,0,40.3.58Z"/><path class="cls-1" d="M17.32,25.77c.26,0,.58.38.62.92a1.28,1.28,0,0,1-.12.67.51.51,0,0,1-.33.32h0c-.2,0-.45-.24-.56-.62a1.45,1.45,0,0,1,0-.3.33.33,0,0,1,0-.1C16.85,26.18,17.09,25.79,17.32,25.77Z"/></g></g></svg>