<svg xmlns="http://www.w3.org/2000/svg" viewBox="0 0 89.97 44.23"><defs><style>.cls-1{fill:#067dbe;}.cls-2{fill:#024861;}.cls-3{fill:none;stroke:#067dbe;stroke-miterlimit:10;stroke-width:0.75px;}</style></defs><g id="Layer_2" data-name="Layer 2"><g id="Layer_1-2" data-name="Layer 1"><path class="cls-1" d="M38.06,32.7V25.37l7.42-2.62V20.83H31.79V19.72a1,1,0,0,0-.27-.65l8.73-7.6v4.19h-.31a.09.09,0,0,0-.08.09v.52a.09.09,0,0,0,.08.09h.31v.53h.12a.22.22,0,0,1,.22.22.23.23,0,1,1-.45,0h-.26a.49.49,0,0,0,.49.49.48.48,0,0,0,.48-.49.45.45,0,0,0-.37-.43v-.32h.31a.09.09,0,0,0,.09-.09v-.52a.09.09,0,0,0-.09-.09h-.31V11.28a.65.65,0,0,0,.43-.61.65.65,0,0,0-1.23-.3l-10.31,8.4H27.65a1,1,0,0,0-.44.13l-.87-8.64a.4.4,0,0,0,.37-.4.41.41,0,0,0-.41-.41h-.09V7.07H23.09V9.45H23a.42.42,0,0,0-.41.41.4.4,0,0,0,.37.4L21.93,20.57,20.19.84h-1.9V0H16.43V.84h-1.9l-2,22.6H0v1.35H5.52l3.27,4.74V32.7h1.37v9.52A4.24,4.24,0,0,0,9,43a4.26,4.26,0,0,0-5.58,0,4.22,4.22,0,0,0-2.78-1H.27v.8l.33,0a3.44,3.44,0,0,1,2.5,1.08h0l.07,0,.06,0h.08l.06,0h.06l.1,0,0,0,.07,0h0a3.43,3.43,0,0,1,5,0h0l.08,0,.05,0H8.9l.06,0H9l.1,0,.05,0a.2.2,0,0,0,.08,0h0a3.47,3.47,0,0,1,2.21-1.06h0l.31,0a3.47,3.47,0,0,1,2.48,1.08h0l.07,0,.06,0h.09l.06,0h.08l.1,0,0,0a.2.2,0,0,0,.08,0h0A3.45,3.45,0,0,1,17,42.72h.36a3.49,3.49,0,0,1,2.49,1.08h0l.07,0,.06,0h.09l.06,0h.07l.1,0,.05,0,.08,0h0a3.41,3.41,0,0,1,5,0h0l.07,0,.05,0h.09l.06,0h.08l.09,0,.06,0,.07,0h0a2,2,0,0,1,.26-.24h0a4.14,4.14,0,0,1,.48-.34l.11-.06.26-.13a2.46,2.46,0,0,1,.38-.14l.19,0a3.55,3.55,0,0,1,.47-.09h.35A3.45,3.45,0,0,1,31,43.78h0l.07,0,.06,0h.09l.06,0h.09l.09,0,.05,0a.2.2,0,0,0,.08,0h0a3.45,3.45,0,0,1,2.13-1.06h.37a3.44,3.44,0,0,1,2.5,1.08h0l.07,0,.06,0h.09l.06,0h0l.1,0,.05,0,.08,0h0a3.43,3.43,0,0,1,5,0h0l.07,0,.06,0h.08l.07,0h.05l.1,0,.05,0,.07,0h0a3.51,3.51,0,0,1,2.46-1.08v-.79a4.22,4.22,0,0,0-2.74,1,4.29,4.29,0,0,0-2.79-1,4.18,4.18,0,0,0-2.44.79v-10Zm-3.28-9.15h2.14v1.11H34.78Zm0,1.71h2.14v1.1H34.78Zm0,3.58h2.14v1.1H34.78Zm0,1.68h2.14v1.11H34.78Zm-2.74,7-2.58-2.36H32Zm-.13-14h2.14v1.11H31.91Zm0,1.71h2.14v1.1H31.91Zm0,3.58h2.14v1.1H31.91Zm0,1.68h2.14v1.11H31.91ZM32,32.7v1.77H28.69L26.76,32.7Zm-6.4-17.54h-2l1-2Zm-1.53-4.89H25.2l-.55,1.09ZM25.49,16l-.84,1.2L23.82,16Zm.7,4.85H23.12l1.53-2.21Zm0,5.53v-1.1h2.14v1.1Zm2.14,2.48v1.1H26.17v-1.1Zm-2.14,1.68h2.14v1.11H26.17ZM40.26,10.21a.46.46,0,0,1,.45.46.45.45,0,0,1-.45.45.46.46,0,0,1-.46-.45A.47.47,0,0,1,40.26,10.21Zm-.68.51,0,0a.65.65,0,0,0,.53.6l0,0-.57,0Zm-.06.67.47,0-.51.44Zm-.05-.58,0,.47-.48,0Zm-.67.54,0,0,.59.05-.05.59,0,0-.59-.05Zm-.06.69.5.05-.54.46Zm-.05-.6,0,.49-.51,0ZM38,12h0l.61,0,0,.62h0L38,12.6ZM38,12.7l.51,0-.56.49Zm0-.63-.05.52-.53-.05Zm-.67.57.61,0,0,.62-.61-.06Zm.47.76-.58.51,0-.56Zm-.58-.69,0,.53-.55,0Zm-.67.58.61.06L37,14l-.61-.05Zm.5.77-.61.53,0-.58Zm-.61-.72,0,.56-.57-.05Zm-.67.61.62.05-.06.62-.61-.06Zm.52.77-.63.55.05-.6ZM35.59,14l-.05.59-.6-.06Zm-.68.64.62.05-.06.61-.61,0Zm.54.76-.64.57h0l.05-.62Zm-1.31-.22.67-.54-.05.6-.62-.05Zm0,.11.62.05,0,.62-.62,0Zm.56.77h0l-.64.56h0l0-.61Zm-1.33-.25.66-.53h0l-.05.62-.62,0Zm0,.14L34,16l0,.62-.62-.06Zm.56.77v0l-.61.53h0l0-.62Zm-1.32-.27.63-.51h0l0,.61-.62-.05Zm0,.15.62.06,0,.61-.62,0Zm.56.77v.06l-.58.51h-.08l0-.62Zm-1.32-.29.6-.49h.06l0,.62-.62-.05Zm0,.18.61.05,0,.62-.62-.06Zm.55.77v.08l-.56.49h-.1l.05-.61ZM31,17.68l.58-.47h.08l-.05.62L31,17.78Zm0,.21.61.05-.05.61L31,18.5ZM31,18.6l.62.06v.1l-.21.19a.85.85,0,0,0-.41-.15Zm-.69-.28.55-.45h.1l-.05.61-.61,0Zm0,.22.61.05v.18h-.62Zm-.23,0h.13l0,.24H29.7Zm-1,5h2.14v1.11H29Zm0,1.71h2.14v1.1H29Zm0,3.58h2.14v1.1H29Zm0,1.68h2.14v1.11H29Zm-.73-7v1.11H26.17V23.55Zm-1.82-3.72L25.15,17.9l1-1.44Zm-.61-6-.77-1.55.51-1Zm-.82-5.95h.36V9.28h-.36Zm-1.17,0h.36V9.28h-.36Zm-.18,3.43.49,1-.75,1.49Zm-.54,5.18,1,1.42-1.33,1.92Zm2,5.77v2.82H22.33l-.25-2.82Zm-1,7.14V29h1v.44Zm1,1.13v1.29h-1V30.52Zm-1-2.28v-.53h1v.53Zm0-1.24v-.41h1V27Zm-1.45,2.39,0-.44H23.8v.44Zm1.09,1.13v1.29h-.88l-.11-1.29Zm-1.19-2.28-.05-.53H23.8v.53ZM22.5,27l0-.41H23.8V27Zm-.27,5.7h3.19l1.93,1.77h-7Zm-6.74,1.77V32.7h5.4L19,34.47Zm2.7.7-2.7,2.46V35.17Zm-2.47-10.1v-.95H17v.95Zm1.19,2.64v.53h-.77l.63-.53Zm-.35-1.12-.5.41h-.34v-.41ZM16.91,29v.44H15.72V29Zm0,2.31v.55H15.72v-.55ZM17,17v1.31L15.75,17Zm-1.27-1.86L17,13.35v1.77ZM18.92,27H17.64l.5-.41h.78ZM21,31.81h-1.7v-.55h1.66Zm-.21-2.42H19.28V29h1.45Zm-.1-1.15H19.28v-.53h1.34ZM20.56,27H19.28v-.41h1.24Zm-1.28-2.67v-.21h.26Zm1.08.41,0,.33H20Zm-2.73-22h.79l.2,2.3h-1Zm0,3.24H18.7l.19,2H17.63Zm0,3.9h.68l-.68.94Zm0,2.66,1.47-2,.41,4.66H17.63Zm0,4.48h2l.4,4.45-2.44-2.51Zm0,3.38,1.83,1.89H17.63Zm0,3.76h1.29v.51l-.53.44h-.76Zm0,3.59h1.29v.53H17.63Zm0,1.24h1.29v.44H17.63Zm0,2.31h1.29v.55H17.63ZM16.3,2.7H17V5H16.1ZM16,5.94h1V8H15.84Zm-.34,3.9H17v1.8L15.3,14ZM15,17.63l2,2.1v2.52H14.58Zm-.57,6.49h.94v.95h-1Zm.94,5.27h-.61l.53-.44h.08Zm-1.16-2.8h1.16V27h-1.2Zm-.1,1.12h1.1l-.63.53h-.52Zm-.31,3.55h1.57v.55H13.74Zm-3-6.47h1.59l0,.28H10.83Zm0,1.8h1.43l0,.41h-1.4Zm0,1.12h1.33l0,.53H10.83Zm0,1.24h1.22l0,.44H10.83Zm0,1.57h1.08l-.11,1.29h-1ZM9.49,24.79h1v.28h-1Zm1,1.8V27H9.53a1.08,1.08,0,0,1,.1-.41Zm-1,1.12h1v.53h-1Zm0,1.24h1v.44h-1Zm0,2.86V30.52h1v1.29ZM31.3,42.94a4.22,4.22,0,0,0-2.77-1h-.29l-.21,0-.25,0-.08,0a4.23,4.23,0,0,0-2,.95,4.22,4.22,0,0,0-2.77-1h0a4.23,4.23,0,0,0-2.78,1,4.23,4.23,0,0,0-2.78-1H17a4.36,4.36,0,0,0-1.47.42V38.86l4-3.69h8.58L32,38.76v3.68A4,4,0,0,0,31.3,42.94Z"/><path class="cls-1" d="M8.52,22.42l.52,0a.15.15,0,0,0,.15-.16l0-1A.14.14,0,0,0,9,21.14l-.56-.06a.09.09,0,0,0-.09,0,.12.12,0,0,0-.05.1v1a.2.2,0,0,0,.06.14A.17.17,0,0,0,8.52,22.42Z"/><path class="cls-1" d="M9.72,22.4a1.66,1.66,0,0,0,.88-.14.2.2,0,0,0,.11-.11.18.18,0,0,0,0-.16,2.09,2.09,0,0,0-1-.74h0l-.05,0a.08.08,0,0,0,0,.07l0,.88A.2.2,0,0,0,9.72,22.4Z"/><rect class="cls-1" x="6.15" y="21.16" width="1.8" height="0.72" rx="0.14"/><path class="cls-1" d="M.13,21.41v.18l.32.29a2.72,2.72,0,0,1-.07.39c0,.12.33.18.57.21l.81-.74L5,21.89a8.26,8.26,0,0,0,1.85.9l.36,0H7.3v.29H5.85a.09.09,0,0,0-.08.08h0a.08.08,0,0,0,.08.07h4.31a1.44,1.44,0,0,0,.58-.29.08.08,0,0,0-.06-.13l-.06,0a1.36,1.36,0,0,1-.46.23H9.27v-.3c1.74-.22,1.68-.31,1.67-.65,0,0-.18-1.12-2.18-1.26l-.63-.34a8.76,8.76,0,0,0-1.08-.14v-.21s4-.07,4-.16a.18.18,0,0,0-.18-.2H7.05l0,0a.48.48,0,0,0-.68,0l0,0H2.18A.18.18,0,0,0,2,20c0,.1,4.33.18,4.33.18v.2c-.24,0-.78.17-.65.21l-.25.48-3.62.21S1,20,.76,19.62s-.74,0-.74,0l.42,1.3Zm9.41-.22a.16.16,0,0,1,.15,0,2.15,2.15,0,0,1,1.07.78.31.31,0,0,1,0,.23.31.31,0,0,1-.16.16,2.35,2.35,0,0,1-.74.17.58.58,0,0,1-.19,0,.29.29,0,0,1-.21-.27l0-.88A.17.17,0,0,1,9.54,21.19Zm-1.28,0a.24.24,0,0,1,.07-.16A.19.19,0,0,1,8.49,21l.56.06a.22.22,0,0,1,.19.22l0,.95a.25.25,0,0,1-.22.26H8.52a.29.29,0,0,1-.18-.07.28.28,0,0,1-.08-.2Zm.42,1.64H9l.11,0v.29H7.44v-.28ZM6.07,21.31a.22.22,0,0,1,.22-.23H7.8a.23.23,0,0,1,.23.23v.43A.23.23,0,0,1,7.8,22H6.29a.22.22,0,0,1-.22-.23Zm-5-.42a.54.54,0,1,1-.53.54A.54.54,0,0,1,1.07,20.89Z"/><path class="cls-1" d="M1.07,21.79a.37.37,0,1,0,0-.73.37.37,0,1,0,0,.73Z"/><path class="cls-2" d="M81.22,4.81l0,0h0L78.65,7.38h0L71.07,15.1l-.17.19,0,0a.64.64,0,0,0-.56.2h0l-.21,0-3.65-1.13a6.15,6.15,0,0,0-1-.24l-5.87-1h0l-1-.18h0l-1.26-.21h0L56,12.53h0s0,0,0,0l2.8.72.72.19h0L70,16.18l.25.06v0l.06.12-.09,21.2H69l-.49,5.19H69l1.83-2.15,1.83,2.15h.46l-.49-5.19H71.46l-.08-18,.22,1a7.34,7.34,0,0,0,.31,1L74,27.11l.35,1h0l.92,2.44s0,0,0,0l-.76-2.74L74.35,27h0l-2.9-10.42-.07-.24h0a.64.64,0,0,0,.1-.58l.15-.16L74.41,13a8.74,8.74,0,0,0,.72-.77l3.78-4.6h0l.66-.79h0l1.66-2ZM70.36,38.75H72l-1.13,1.32L69.7,38.75h.66Zm-1.31,3.38.31-3.3,1.26,1.49Zm2-1.81,1.26-1.49.3,3.3Z"/><path class="cls-2" d="M70,21.1h-.21l-1.83.1h0l-.81.05h0l-8.44.48h-.2v0a.54.54,0,0,0-.44-.18l-.1-.14-1.51-2.57A5.15,5.15,0,0,0,56,18.2l-2.88-3.65-.49-.64h0l-1.27-1.6s0,0,0,0l6.19,9.45.11.16h0a.48.48,0,0,0,.06.46h0l-.07.16-1.47,2.59a5.17,5.17,0,0,0-.36.75L54,30.22l-.31.75h0L53,32.87s0,0,0,0h0l.46-.92h0l.64-1.27.18-.34h0l3.4-6.75-.07,15.22h-.91l-.39,4.06h.36l1.43-1.68,1.43,1.68h.36l-.38-4.06h-.92l-.07-16.49h0l.18,0,3,0a5.55,5.55,0,0,0,.82-.06l4.61-.68h0l.8-.1h0l2-.3A0,0,0,0,0,70,21.1ZM57.75,39.77H59l-.89,1-.88-1h.51Zm-1,2.65L57,39.84,58,41ZM58.29,41l1-1.16.24,2.58Z"/><path class="cls-3" d="M45.14,42.28s2.31.21,3,1.19c0,0,3.07-2.1,5.73,0,0,0,2.93-2.1,5.51,0,0,0,3.35-2.17,5.58.07a4.1,4.1,0,0,1,5.44,0s3-2.58,5.65,0c0,0,3-2.1,5.72,0a4.31,4.31,0,0,1,5.65.14,3.17,3.17,0,0,1,2.52-1.33"/></g></g></svg>