<svg xmlns="http://www.w3.org/2000/svg" viewBox="0 0 64.49 54.74"><defs><style>.cls-1,.cls-2{fill:none;stroke:#024861;stroke-width:1.42px;}.cls-1,.cls-2,.cls-3{stroke-miterlimit:22.93;}.cls-2,.cls-3{fill-rule:evenodd;}.cls-3{fill:#fff;stroke:#067dbe;stroke-width:1.86px;}</style></defs><g id="Layer_2" data-name="Layer 2"><g id="Layer_1-2" data-name="Layer 1"><line class="cls-1" x1="8.87" y1="27.52" x2="55.69" y2="27.52"/><path class="cls-2" d="M.71,27.52A4.26,4.26,0,1,1,5,31.78,4.26,4.26,0,0,1,.71,27.52Z"/><path class="cls-2" d="M8.38,41.15a4.26,4.26,0,1,1,4.25,4.26A4.25,4.25,0,0,1,8.38,41.15Z"/><path class="cls-2" d="M5.4,14.71a4.26,4.26,0,1,0,4.25-4.26A4.25,4.25,0,0,0,5.4,14.71Z"/><path class="cls-2" d="M53.31,13a4.26,4.26,0,1,1-4.26-4.26A4.26,4.26,0,0,1,53.31,13Z"/><path class="cls-2" d="M25.93,5A4.26,4.26,0,1,0,30.19.71,4.26,4.26,0,0,0,25.93,5Z"/><path class="cls-2" d="M50.26,39.79A4.26,4.26,0,1,0,46,44.05,4.26,4.26,0,0,0,50.26,39.79Z"/><path class="cls-2" d="M63.78,27.31a4.26,4.26,0,1,0-4.26,4.26A4.26,4.26,0,0,0,63.78,27.31Z"/><path class="cls-2" d="M30.25,49.77A4.26,4.26,0,1,1,34.51,54,4.25,4.25,0,0,1,30.25,49.77Z"/><path class="cls-2" d="M26,27.6v9.23a4.33,4.33,0,0,1-4.32,4.32H17"/><path class="cls-2" d="M21.73,27.08V19a4.33,4.33,0,0,0-4.32-4.31H13.66"/><path class="cls-2" d="M38.68,27.08V17.32A4.34,4.34,0,0,1,43,13h2.08"/><line class="cls-1" x1="30.19" y1="27.08" x2="30.19" y2="8.95"/><line class="cls-1" x1="46" y1="27.93" x2="46" y2="35.67"/><line class="cls-1" x1="34.51" y1="27.93" x2="34.51" y2="45.94"/><path class="cls-3" d="M37,16a6.67,6.67,0,0,1,7.66,9.52,4.69,4.69,0,0,1,1.59,7.7H19.77a6.45,6.45,0,0,1,.93-10.85C19.32,13,31.68,8.25,37,16Z"/></g></g></svg>