<svg xmlns="http://www.w3.org/2000/svg" viewBox="0 0 94.77 36.46"><defs><style>.cls-1,.cls-2{fill:none;stroke-miterlimit:10;}.cls-1{stroke:#024861;}.cls-2{stroke:#067dbe;}.cls-3{fill:#024861;}.cls-4{fill:#067dbe;}</style></defs><g id="Layer_2" data-name="Layer 2"><g id="Layer_1-2" data-name="Layer 1"><rect class="cls-1" x="30.52" y="23.57" width="7.38" height="2.77"/><rect class="cls-1" x="39.32" y="23.57" width="7.38" height="2.77"/><rect class="cls-1" x="48.12" y="23.57" width="7.38" height="2.77"/><rect class="cls-1" x="56.92" y="23.57" width="7.38" height="2.77"/><rect class="cls-1" x="65.72" y="23.57" width="7.38" height="2.77"/><rect class="cls-1" x="30.52" y="19.88" width="7.38" height="2.77"/><rect class="cls-1" x="39.32" y="19.88" width="7.38" height="2.77"/><rect class="cls-1" x="48.12" y="19.88" width="7.38" height="2.77"/><rect class="cls-1" x="56.92" y="19.88" width="7.38" height="2.77"/><rect class="cls-1" x="65.72" y="19.88" width="7.38" height="2.77"/><rect class="cls-1" x="30.52" y="16.19" width="7.38" height="2.77"/><rect class="cls-1" x="39.32" y="16.19" width="7.38" height="2.77"/><rect class="cls-1" x="48.12" y="16.19" width="7.38" height="2.77"/><rect class="cls-1" x="56.92" y="16.19" width="7.38" height="2.77"/><rect class="cls-1" x="65.72" y="16.18" width="7.38" height="2.77"/><rect class="cls-1" x="30.52" y="12.5" width="7.38" height="2.77"/><rect class="cls-1" x="39.32" y="12.5" width="7.38" height="2.77"/><rect class="cls-1" x="48.12" y="12.5" width="7.38" height="2.77"/><rect class="cls-1" x="56.92" y="12.49" width="7.38" height="2.77"/><rect class="cls-1" x="65.72" y="12.49" width="7.38" height="2.77"/><path class="cls-2" d="M94,22.38,87.54,36H2.74l-.28-.87a34.45,34.45,0,0,1-2-11.45l.14-.14H27.77l1.12,2.79H73.56l3.63-3.91Z"/><rect class="cls-3" x="8.47" y="7.55" width="15.38" height="15.94"/><rect class="cls-4" x="4.28" y="19.3" width="4.2" height="4.2"/><rect class="cls-3" x="6.93" y="6.43" width="18.46" height="1.12"/><rect class="cls-3" x="12.11" width="0.84" height="6.43"/><rect class="cls-3" x="9.43" y="9" width="2.31" height="2.95"/><rect class="cls-3" x="15.01" y="9" width="2.31" height="2.95"/><rect class="cls-4" x="20.59" y="9" width="2.31" height="2.95"/><circle class="cls-4" cx="77.67" cy="29.37" r="1.02"/><circle class="cls-4" cx="81.86" cy="29.37" r="1.02"/><circle class="cls-4" cx="86.06" cy="29.37" r="1.02"/></g></g></svg>