<svg xmlns="http://www.w3.org/2000/svg" xmlns:xlink="http://www.w3.org/1999/xlink" viewBox="0 0 65.51 30.65"><defs><style>.cls-1{fill:url(#linear-gradient);}.cls-2{fill:url(#linear-gradient-2);}.cls-3{fill:url(#linear-gradient-3);}.cls-4{fill:url(#linear-gradient-4);}.cls-5{fill:url(#linear-gradient-5);}.cls-6{fill:url(#linear-gradient-6);}</style><linearGradient id="linear-gradient" x1="70.56" y1="38.61" x2="-9.15" y2="8.77" gradientUnits="userSpaceOnUse"><stop offset="0.05" stop-color="#00b2e3"/><stop offset="0.64" stop-color="#147ebc"/><stop offset="0.68" stop-color="#0f6d9f"/><stop offset="0.72" stop-color="#0a5f86"/><stop offset="0.76" stop-color="#075677"/><stop offset="0.79" stop-color="#065372"/><stop offset="0.93" stop-color="#064963"/></linearGradient><linearGradient id="linear-gradient-2" x1="74.47" y1="28.16" x2="-5.23" y2="-1.68" xlink:href="#linear-gradient"/><linearGradient id="linear-gradient-3" x1="72.51" y1="33.38" x2="-7.19" y2="3.54" xlink:href="#linear-gradient"/><linearGradient id="linear-gradient-4" x1="76.55" y1="22.59" x2="-3.15" y2="-7.25" xlink:href="#linear-gradient"/><linearGradient id="linear-gradient-5" x1="72.64" y1="33.04" x2="-7.06" y2="3.2" xlink:href="#linear-gradient"/><linearGradient id="linear-gradient-6" x1="74.6" y1="27.82" x2="-5.11" y2="-2.02" xlink:href="#linear-gradient"/></defs><g id="Layer_2" data-name="Layer 2"><g id="Layer_1-2" data-name="Layer 1"><path class="cls-1" d="M26.82,18.15a12.88,12.88,0,0,0-15.87,0,1.07,1.07,0,0,0-.11,1.56l1.6,1.7a1.06,1.06,0,0,0,1.4.14,8.43,8.43,0,0,1,10.1,0,1,1,0,0,0,1.4-.14l1.59-1.71A1.06,1.06,0,0,0,26.82,18.15Z"/><path class="cls-2" d="M34.39,10.18a1.07,1.07,0,0,0,1.48-.08l1.59-1.71a1.07,1.07,0,0,0-.08-1.52,28.29,28.29,0,0,0-37,0A1.07,1.07,0,0,0,.29,8.45l1.59,1.7a1.06,1.06,0,0,0,1.48.07,23.84,23.84,0,0,1,31,0Z"/><path class="cls-3" d="M29.16,15.85a1,1,0,0,0,1.45-.1l1.59-1.7a1.08,1.08,0,0,0-.1-1.55,20.61,20.61,0,0,0-26.44,0,1.07,1.07,0,0,0-.1,1.55l1.59,1.7a1.07,1.07,0,0,0,1.46.09,16.17,16.17,0,0,1,20.55,0Z"/><path class="cls-4" d="M38.7,12.5a12.83,12.83,0,0,0,7.91,2.72,12.88,12.88,0,0,0,8-2.74,1.06,1.06,0,0,0,.11-1.56L53.08,9.21a1.07,1.07,0,0,0-1.41-.14,8.43,8.43,0,0,1-10.1,0,1.06,1.06,0,0,0-1.4.14l-1.59,1.71A1.07,1.07,0,0,0,38.7,12.5Z"/><path class="cls-5" d="M65.22,22.21l-1.58-1.7a1.07,1.07,0,0,0-1.48-.08,23.87,23.87,0,0,1-31,.05,1.06,1.06,0,0,0-1.48.07l-1.58,1.71a1.06,1.06,0,0,0,.08,1.53,28.3,28.3,0,0,0,37-.06A1,1,0,0,0,65.22,22.21Z"/><path class="cls-6" d="M36.35,14.8a1.06,1.06,0,0,0-1.45.1l-1.58,1.7a1.07,1.07,0,0,0,.09,1.55,20.59,20.59,0,0,0,26.45,0A1.06,1.06,0,0,0,60,16.57l-1.59-1.71a1.06,1.06,0,0,0-1.45-.09,16.14,16.14,0,0,1-10.3,3.71A16.11,16.11,0,0,1,36.35,14.8Z"/></g></g></svg>