<svg xmlns="http://www.w3.org/2000/svg" viewBox="0 0 111.73 77.56"><defs><style>.cls-1{fill:#00c2f5;}.cls-2{fill:#0e7dbd;}.cls-3{fill:#034861;}</style></defs><g id="Layer_2" data-name="Layer 2"><g id="Layer_1-2" data-name="Layer 1"><path class="cls-1" d="M0,28.21v22.5H111.73V28.21ZM13.27,45.49h-6V33.42h6Zm11.25,0h-6V33.42h6Zm11.25,0h-6V33.42h6Zm11.25,0H41V33.42h6ZM79.26,47.4A3.45,3.45,0,1,1,82.71,44,3.44,3.44,0,0,1,79.26,47.4Zm10.88,0A3.45,3.45,0,1,1,93.58,44,3.44,3.44,0,0,1,90.14,47.4Zm10.87,0A3.45,3.45,0,1,1,104.46,44,3.45,3.45,0,0,1,101,47.4Z"/><path class="cls-2" d="M0,0V22.5H111.73V0ZM13.27,17.28h-6V5.21h6Zm11.25,0h-6V5.21h6Zm11.25,0h-6V5.21h6Zm11.25,0H41V5.21h6Zm32.24,1.91a3.45,3.45,0,1,1,3.45-3.44A3.44,3.44,0,0,1,79.26,19.19Zm10.88,0a3.45,3.45,0,1,1,3.44-3.44A3.44,3.44,0,0,1,90.14,19.19Zm10.87,0a3.45,3.45,0,1,1,3.45-3.44A3.45,3.45,0,0,1,101,19.19Z"/><path class="cls-3" d="M0,55.06v22.5H111.73V55.06ZM13.27,72.34h-6V60.27h6Zm11.25,0h-6V60.27h6Zm11.25,0h-6V60.27h6Zm11.25,0H41V60.27h6Zm32.24,1.91a3.45,3.45,0,1,1,3.45-3.44A3.44,3.44,0,0,1,79.26,74.25Zm10.88,0a3.45,3.45,0,1,1,3.44-3.44A3.44,3.44,0,0,1,90.14,74.25Zm10.87,0a3.45,3.45,0,1,1,3.45-3.44A3.45,3.45,0,0,1,101,74.25Z"/></g></g></svg>