<svg xmlns="http://www.w3.org/2000/svg" viewBox="0 0 110.04 99.76"><defs><style>.cls-1{fill:#00c2f5;}.cls-2{fill:#034861;}</style></defs><g id="Layer_2" data-name="Layer 2"><g id="Layer_1-2" data-name="Layer 1"><path class="cls-1" d="M102.24,32.58A18.22,18.22,0,0,0,95,27.12,29.26,29.26,0,0,0,65.71,0,29.65,29.65,0,0,0,43,10.77,24.27,24.27,0,0,0,13.3,26.47a18.34,18.34,0,0,0-8.78,5.66,18.58,18.58,0,0,0,14,30.73H37.33V55H18.5A10.72,10.72,0,0,1,17,33.68l2.69-.38.59-2.66A16.4,16.4,0,0,1,36.36,17.71a16.8,16.8,0,0,1,6.49,1.34l3,1.23,1.8-2.66A21.9,21.9,0,0,1,65.71,7.86,21.29,21.29,0,0,1,87.23,29.38v3.76l3.07.69a10.25,10.25,0,0,1,8,10.42v.11A10.63,10.63,0,0,1,94,52.9v8.82a18.48,18.48,0,0,0,12.17-17.3A18.25,18.25,0,0,0,102.24,32.58Z"/><path class="cls-2" d="M108.88,93.1,86.55,70.81l1.2-1.93a26.46,26.46,0,0,0-22.5-40.33h0a26.43,26.43,0,1,0,13.88,49L81,76.32l9.61,9.6L103.37,98.6a3.93,3.93,0,0,0,2.78,1.16h0a3.89,3.89,0,0,0,2.72-6.66ZM80.7,70.42A21.81,21.81,0,1,1,87.11,55,21.7,21.7,0,0,1,80.7,70.42Z"/></g></g></svg>