<svg xmlns="http://www.w3.org/2000/svg" viewBox="0 0 80.4 114.15"><defs><style>.cls-1{fill:#067dbe;}.cls-2{fill:#034861;}.cls-3{fill:#00c2f5;}</style></defs><g id="Layer_2" data-name="Layer 2"><g id="Layer_1-2" data-name="Layer 1"><circle class="cls-1" cx="40.56" cy="39.67" r="7.63"/><path class="cls-2" d="M66.2,99.25l-.06-.15L46.89,50.64a12.33,12.33,0,1,0-13.11-.07L14.51,99.1a.94.94,0,0,0-.06.15L10,110.43a2.72,2.72,0,1,0,5.05,2l3.78-9.52h43l3.78,9.52a2.72,2.72,0,1,0,5-2Zm-33-32.53H47.43l5,12.69H28.18Zm7.16-33.53a6.94,6.94,0,1,1-6.88,6.94A6.92,6.92,0,0,1,40.38,33.19Zm0,19.32a12.44,12.44,0,0,0,1.37-.08l3.52,8.85h-9.9l3.52-8.86A12.29,12.29,0,0,0,40.38,52.51ZM21,97.48l5-12.63H54.63l5,12.63Z"/><path class="cls-3" d="M57.72,56.75a2.71,2.71,0,0,0,3.8-.56A26.46,26.46,0,0,0,40.26,14h-.07A26.46,26.46,0,0,0,19.08,56.3a2.73,2.73,0,0,0,2.18,1.09A2.72,2.72,0,0,0,23.43,53,21,21,0,1,1,57.16,53,2.71,2.71,0,0,0,57.72,56.75Z"/><path class="cls-3" d="M77.76,25.87A40.19,40.19,0,0,0,40.2,0h-.12A40.19,40.19,0,0,0,13.72,70.43a2.72,2.72,0,0,0,3.58-4.09A34.76,34.76,0,0,1,40.1,5.44h.1A34.75,34.75,0,0,1,63.26,66.2a2.72,2.72,0,1,0,3.61,4.07,40.2,40.2,0,0,0,10.89-44.4Z"/></g></g></svg>