<svg xmlns="http://www.w3.org/2000/svg" viewBox="0 0 65.13 118.62"><defs><style>.cls-1{fill:#0e7dbd;}.cls-2{fill:#034861;}.cls-3{fill:#00c2f5;}.cls-4{fill:none;stroke:#0e7dbd;stroke-miterlimit:10;stroke-width:5px;}</style></defs><g id="Layer_2" data-name="Layer 2"><g id="Layer_1-2" data-name="Layer 1"><circle class="cls-1" cx="33.25" cy="106.59" r="3.42"/><path class="cls-2" d="M27.39,43.82l-8.82,9.47H14.1a.82.82,0,0,0-.81.82v10a.81.81,0,0,0,.81.81h4.47l8.82,9.48a.81.81,0,0,0,1.41-.55V44.37A.81.81,0,0,0,27.39,43.82Z"/><path class="cls-3" d="M32.5,54.15a1.85,1.85,0,0,0,0,2.61,3.33,3.33,0,0,1,0,4.69,1.84,1.84,0,0,0,2.61,2.6,7,7,0,0,0,0-9.9A1.87,1.87,0,0,0,32.5,54.15Z"/><path class="cls-3" d="M41.1,48.16a1.84,1.84,0,1,0-2.6,2.6,11.82,11.82,0,0,1,0,16.69,1.84,1.84,0,1,0,2.6,2.6,15.46,15.46,0,0,0,0-21.89Z"/><path class="cls-3" d="M47.1,42.16a1.85,1.85,0,0,0-2.61,2.61,20.29,20.29,0,0,1,0,28.67,1.85,1.85,0,0,0,2.61,2.61,24,24,0,0,0,0-33.89Z"/><path class="cls-4" d="M55.67,2.5H9.45C5.62,2.5,2.5,6.37,2.5,11.13v96.36c0,4.76,3.12,8.63,7,8.63H55.67c3.84,0,7-3.87,7-8.63V11.13C62.63,6.37,59.51,2.5,55.67,2.5Z"/><line class="cls-4" x1="2.68" y1="98.26" x2="61.84" y2="98.26"/><line class="cls-4" x1="3.19" y1="14.54" x2="62.35" y2="14.54"/></g></g></svg>