<svg xmlns="http://www.w3.org/2000/svg" viewBox="0 0 62.19 60.65"><defs><style>.cls-1{fill:#067dbe;}.cls-2{fill:#024861;}.cls-3{fill:none;stroke:#067dbe;stroke-miterlimit:10;}</style></defs><g id="Layer_2" data-name="Layer 2"><g id="Layer_1-2" data-name="Layer 1"><path class="cls-1" d="M29.57,7.62h0a3.34,3.34,0,0,1-2.83-1.36,4.19,4.19,0,0,1-.35-3.71A3.86,3.86,0,0,1,29.2,0a2.92,2.92,0,0,1,.51,0A3.6,3.6,0,0,1,32.5,1.45a4.13,4.13,0,0,1,.66,3.88A3.8,3.8,0,0,1,29.57,7.62Zm.14-6.46-.32,0A2.66,2.66,0,0,0,27.48,3a3.06,3.06,0,0,0,.2,2.65,2.24,2.24,0,0,0,1.89.86h0a2.65,2.65,0,0,0,2.51-1.55,3,3,0,0,0-.49-2.75A2.44,2.44,0,0,0,29.71,1.16Z"/><path class="cls-1" d="M27.91,16.84H27.8a1.82,1.82,0,0,1-1.65-1.95,1.68,1.68,0,0,1,1.73-1.55,1.89,1.89,0,0,1,1.34.54,1.66,1.66,0,0,1,.32,1.84A1.78,1.78,0,0,1,27.91,16.84Zm0-2.36a.54.54,0,0,0-.58.52.59.59,0,0,0,.16.45.6.6,0,0,0,.42.23.64.64,0,0,0,.6-.42.54.54,0,0,0-.08-.58A.76.76,0,0,0,27.88,14.48Z"/><path class="cls-2" d="M38.58,28.44a16.48,16.48,0,0,1-10.41-3.71,2.24,2.24,0,0,1-.89-1.29,2.27,2.27,0,0,1,1-2,17.54,17.54,0,0,1,21.23-.83,31.79,31.79,0,0,1,5.68-1.24.83.83,0,0,1,.62,1.54A21.8,21.8,0,0,1,52.71,23L55,26.24a.59.59,0,0,1,.13.37.57.57,0,0,1-.57.58l-.17,0a12,12,0,0,1-5.07-2.72,16.67,16.67,0,0,1-10.22,4Zm.87-9.86H39a16.43,16.43,0,0,0-9.92,3.73c-.45.37-.67.69-.63.92s.25.4.49.59a15.22,15.22,0,0,0,20-.6.57.57,0,0,1,.82,0A9.21,9.21,0,0,0,53,25.48l-1.64-2.37a.57.57,0,0,1-.09-.47.56.56,0,0,1,.3-.37,23.31,23.31,0,0,0,2.61-1.59,29.11,29.11,0,0,0-4.59,1.11.57.57,0,0,1-.52-.08A16.52,16.52,0,0,0,39.45,18.58Z"/><path class="cls-2" d="M36.29,18.89a.58.58,0,0,1-.24-1.11c1.71-.79,3.47-1.52,5.21-2.18a.57.57,0,0,1,.75.33.59.59,0,0,1-.34.75c-1.72.65-3.45,1.37-5.14,2.15A.53.53,0,0,1,36.29,18.89Z"/><path class="cls-2" d="M46.71,28.28h0a20.16,20.16,0,0,1-4.1-.42.58.58,0,0,1,.23-1.13,20.09,20.09,0,0,0,3.87.4.58.58,0,1,1,0,1.15Z"/><path class="cls-2" d="M33.35,22.09a.92.92,0,0,0-.81-.21A.89.89,0,0,0,32,23.14a1,1,0,0,0,1.45.27A.85.85,0,0,0,33.35,22.09Z"/><path class="cls-2" d="M32.48,60.65a16.46,16.46,0,0,1-10.4-3.71,2.23,2.23,0,0,1-.9-1.3,2.29,2.29,0,0,1,1-2,17.53,17.53,0,0,1,21.22-.83,32.18,32.18,0,0,1,5.68-1.24.88.88,0,0,1,1,.39.86.86,0,0,1-.33,1.14,23.46,23.46,0,0,1-3.14,2.09l2.25,3.26a.55.55,0,0,1,.14.37.59.59,0,0,1-.58.58.45.45,0,0,1-.16,0,12,12,0,0,1-5.08-2.71,16.62,16.62,0,0,1-10.22,4Zm.88-9.86h-.49A16.45,16.45,0,0,0,23,54.53c-.45.37-.67.69-.63.92a1.35,1.35,0,0,0,.49.59,15.2,15.2,0,0,0,20-.61.59.59,0,0,1,.42-.15.56.56,0,0,1,.4.19,9.43,9.43,0,0,0,3.3,2.22l-1.64-2.37a.6.6,0,0,1-.08-.47.55.55,0,0,1,.29-.37,22.44,22.44,0,0,0,2.61-1.59A28.17,28.17,0,0,0,43.53,54a.66.66,0,0,1-.53-.08A16.49,16.49,0,0,0,33.36,50.79Z"/><path class="cls-2" d="M30.19,51.09a.56.56,0,0,1-.52-.33A.58.58,0,0,1,30,50c1.71-.79,3.47-1.52,5.22-2.19a.58.58,0,0,1,.41,1.09c-1.73.65-3.46,1.37-5.15,2.15A.49.49,0,0,1,30.19,51.09Z"/><path class="cls-2" d="M40.61,60.49h0a20.23,20.23,0,0,1-4.1-.42.58.58,0,1,1,.24-1.13,19.29,19.29,0,0,0,3.86.39.58.58,0,0,1,0,1.16Z"/><path class="cls-2" d="M27.25,54.3a.9.9,0,0,0-.8-.21.88.88,0,0,0-.52,1.25,1,1,0,0,0,1.45.28A.84.84,0,0,0,27.25,54.3Z"/><path class="cls-2" d="M44.49,44.33a16.48,16.48,0,0,1-10.41-3.71,2.27,2.27,0,0,1-.89-1.29,2.27,2.27,0,0,1,1-2,17.54,17.54,0,0,1,21.23-.83,32,32,0,0,1,5.68-1.24.83.83,0,0,1,.62,1.54,23.61,23.61,0,0,1-3.13,2.08l2.25,3.26a.59.59,0,0,1,.13.37.58.58,0,0,1-.57.58l-.17,0a12,12,0,0,1-5.07-2.72,16.6,16.6,0,0,1-10.22,4Zm.88-9.86h-.49A16.45,16.45,0,0,0,35,38.21c-.45.37-.67.69-.63.92s.25.4.49.59a15.46,15.46,0,0,0,9.67,3.46h.44a15.41,15.41,0,0,0,9.89-4.06.57.57,0,0,1,.42-.15.58.58,0,0,1,.4.19,9.21,9.21,0,0,0,3.3,2.22L57.3,39a.57.57,0,0,1-.09-.47.56.56,0,0,1,.3-.37,22.44,22.44,0,0,0,2.61-1.59,29.11,29.11,0,0,0-4.59,1.11A.57.57,0,0,1,55,37.6,16.51,16.51,0,0,0,45.37,34.47Z"/><path class="cls-2" d="M42.2,34.78A.58.58,0,0,1,42,33.67c1.71-.79,3.47-1.52,5.21-2.18a.57.57,0,0,1,.75.33.59.59,0,0,1-.34.75c-1.72.65-3.45,1.37-5.14,2.15A.53.53,0,0,1,42.2,34.78Z"/><path class="cls-2" d="M52.62,44.17h0a20.16,20.16,0,0,1-4.1-.42.58.58,0,1,1,.23-1.13,20.09,20.09,0,0,0,3.87.4.58.58,0,1,1,0,1.15Z"/><path class="cls-2" d="M39.26,38a.92.92,0,0,0-.81-.21A.89.89,0,0,0,37.94,39a1,1,0,0,0,1.45.27A.85.85,0,0,0,39.26,38Z"/><path class="cls-3" d="M9.73,30.48a22.41,22.41,0,0,0-.36-3.17c-.22-.94-.42-1.89-.63-2.83a16.61,16.61,0,0,0-.61-1.93c-.4-1.08-.82-2.16-1.12-3.29a8.58,8.58,0,0,1-.35-2.57,1.88,1.88,0,0,1,.4-1.14.83.83,0,0,1,1.16-.2,1.79,1.79,0,0,1,.47.44,4.8,4.8,0,0,1,.83,1.68,26,26,0,0,1,.77,3.39c.11.61.2,1.23.31,1.85a3.5,3.5,0,0,0,.15.64.65.65,0,0,0,1.11.21A3.8,3.8,0,0,0,12.69,22c.3-1.19.59-2.39.92-3.57a6.43,6.43,0,0,1,.73-1.8,2.71,2.71,0,0,1,.51-.61.71.71,0,0,1,.87-.08,1.54,1.54,0,0,1,.8,1.22,4.38,4.38,0,0,1-.35,2.62c-.22.43-.42.87-.67,1.28a29.87,29.87,0,0,0-1.52,3c-.34.74-.66,1.5-.94,2.27s-.43,1.28-.61,1.94A25.42,25.42,0,0,0,11.82,31c-.25,1.55-.57,3.09-.85,4.63-.16.9-.34,1.8-.46,2.71a10.45,10.45,0,0,0,0,1.37.23.23,0,0,0,.37.17,1,1,0,0,0,.26-.25,13.94,13.94,0,0,0,.82-1.19,14.88,14.88,0,0,0,1.21-2.55c.36-1,.73-2,1.08-3.07.45-1.3.74-2.65,1.07-4a11.1,11.1,0,0,0,.17-1.29c.06-.53.1-1.06.17-1.58a8.79,8.79,0,0,1,1-3.16c.16-.3.29-.61.45-.91a6.38,6.38,0,0,1,.32-.57.58.58,0,0,1,.88-.11,1.2,1.2,0,0,1,.42.66,3,3,0,0,1,.09,1.29,32.89,32.89,0,0,1-.86,4.4c-.31,1.19-.59,2.39-.87,3.59a5.75,5.75,0,0,0-.1,1.94c0,.07,0,.16.12.15s.12-.06.18-.09,0,0,0-.06a23.53,23.53,0,0,1,1.31-2,4.18,4.18,0,0,1,1.15-1.29.71.71,0,0,1,.81-.06,1,1,0,0,1,.58,1.2,3.57,3.57,0,0,1-.73,1.55A14.77,14.77,0,0,1,19,34.05a4,4,0,0,0-.42.4,17.86,17.86,0,0,1-1.75,1.73,12.81,12.81,0,0,0-1.34,1.42,12,12,0,0,1-1.09,1.16,5.37,5.37,0,0,0-1,1.3,12.56,12.56,0,0,0-1.1,2.2A4.86,4.86,0,0,0,12,43.6c0,.72,0,1.45,0,2.17A2.7,2.7,0,0,0,12.24,47a.78.78,0,0,0,.62.45,2,2,0,0,0,1.33-.23c.32-.18.63-.36.93-.56a2.76,2.76,0,0,0,.57-.45,11.44,11.44,0,0,0,1.87-2.65c.31-.68.6-1.37.88-2.07.48-1.18.94-2.38,1.4-3.57.32-.81.61-1.63.91-2.44a7.49,7.49,0,0,1,.54-1.19,14.29,14.29,0,0,0,.92-2.12c.22-.56.44-1.12.69-1.67a3.47,3.47,0,0,1,.38-.61,1.06,1.06,0,0,1,1.67.21,1,1,0,0,1,.08.42,2.13,2.13,0,0,1-.1.49c-.24.76-.48,1.52-.74,2.28a4.41,4.41,0,0,1-.28.58,43.07,43.07,0,0,0-2.21,5l-.12.34a.57.57,0,0,0,.1.54c.06.09.19.12.25.05a1.75,1.75,0,0,0,.29-.32,12,12,0,0,0,.67-1.28c.29-.69.54-1.39.79-2.1a13.65,13.65,0,0,1,1.05-2.3,1.56,1.56,0,0,1,1.5-.83.59.59,0,0,1,.54.3,1.34,1.34,0,0,1,.2.46A3.27,3.27,0,0,1,27,34.72a6.21,6.21,0,0,1-.42,1.75c-.12.27-.17.56-.28.83a7.7,7.7,0,0,1-1.45,2.39c-.52.54-1,1.13-1.48,1.7a4.79,4.79,0,0,1-.87.75c-.28.2-.53.42-.8.62-.06.05-.1.11-.16.15a19.1,19.1,0,0,0-1.82,1.55l-1.1,1-.86.88c-.87.87-1.74,1.74-2.62,2.6a6,6,0,0,1-.72.61A15.9,15.9,0,0,1,12,51a1.38,1.38,0,0,1-1.31-.09,3.93,3.93,0,0,1-.42-.29,15.45,15.45,0,0,1-3.95-4.38c-.08-.12-.16-.24-.25-.35a9,9,0,0,1-.85-1.26c-.16-.29-.41-.54-.58-.83L3.26,41.51a6.84,6.84,0,0,0-.47-.72c-.38-.56-.78-1.11-1.16-1.67a3.72,3.72,0,0,1-.41-.76C1,37.78.77,37.19.57,36.59a1,1,0,0,1,0-.71A.36.36,0,0,1,1,35.69a2.35,2.35,0,0,1,1,1c.23.45.44.91.66,1.37a5.11,5.11,0,0,0,.75,1.14.56.56,0,0,0,.16.15.31.31,0,0,0,.19,0s.07-.07.07-.11a4.35,4.35,0,0,0,0-.51c0-.45-.08-.91-.11-1.36a7.28,7.28,0,0,0-.39-1.84,28.15,28.15,0,0,1-.83-2.85,7.23,7.23,0,0,1-.12-1.15,1.48,1.48,0,0,1,.31-1,.45.45,0,0,1,.65-.1,1.9,1.9,0,0,1,.4.4A4.38,4.38,0,0,1,4.36,32a9.7,9.7,0,0,1,.57,2.76c0,1,.24,2,.36,3,.06.45.14.9.21,1.36a16.76,16.76,0,0,0,1.4,4.7,8.77,8.77,0,0,0,1.53,2.28A5,5,0,0,0,9,46.6c.07,0,.22,0,.23-.12a4.56,4.56,0,0,0,0-.64,19.11,19.11,0,0,0-.78-4,20,20,0,0,1-.58-3c-.17-1.14-.37-2.28-.56-3.42,0-.2-.07-.38-.1-.58a9.43,9.43,0,0,0-.63-2.44c-.37-.92-.69-1.85-1.1-2.75a20.62,20.62,0,0,1-.88-2.38A16.93,16.93,0,0,1,4,24.77c-.07-.5-.13-1-.18-1.51a2.86,2.86,0,0,1,0-.65.61.61,0,0,1,.56-.49,1,1,0,0,1,.8.24,2.64,2.64,0,0,1,.73,1,16,16,0,0,1,.71,2.12c.41,1.54.81,3.09,1.21,4.63a8.12,8.12,0,0,0,.85,2c.11.19.24.39.5.34s.29-.26.32-.45C9.63,31.46,9.68,30.93,9.73,30.48Z"/></g></g></svg>