<svg xmlns="http://www.w3.org/2000/svg" viewBox="0 0 61.6 40.68"><defs><style>.cls-1{fill:#034861;}.cls-2{fill:none;stroke:#2c7eb7;stroke-miterlimit:10;stroke-width:1.21px;}</style></defs><g id="Layer_2" data-name="Layer 2"><g id="Layer_1-2" data-name="Layer 1"><path class="cls-1" d="M61,38.18c-1.93-2.07-3.85-4.15-5.74-6.25a1.77,1.77,0,0,1-.26-.35,2.22,2.22,0,0,1-.31-1.12V4.25A4,4,0,0,0,50.55,0H10.87a4.53,4.53,0,0,0-1,.07A4,4,0,0,0,6.69,4.35c0,9.09,0,14.87,0,24V30A2.7,2.7,0,0,1,6,31.8L.63,38.2a1.37,1.37,0,0,0-.54,1.62,1.3,1.3,0,0,0,1.2.85c.26,0,.52,0,.78,0h57.8c.69,0,1.31-.1,1.62-.82S61.45,38.67,61,38.18ZM10.27,4.87c0-1.17.45-1.63,1.61-1.63h37.6c1.18,0,1.63.44,1.63,1.61V29.93H10.31c0-.23,0-.44,0-.66Zm27.63,33-.72-2.18H24.42l-.72,2.18H5.37c.17-.21.29-.37.42-.52C6.89,36.13,8,34.9,9.11,33.69a1.31,1.31,0,0,1,.84-.38c14.93,0,26.54,0,41.46,0a1.46,1.46,0,0,1,1,.4c1.29,1.34,2.53,2.72,3.87,4.17Z"/><line class="cls-2" x1="28.05" y1="11.44" x2="42.34" y2="11.44"/><line class="cls-2" x1="28.05" y1="16.24" x2="42.34" y2="16.24"/><line class="cls-2" x1="28.05" y1="21.05" x2="42.34" y2="21.05"/><polyline class="cls-2" points="20.77 10.75 22.28 12.26 25.86 8.69"/><polyline class="cls-2" points="20.77 15.69 22.28 17.2 25.86 13.63"/><circle class="cls-2" cx="22.86" cy="21.3" r="1.49"/></g></g></svg>