<svg xmlns="http://www.w3.org/2000/svg" viewBox="0 0 58.25 117.66"><defs><style>.cls-1{fill:#00c2f5;}.cls-2{fill:#034861;}.cls-3{fill:#fff;}.cls-3,.cls-4{stroke:#034861;stroke-miterlimit:10;stroke-width:2px;}.cls-4{fill:none;}</style></defs><g id="Layer_2" data-name="Layer 2"><g id="Layer_1-2" data-name="Layer 1"><path class="cls-1" d="M50.67,38.35H7.58a3.87,3.87,0,0,0-3.87,3.87v71.57a3.87,3.87,0,0,0,3.87,3.87H50.67a3.87,3.87,0,0,0,3.87-3.87V42.22A3.87,3.87,0,0,0,50.67,38.35Zm.63,67.79A3.35,3.35,0,0,1,48,109.48H10.29A3.35,3.35,0,0,1,7,106.14V45.22a3.34,3.34,0,0,1,3.34-3.33H48a3.34,3.34,0,0,1,3.34,3.33Z"/><path class="cls-2" d="M.88,15.92a3,3,0,0,0,4.21,0,34,34,0,0,1,48.07,0,3,3,0,0,0,5.09-2.11,3,3,0,0,0-.87-2.1,39.94,39.94,0,0,0-56.51,0A3,3,0,0,0,.88,15.92Z"/><path class="cls-2" d="M9.17,20a3,3,0,0,0,4.22,4.22,22.19,22.19,0,0,1,31.42,0,3,3,0,0,0,4.21,0,2.93,2.93,0,0,0,.89-2.12,3,3,0,0,0-.85-2.09A28.16,28.16,0,0,0,9.17,20Z"/><path class="cls-2" d="M17.47,28.32a3,3,0,1,0,4.21,4.22,10.49,10.49,0,0,1,14.89,0,3,3,0,0,0,4.21-4.22,16.45,16.45,0,0,0-23.31,0Z"/><path class="cls-3" d="M44.13,95.83h-28V60.12a3.31,3.31,0,0,1,3.35-3.27h18l6.63,6.65Z"/><rect class="cls-4" x="19.79" y="72.86" width="20.31" height="19.08" rx="2.73"/><polyline class="cls-4" points="26.68 73.02 26.67 79.81 40.1 79.82"/><line class="cls-4" x1="33.31" y1="73.35" x2="33.3" y2="79.82"/><line class="cls-4" x1="26.75" y1="84.83" x2="26.75" y2="91.7"/><line class="cls-4" x1="33.79" y1="84.83" x2="33.78" y2="91.7"/><polyline class="cls-4" points="19.88 84.98 26.67 84.99 40.26 84.99"/></g></g></svg>