<svg xmlns="http://www.w3.org/2000/svg" viewBox="0 0 93.77 75.66"><defs><style>.cls-1{fill:#034861;}.cls-2{fill:#00c2f5;}.cls-3{fill:#005691;}</style></defs><g id="Layer_2" data-name="Layer 2"><g id="Layer_1-2" data-name="Layer 1"><path class="cls-1" d="M44.56,55.05V48.4a3.55,3.55,0,0,0-.12-1,5.87,5.87,0,0,0-2.28,4.44c-.18,2.4.85,4.51,2.41,5.3V56a1.58,1.58,0,0,1,0-.94Z"/><path class="cls-2" d="M76.6,43.14v5l.27-.12a4.74,4.74,0,0,1,2-.43h7.53a3.21,3.21,0,0,1,3.2,3.2v6.34a3.2,3.2,0,0,1-1.88,2.91l-.12.06-.13,0L76.6,63.05v2.2a3.83,3.83,0,0,0,3.83,3.83h9.51a3.84,3.84,0,0,0,3.83-3.83V43.14a3.83,3.83,0,0,0-3.83-3.83H80.43A3.82,3.82,0,0,0,76.6,43.14Z"/><path class="cls-1" d="M60.73,65.59,76.6,61.37,87,58.59a1.56,1.56,0,0,0,.92-1.43V50.82a1.51,1.51,0,0,0-.13-.61,1.56,1.56,0,0,0-1.44-1H78.83a2.9,2.9,0,0,0-1,.16,2,2,0,0,0-.31.12c-.23.1-.55.24-1,.39C73.75,51,67,53.17,62,54.74a7.51,7.51,0,0,0,.26-1.47c0-.11,0-.22,0-.32a5.86,5.86,0,0,0-1.51-4.3,3.33,3.33,0,0,0-1.55-.91,2.74,2.74,0,0,0-.5-.08,3.28,3.28,0,0,0-2.28.75,5.93,5.93,0,0,0-2,4.05l0,.24a6.69,6.69,0,0,0,.32,2.64c.05.15.11.3.17.45A4.79,4.79,0,0,0,56,57.48a3.25,3.25,0,0,0,1,.63,3.26,3.26,0,0,1-.7,0l-.33,0a3.83,3.83,0,0,1-1.62-.7,5.78,5.78,0,0,1-2.1-5.16c.24-3.21,2.36-5.67,4.74-5.5a3.38,3.38,0,0,1,1,.26l.75.19.35.11s0-.2,0-.51c0-.63,0-1.69,0-2.49V44c0-.27,0-.48,0-.61a2.76,2.76,0,0,1,.12-.52A4.45,4.45,0,0,1,59.7,42c.11-.2.24-.4.38-.61l.24-.33c.17-.21.35-.44.55-.66l.32-.34a18,18,0,0,1,2-1.76l1.13-.78-29,6.67h2.41l.48,0h.11l.41,0h.11l.48,0h.09l.39,0h.12l.47,0h0l.41,0H41l.43,0c2.3.23,3.09.41,3.83,1.16a4,4,0,0,1,.64,1.21,4.82,4.82,0,0,1,.23,1.53v7.17l-.05,0a.11.11,0,0,0,0,0l0,0V66.54a2.07,2.07,0,0,0,.34.4,3.75,3.75,0,0,0,.51.36c.09.06.2.11.31.17a5.38,5.38,0,0,0,.72.3c.26.09.55.18.85.26l.47.1c.49.1,1,.18,1.57.24s1.16.08,1.78.08,1.21,0,1.77-.08a9,9,0,0,0,4.2-1.25,2.13,2.13,0,0,0,.58-.58V66l.06-7.9A4,4,0,0,0,60.8,57v.5ZM60,56a1.76,1.76,0,0,1-1.08.33A1.7,1.7,0,0,1,58,56a2.13,2.13,0,0,1-.26-.26,3.11,3.11,0,0,1-.65-1.16,4.83,4.83,0,0,1-.23-1.85c.14-1.88,1.3-3.39,2.54-3.3a1.75,1.75,0,0,1,1.21.68,4.18,4.18,0,0,1,.82,3s0,.1,0,.15a4.63,4.63,0,0,1-.62,1.9A3.1,3.1,0,0,1,60,56Z"/><path class="cls-1" d="M48.72,69.75v4.74c.42.67,2,1.17,4,1.17s3.58-.5,4-1.17V69.75a18.82,18.82,0,0,1-8,0Z"/><path class="cls-3" d="M0,13.35c0,.1,0,.2,0,.3s0,.15,0,.22,0,.2,0,.3,0,.15,0,.22,0,.2,0,.3l0,.23c0,.09,0,.19,0,.29s0,.15,0,.22,0,.2,0,.3l0,.22c0,.1,0,.2.05.29s0,.15,0,.22,0,.2,0,.29,0,.15,0,.22l.06.29a2.25,2.25,0,0,0,.05.22l.06.27L.64,18c0,.09,0,.18.07.28l.06.21a2.76,2.76,0,0,1,.08.27c0,.07.05.14.07.21s.06.18.08.26l.08.21.09.26c0,.07.05.14.07.2s.07.17.1.25l.08.2c0,.09.07.17.11.25l.09.19.1.24a1.74,1.74,0,0,1,.1.19,2.26,2.26,0,0,0,.11.22c0,.07.07.13.1.19l.12.22.1.18.12.2a1.74,1.74,0,0,1,.11.18l.13.19.12.18.13.18.12.16.13.18.13.15a1.07,1.07,0,0,0,.14.16l.13.15.14.15.13.14.15.14.14.13.15.13.14.11.16.12.15.11.15.1L5,25a.6.6,0,0,0,.15.09l.16.09a.8.8,0,0,1,.16.08l.17.07.16.06L6,25.4l.16.05.18,0,.17,0,.17,0,.17,0h.1A23.84,23.84,0,0,1,9.49,12.93,15.85,15.85,0,0,1,18.22,5.1a32.41,32.41,0,0,0-8.89-3H9.12a6.26,6.26,0,0,0-.75,0H8.19l-.58.05-.2,0c-.24,0-.47.07-.7.12l-.49.13-.16.05-.32.1-.19.07-.26.1-.2.1L4.85,3l-.19.1-.22.12-.19.12a1.37,1.37,0,0,0-.2.13c-.07,0-.12.09-.18.13l-.2.14-.17.14L3.32,4l-.17.15A1.29,1.29,0,0,1,3,4.31l-.15.17-.16.16-.15.18L2.37,5l-.14.19-.13.18c-.05.06-.09.13-.14.2l-.12.18A2.39,2.39,0,0,0,1.71,6a1.18,1.18,0,0,0-.11.19l-.12.22a1.74,1.74,0,0,0-.1.19,2.4,2.4,0,0,0-.11.23,1.24,1.24,0,0,0-.1.2c0,.08-.07.15-.1.23L1,7.42l-.09.24-.08.21c0,.08-.05.17-.08.25a1.72,1.72,0,0,0-.07.21l-.08.26L.52,8.8l-.06.27L.4,9.28l-.06.27c0,.08,0,.15,0,.22a2.74,2.74,0,0,0,0,.28c0,.07,0,.14,0,.22s0,.19,0,.28l0,.22a2.89,2.89,0,0,1,0,.29,1.64,1.64,0,0,1,0,.22,2.83,2.83,0,0,0,0,.29,1.64,1.64,0,0,0,0,.22c0,.1,0,.2,0,.3a1.7,1.7,0,0,1,0,.22,2.81,2.81,0,0,1,0,.29v.75Z"/><path class="cls-3" d="M54.49,27.72h-.08l-1.35.1-1.4.1A23.61,23.61,0,0,1,50,36a16.42,16.42,0,0,1-.76,1.64,15.65,15.65,0,0,1-1.32,2l6.68-1.53,11.43-2.63A9.87,9.87,0,0,0,68,34.76c3.53-1.74,6.09-5.44,7.09-10L54.57,27.71Z"/><path class="cls-3" d="M38.46,38.45c-.11.2-.22.4-.34.6-.33.57-.68,1.11-1,1.63-.16.22-.33.45-.51.66a14,14,0,0,1-1,1.15l9.53-2.18a11.28,11.28,0,0,0,2.13-2.45,13.21,13.21,0,0,0,.93-1.66A21.13,21.13,0,0,0,50,28L48.7,28a19.07,19.07,0,0,1-7.61-1.36A24.09,24.09,0,0,1,39,37.4C38.82,37.75,38.65,38.11,38.46,38.45Z"/><path class="cls-2" d="M34.78,21.22l-.27-.4a57.19,57.19,0,0,0-4.87-6.47,41.65,41.65,0,0,0-8-7.22l-.32-.21c-.2-.14-.4-.26-.61-.39l-.47-.29-.39.08C12.66,8.05,8,16.18,8.53,25.5c0,.67.11,1.34.2,2,0,.25.07.5.12.75s.11.64.18,1c0,.11.05.21.07.32s.09.42.15.63l.09.36c.05.19.1.38.16.56s.07.26.11.38.11.36.17.53.09.26.13.38l.18.51.15.37c.06.17.13.33.2.5l.15.36.22.48A3.78,3.78,0,0,0,11,35c.07.16.15.32.23.48s.12.22.17.33l.27.48.17.3c.1.17.2.34.31.5l.15.25q.21.33.42.63a.61.61,0,0,0,.07.1c.16.24.33.47.51.7l.12.16c.14.17.27.35.41.51l.19.23.36.41.22.24.35.37.24.24.36.34.25.23.36.31.26.22c.12.1.24.2.37.29l.26.21.38.27.27.19.4.25.26.17.43.25a2,2,0,0,1,.25.14l.51.26.18.08c.23.11.46.22.7.31l.11,0c.19.08.39.16.6.23l.24.08.47.15.29.07.44.11.31.06.42.08.32.05.42,0,.33,0,.42,0h.66q.33,0,.66,0l.28,0h.11l.81-.1a12.24,12.24,0,0,0,1.23-.29l.27-.07a12.54,12.54,0,0,0,3.3-1.58,14.29,14.29,0,0,0,3.11-2.87c.12-.14.23-.28.34-.43s.1-.12.14-.19A16.23,16.23,0,0,0,37,37.65c.13-.24.25-.48.37-.73a19.67,19.67,0,0,0,1.23-3.3A22.4,22.4,0,0,0,39.33,30c0-.32.06-.63.08-.95.05-.64.07-1.28.06-1.94,0-.42,0-.85,0-1.29A14.23,14.23,0,0,1,34.78,21.22Zm-8.52,13a5.18,5.18,0,0,1-.8.19,5.42,5.42,0,0,1-.81.08h-.2c-3.66,0-6.86-3.2-7.61-7.61a10.1,10.1,0,0,1-.14-2c.07-3.67,2.05-6.81,5-7.74a5.18,5.18,0,0,1,.8-.19,5.42,5.42,0,0,1,.81-.08h.2c3.51,0,6.59,2.95,7.5,7.09,0,.18.08.35.11.53A9.5,9.5,0,0,1,31.25,26C31.37,29.86,29.34,33.26,26.26,34.24Z"/><path class="cls-3" d="M29.5,24.75a7,7,0,0,0-.14-.69c0-.08-.05-.16-.07-.23s-.08-.3-.13-.45l-.09-.25c-.05-.13-.09-.26-.15-.39a2.72,2.72,0,0,0-.11-.25c-.06-.12-.11-.24-.17-.35s-.09-.17-.13-.25l-.19-.32-.15-.24L28,21c-.05-.08-.11-.15-.16-.22l-.23-.27a1.71,1.71,0,0,0-.18-.2,2.83,2.83,0,0,0-.24-.25,1.54,1.54,0,0,0-.19-.17l-.26-.23-.19-.15-.3-.2L26,19.23a3.72,3.72,0,0,0-.39-.21L25.53,19a4.55,4.55,0,0,0-.51-.21l-.15,0-.38-.11-.2,0L24,18.52l-.23,0h-.46a4.4,4.4,0,0,0-.51.05,5.45,5.45,0,0,0-.79.22,5.53,5.53,0,0,0-.74.35,2.45,2.45,0,0,1,.87.4,3.44,3.44,0,0,1,1,1.22A4.29,4.29,0,0,1,23.55,22a4.19,4.19,0,0,1,0,1.32,4,4,0,0,1-.36,1.15L23,24.8a2.35,2.35,0,0,1-1.47,1,2.52,2.52,0,0,1-2.36-1.06,4,4,0,0,1-.68-1.35,8,8,0,0,0-.16,1.4,8.39,8.39,0,0,0,.12,1.86l0,.16c0,.18.07.36.11.54l.07.22c0,.15.08.3.13.45l.09.25.15.39.11.26.17.34c0,.09.09.17.13.25l.19.32.15.24.21.29c.05.08.11.15.16.22l.23.27a1.71,1.71,0,0,0,.18.2l.24.25a1.54,1.54,0,0,0,.19.17l.26.23.19.15.3.2.18.12.39.21.11.06a4.55,4.55,0,0,0,.51.21l.15,0,.38.11.2,0,.33,0,.23,0h.46a4.4,4.4,0,0,0,.51-.05,5.11,5.11,0,0,0,.79-.22l.3-.12a4.76,4.76,0,0,0,.69-.4,5.14,5.14,0,0,0,1.07-1,5,5,0,0,0,.39-.52,7.33,7.33,0,0,0,1-2.33c0-.22.09-.44.12-.67a9.1,9.1,0,0,0,.1-1.39c0-.05,0-.09,0-.14A8.67,8.67,0,0,0,29.5,24.75Z"/><path class="cls-3" d="M14,1.16c.81.26,1.63.55,2.47.89.55.23,1.11.48,1.68.74l.84.42c.57.29,1.14.6,1.72.93l.48.3c.41.25.83.5,1.24.78l.24.15.84.59.09.06c.31.22.61.45.92.69.47.36.94.73,1.41,1.12s1.18,1,1.77,1.56q1.61,1.5,3.21,3.32c.09.1.19.2.28.31l.92,1.08c.58.72,1.17,1.46,1.75,2.24S35,18,35.62,18.8q.43.64.87,1.32.19.3.39.57l.11.15c.12.17.24.32.37.48l0,.06.42.49.11.12.37.38.08.09.45.41L39,23l.15.13.23.18.11.09c.15.12.31.23.47.34l.1.07.4.25.12.08.39.22a.31.31,0,0,0,.1.05l.09.05.42.21.14.06.5.22,0,0,.47.18.14,0,.49.16h0l.52.14.14,0,.45.1.09,0,.52.1.14,0,.44.07h.11l.53.06.13,0,.43,0H47l.53,0h2.79l.46,0H51l.57,0h.12l.6,0,.27,0,.47,0,.46,0,.21,0,.6,0,21.12-3,.65-.09.2-.05a1.85,1.85,0,0,0,.86-.49,1.89,1.89,0,0,0,.57-1.19,38.2,38.2,0,0,0,.18-4.12q0-1-.12-1.71C76.46,4.86,69.6,1.87,63.92,1.36c0,0-12-.36-24.88-.71L36.68.59,30.8.43,27.35.34,25.11.29,20.85.19,17.91.13,15.23.07,11.5,0,9.3,0l.33.06A34.23,34.23,0,0,1,14,1.16Z"/><path class="cls-1" d="M59.48,51c-.5,0-1.14.75-1.22,1.82a2.57,2.57,0,0,0,.23,1.31,1.05,1.05,0,0,0,.67.65h.05c.4,0,.89-.47,1.11-1.23a3.43,3.43,0,0,0,.11-.59v-.2C60.43,51.8,60,51,59.48,51Z"/></g></g></svg>