<svg xmlns="http://www.w3.org/2000/svg" viewBox="0 0 71.98 74.73"><defs><style>.cls-1{fill:#00c2f5;}.cls-2,.cls-4,.cls-5{fill:none;stroke-miterlimit:10;stroke-width:2.48px;}.cls-2{stroke:#034861;}.cls-3{fill:#005691;}.cls-4{stroke:#2a5082;}.cls-5{stroke:#00c2f5;}</style></defs><g id="Layer_2" data-name="Layer 2"><g id="Layer_1-2" data-name="Layer 1"><path class="cls-1" d="M66.92,12.41h-9.8c-4.49,0-14.7,3.41-17.82,4.82s-4.24,5.33-4.43,8.07V36.66c.19,2.74,1.47,6.75,4.43,8.11s13.33,4.87,17.82,4.87h9.8S72,44.38,72,31,66.92,12.41,66.92,12.41Z"/><path class="cls-2" d="M6.53,68.51S8.26,61,8.26,56.42c0-9.72-4.27-14.51-6.6-21.25"/><polyline class="cls-3" points="33.63 34.74 39.83 34.74 39.83 26.06 33.63 26.06"/><polyline class="cls-3" points="8.81 26.06 0.13 26.06 0.13 34.74 8.81 34.74"/><path class="cls-2" d="M61.19,58.49c0,1.16-1.92,2.78-3.17,3.17a7.49,7.49,0,0,0,.63,2.85,5,5,0,0,1-4.92,6.81c-2.49,0-16.29-4.11-18.36-6.95l-5.45-8.26"/><line class="cls-2" x1="39.8" y1="67.01" x2="38.08" y2="74.45"/><path class="cls-4" d="M60.31,48.33c.49,2.62,2.33,4.21,1.9,5S55,55.12,50.9,55.12"/><line class="cls-2" x1="39.83" y1="22.34" x2="39.83" y2="38.47"/><polyline class="cls-3" points="27.43 16.13 27.43 0 16.26 0 16.26 16.13"/><path class="cls-2" d="M26.86,2.67A39.61,39.61,0,0,1,46.78,5c3.73,1.53,7.59,4.05,9.53,7.72"/><path class="cls-2" d="M1.22,25.83A27.45,27.45,0,0,1,13.79,7.4q.9-.57,1.83-1.08"/><path class="cls-3" d="M33.63,34.13A11.78,11.78,0,0,1,21.84,45.91h0A11.78,11.78,0,0,1,10.05,34.13V26.68A11.79,11.79,0,0,1,21.84,14.89h0A11.79,11.79,0,0,1,33.63,26.68Z"/><path class="cls-5" d="M28.67,33.57c0,3.37-3.08,6.14-6.83,6.14h0c-3.75,0-6.82-2.77-6.82-6.14"/></g></g></svg>