<svg xmlns="http://www.w3.org/2000/svg" viewBox="0 0 84.24 84.22"><defs><style>.cls-1{fill:#005691;}.cls-2{fill:#00c2f5;}</style></defs><g id="Layer_2" data-name="Layer 2"><g id="Layer_1-2" data-name="Layer 1"><path class="cls-1" d="M5.84,49.51H78.4A5.84,5.84,0,0,0,79.57,38a36.64,36.64,0,0,0-7.28-20.56A37.45,37.45,0,0,0,54.87,4.57V4.19A4.2,4.2,0,0,0,50.68,0H33.56a4.2,4.2,0,0,0-4.19,4.19v.38a37.26,37.26,0,0,0-13.9,8.76A36.73,36.73,0,0,0,4.67,38,5.84,5.84,0,0,0,5.84,49.51m12-33.83A33.93,33.93,0,0,1,29.37,8.12v23a1.66,1.66,0,1,0,3.32,0V4.19a.87.87,0,0,1,.87-.87h6.86v30.2a1.66,1.66,0,1,0,3.32,0V3.32h6.94a.87.87,0,0,1,.87.87v26.9a1.66,1.66,0,1,0,3.32,0v-23A33.92,33.92,0,0,1,69.62,19.38a33.41,33.41,0,0,1,6.63,18.45H8a33.36,33.36,0,0,1,9.82-22.15m-12,25.47H78.4a2.52,2.52,0,0,1,0,5H5.84a2.52,2.52,0,0,1,0-5"/><path class="cls-2" d="M82.58,61.43H77.2a6.94,6.94,0,0,0-6.78-5.55H14a6.94,6.94,0,0,0-6.79,5.55H1.8A1.66,1.66,0,0,0,.14,63.09v11A1.67,1.67,0,0,0,1.8,75.77H7.19a10.13,10.13,0,0,0,10,8.45h9.33a13.63,13.63,0,0,0,9.1-3.49L41,75.88a1.79,1.79,0,0,1,2.41,0l5.4,4.85a13.63,13.63,0,0,0,9.1,3.49h9.33a10.13,10.13,0,0,0,10-8.45h5.38a1.66,1.66,0,0,0,1.66-1.67v-11a1.66,1.66,0,0,0-1.66-1.66M3.46,64.75H7.05v7.69H3.46Zm77.46,7.69H77.34V64.75h3.58Z"/></g></g></svg>