<svg xmlns="http://www.w3.org/2000/svg" viewBox="0 0 117.33 88.35"><defs><style>.cls-1,.cls-2{fill:none;stroke:#034861;stroke-miterlimit:10;}.cls-1{stroke-width:2.47px;}.cls-2{stroke-width:1.85px;}.cls-3{fill:#00c2f5;}.cls-4{fill:#005691;}</style></defs><g id="Layer_2" data-name="Layer 2"><g id="Layer_1-2" data-name="Layer 1"><path class="cls-1" d="M10.35,33.59l3.21-4.12a6,6,0,0,1,4.72-2.31H53.42a6,6,0,0,1,5.14,2.91l2.54,4.24"/><path class="cls-1" d="M9.07,34H62.84a5.79,5.79,0,0,1,3.84,1.45L68.56,37a6.41,6.41,0,0,1,2.19,4.82V61a5.35,5.35,0,0,1-.81,2.83L57.31,84.29a5.55,5.55,0,0,1-4.57,2.64l-33.31.18a5.55,5.55,0,0,1-5-2.84L2.24,63.14a5.38,5.38,0,0,1-.82-2.87V42.07A6.4,6.4,0,0,1,3,37.86L4.68,36A5.82,5.82,0,0,1,9.07,34Z"/><line class="cls-1" x1="13.92" y1="41.46" x2="28.22" y2="41.46"/><line class="cls-1" x1="43.94" y1="41.46" x2="58.24" y2="41.46"/><path class="cls-2" d="M71.11,50,84,40h15.9a3,3,0,0,0,2.14-.89l1.83-1.82a2.91,2.91,0,0,1,2.08-.87h4.2a2.4,2.4,0,0,1,1.72.72l3.58,3.57"/><path class="cls-2" d="M70.83,57.82,83.91,47.1a2.81,2.81,0,0,1,1.78-.64H99.21a2.91,2.91,0,0,1,2.05.85l2.56,2.56a3,3,0,0,0,2.13.88H110a2.7,2.7,0,0,0,1.9-.79l3.86-3.86"/><path class="cls-3" d="M15.51,66.47H55.94a.94.94,0,0,1,.82,1.39L51.15,78a2.7,2.7,0,0,1-2.36,1.39H22.66A2.7,2.7,0,0,1,20.3,78L14.69,67.86a.94.94,0,0,1,.82-1.39"/><path class="cls-3" d="M48.69,52.89H24.9a2.4,2.4,0,0,1-2.4-2.4v-1a1.63,1.63,0,0,1,1.63-1.63H49.46a1.63,1.63,0,0,1,1.63,1.63v1a2.39,2.39,0,0,1-2.4,2.4"/><path class="cls-3" d="M56.28,47.89H55.06a2.06,2.06,0,0,0-2,2.22,5.07,5.07,0,0,1,0,1.09,5.48,5.48,0,0,1-5.48,4.55H25.71a5.49,5.49,0,0,1-5.48-4.55,5.1,5.1,0,0,1,0-1.56,1.5,1.5,0,0,0-1.46-1.75H16.48c-2.73,0-5.7,2.46-5.23,5.15l.28,8.78a3,3,0,0,0,3,2.51H58.63a3,3,0,0,0,3-2.64L62,52.85c.34-2.63-3.07-5-5.72-5"/><line class="cls-2" x1="105.41" y1="36.45" x2="105.41" y2="50.75"/><line class="cls-2" x1="101.13" y1="39.31" x2="101.13" y2="47.17"/><line class="cls-2" x1="101.13" y1="76.48" x2="101.13" y2="84.34"/><path class="cls-2" d="M66.91,69.24,84,83.63h16.08a2.6,2.6,0,0,1,1.84.76l1.86,1.86a3.23,3.23,0,0,0,2.29,1h4a2.71,2.71,0,0,0,1.92-.79l3.49-3.5"/><path class="cls-2" d="M69.86,64.86,84.69,77.19H99.25a2.79,2.79,0,0,0,2-.81l2.65-2.65a2.78,2.78,0,0,1,2-.82H110a2.82,2.82,0,0,1,2,.82l3.82,3.82"/><line class="cls-2" x1="104.7" y1="87.2" x2="104.7" y2="72.9"/><line class="cls-1" x1="35.85" y1="27.23" x2="35.85" y2="18.58"/><line class="cls-1" x1="35.85" y1="12.22" x2="35.85"/><path class="cls-1" d="M116.76,13.88c-2.41,1.23-5.2,2.49-7.72,1.51s-4.05-3.84-6.66-3.94c-2.15-.07-3.8,1.78-5.66,2.87A8.72,8.72,0,0,1,89,14.8c-2-.89-3.85-2.61-6.09-2.64s-4.25,1.78-6.25,3-5.09,1.73-6.32-.27C69,12.76,66,11.89,63.49,12c-3.6.22-6.28,4.35-9.87,3.94-3-.34-4.91-3.74-7.9-4.12-2.22-.29-4.22,1.18-6.1,2.39S35.3,16.5,33.35,15.4c-1.64-.94-2.66-1.89-4.36-2.72a7.12,7.12,0,0,0-5.5-.55c-1.9.71-3.23,2.48-5.07,3.32a5.89,5.89,0,0,1-5-.14c-1.2-.62-2.15-1.65-3.31-2.34a7.05,7.05,0,0,0-9,2"/><path class="cls-4" d="M89.69,43.24a6.08,6.08,0,1,1-6.08-6.07,6.08,6.08,0,0,1,6.08,6.07"/><path class="cls-4" d="M89.69,79.7a6.08,6.08,0,1,1-6.08-6.08,6.08,6.08,0,0,1,6.08,6.08"/></g></g></svg>