<svg xmlns="http://www.w3.org/2000/svg" viewBox="0 0 97.01 97.11"><defs><style>.cls-1{fill:#005691;}.cls-2{fill:#00c2f5;}.cls-3{fill:#034861;}</style></defs><g id="Layer_2" data-name="Layer 2"><g id="Layer_1-2" data-name="Layer 1"><path class="cls-1" d="M81.65,67.09H57.25V56.54a10,10,0,0,1,10-10h4.47a10,10,0,0,1,10,10Z"/><path class="cls-1" d="M36,36.61a8.2,8.2,0,1,0-8.2,8.2,8.2,8.2,0,0,0,8.2-8.2"/><path class="cls-1" d="M40.23,67.09H15.83V56.54a10,10,0,0,1,10-10h4.47a10,10,0,0,1,10,10Z"/><path class="cls-2" d="M48.52,44.21A11.44,11.44,0,1,1,60,32.78,11.45,11.45,0,0,1,48.52,44.21"/><path class="cls-2" d="M58.49,32.71a10,10,0,1,0-10,10,10,10,0,0,0,10-10"/><path class="cls-2" d="M32.18,71.61V56.93A13.9,13.9,0,0,1,46.07,43H51.5A13.93,13.93,0,0,1,65.44,56.93V71.61Z"/><path class="cls-2" d="M63.61,69.76H34V56.93A12.11,12.11,0,0,1,46.07,44.82H51.5A12.11,12.11,0,0,1,63.61,56.93Z"/><path class="cls-1" d="M77.44,36.61a8.2,8.2,0,1,0-8.2,8.2,8.2,8.2,0,0,0,8.2-8.2"/><path class="cls-3" d="M47.28,97.11a49.74,49.74,0,0,1-28.53-9l2.4-3.41a45.83,45.83,0,0,0,59-5.71,45.27,45.27,0,0,0,3.48-59.12l3.31-2.52a49.1,49.1,0,0,1,8,15.66,49.65,49.65,0,0,1-43,63.89c-1.53.15-3.06.22-4.58.22"/><path class="cls-3" d="M10.29,80a48.91,48.91,0,0,1-8.1-15.69A49.72,49.72,0,0,1,62.59,1.69a49.17,49.17,0,0,1,16,7.56l-2.43,3.38A45.77,45.77,0,0,0,16.9,18.12a45.79,45.79,0,0,0-3.31,59.34Z"/><polygon class="cls-3" points="18.4 91.02 15.07 82.13 24.43 83.69 18.4 91.02"/><polygon class="cls-3" points="79.04 6.53 81.9 15.58 72.64 13.53 79.04 6.53"/></g></g></svg>