<svg xmlns="http://www.w3.org/2000/svg" viewBox="0 0 120.81 106.63"><defs><style>.cls-1{fill:#034861;}.cls-2{fill:#00c2f5;}.cls-3{fill:#005691;}</style></defs><g id="Layer_2" data-name="Layer 2"><g id="Layer_1-2" data-name="Layer 1"><path class="cls-1" d="M120.81,5a4.88,4.88,0,0,0-4.76-5H4.76A4.88,4.88,0,0,0,0,5V77.39a4.89,4.89,0,0,0,4.76,5H116.05a4.89,4.89,0,0,0,4.76-5V5Zm-4.76,72.72H4.76a.39.39,0,0,1-.41-.33V5a.38.38,0,0,1,.41-.33H116.05a.38.38,0,0,1,.41.33V77.39A.39.39,0,0,1,116.05,77.72Z"/><rect class="cls-1" x="53.79" y="78.44" width="13.24" height="20.02"/><path class="cls-1" d="M86.1,97.66a5.4,5.4,0,0,0-5.4-5.4H40.11a5.41,5.41,0,0,0-5.41,5.4v9H86.1Z"/><path class="cls-2" d="M61.79,58.19c14.47,0,26.75-12.52,31.07-17.51a3.25,3.25,0,0,0,0-4c-4.32-5-16.6-17.51-31.07-17.51S35,31.65,30.73,36.64a3.22,3.22,0,0,0,0,4c4.31,5,16.59,17.51,31.06,17.51m0-33.37A13.84,13.84,0,1,1,48,38.66,13.84,13.84,0,0,1,61.83,24.82"/><path class="cls-3" d="M61.83,47.28a8.62,8.62,0,1,0-8.62-8.62,8.63,8.63,0,0,0,8.62,8.62m2.61-13.84a2.61,2.61,0,1,1-2.62,2.61,2.61,2.61,0,0,1,2.62-2.61"/></g></g></svg>