<svg xmlns="http://www.w3.org/2000/svg" viewBox="0 0 122.77 111.74"><defs><style>.cls-1{fill:#034861;}.cls-2{fill:#00c2f5;}.cls-3{fill:#005691;}</style></defs><g id="Layer_2" data-name="Layer 2"><g id="Layer_1-2" data-name="Layer 1"><path class="cls-1" d="M75.37,85.12h38.7a4.82,4.82,0,0,0,4.81-4.81V53.6H75.37Zm21.43-24c2.54,0,4.62,2.42,4.61,5.37s-2.07,5.36-4.62,5.35A4.18,4.18,0,0,1,94,70.77l-.19-.18a5.76,5.76,0,0,1-1.62-4.08c0-3,2.08-5.35,4.63-5.35M86.39,78.72a11.79,11.79,0,0,1,7.26-7.34,4.54,4.54,0,0,0,6.76,0c.74.26,6.51,2.81,7.26,7.34.14.85-3.25,2.93-10.43,2.92h-.43c-7.17,0-10.69-2.1-10.42-2.92"/><path class="cls-2" d="M96.81,42.58h.43c7.18,0,10.57-2.07,10.43-2.92-.75-4.53-6.52-7.08-7.26-7.34a4.56,4.56,0,0,1-6.76,0,11.74,11.74,0,0,0-7.26,7.34c-.27.82,3.25,2.92,10.42,2.92"/><path class="cls-2" d="M94,31.71a4.23,4.23,0,0,0,2.81,1.11c2.55,0,4.62-2.4,4.62-5.35S99.34,22.1,96.8,22.1s-4.63,2.4-4.63,5.35a5.76,5.76,0,0,0,1.62,4.08l.19.18"/><path class="cls-1" d="M96.81,81.64h.43c7.18,0,10.57-2.07,10.43-2.92-.75-4.53-6.52-7.08-7.26-7.34a4.54,4.54,0,0,1-6.76,0,11.77,11.77,0,0,0-7.26,7.34c-.27.82,3.25,2.92,10.42,2.92"/><path class="cls-1" d="M94,70.77a4.18,4.18,0,0,0,2.81,1.11c2.55,0,4.62-2.39,4.62-5.35s-2.07-5.36-4.61-5.37-4.63,2.4-4.63,5.35a5.76,5.76,0,0,0,1.62,4.08l.19.18"/><polygon class="cls-1" points="51.22 94 47.27 103.91 73.81 103.91 69.39 94 51.22 94"/><path class="cls-1" d="M90,105.3H32.76a3.22,3.22,0,0,0,0,6.44H90a3.22,3.22,0,0,0,0-6.44"/><path class="cls-1" d="M118,12.49H87.5v3.92h26.57a4.83,4.83,0,0,1,4.81,4.82V50.48H75.37V31.35H72.24V85.12H8.71A4.82,4.82,0,0,1,3.9,80.31V21.23a4.83,4.83,0,0,1,4.81-4.82H33.19V12.49H4.81A4.83,4.83,0,0,0,0,17.3v70a4.82,4.82,0,0,0,4.81,4.81H118a4.82,4.82,0,0,0,4.81-4.81v-70A4.82,4.82,0,0,0,118,12.49m.92,67.82a4.82,4.82,0,0,1-4.81,4.81H75.37V53.6h43.51Z"/><path class="cls-2" d="M34.06,53.79a3.61,3.61,0,0,0,.35.33,7.73,7.73,0,0,0,5.13,2c4.66,0,8.44-4.38,8.44-9.78s-3.78-9.79-8.43-9.8S31.11,41,31.11,46.35a10.48,10.48,0,0,0,3,7.44"/><path class="cls-2" d="M22.81,37.75A21.36,21.36,0,0,1,33,30.27l-1-2.95A24.52,24.52,0,0,0,39.41,75H40A24.54,24.54,0,0,0,62.65,41.1,24.69,24.69,0,0,0,57.15,33L55,35.21A21.38,21.38,0,0,1,57.1,63.33c-3.58-4.95-9.93-7.73-11-8.09a8.3,8.3,0,0,1-12.34,0A22,22,0,0,0,23,63.52a21.38,21.38,0,0,1-.23-25.77"/><path class="cls-3" d="M38.49,26.26a6.16,6.16,0,0,0,3,1.54c2.74.06.34,5,.34,5s12.95-5.14,15.66-5.14l22,0a4,4,0,0,0,4-4V4a4,4,0,0,0-4-4l-38,0a4,4,0,0,0-4,4l0,19.72a4,4,0,0,0,.92,2.55M45.93,5.73H74.69V9H45.93Zm0,6.9H74.69v3.23H45.93Zm0,7.11h16V23h-16Z"/></g></g></svg>