<svg xmlns="http://www.w3.org/2000/svg" viewBox="0 0 80.14 79.98"><defs><style>.cls-1,.cls-4,.cls-5{fill:#fff;}.cls-1{stroke:#034861;stroke-width:4px;}.cls-1,.cls-3,.cls-5{stroke-miterlimit:10;}.cls-2,.cls-3{fill:none;stroke-width:3px;}.cls-2,.cls-3,.cls-5{stroke:#0082cb;}.cls-2,.cls-3,.cls-4,.cls-5{stroke-linecap:round;}.cls-2,.cls-4{stroke-linejoin:round;}.cls-4{stroke:#00b2e3;stroke-width:1.86px;}.cls-5{stroke-width:1.86px;}</style></defs><g id="Layer_2" data-name="Layer 2"><g id="Layer_1-2" data-name="Layer 1"><rect class="cls-1" x="2" y="2" width="54.71" height="75.71" rx="5.06"/><line class="cls-2" x1="8.22" y1="10.56" x2="28.19" y2="10.56"/><line class="cls-2" x1="8.22" y1="61.89" x2="28.19" y2="61.89"/><line class="cls-2" x1="8.22" y1="68.89" x2="28.19" y2="68.89"/><line class="cls-3" x1="8.22" y1="18.07" x2="48.67" y2="18.07"/><line class="cls-3" x1="8.22" y1="25.59" x2="48.67" y2="25.59"/><line class="cls-3" x1="8.22" y1="32.59" x2="48.67" y2="32.59"/><line class="cls-3" x1="8.22" y1="40.11" x2="48.67" y2="40.11"/><line class="cls-3" x1="8.22" y1="47.11" x2="48.67" y2="47.11"/><line class="cls-3" x1="8.22" y1="54.63" x2="44.78" y2="54.63"/><path class="cls-4" d="M59.46,34l.26-13L68,33.74s5.18,7,2.07,15l-2.85,9.59,4.15,7.35L56.52,69.35c.26-2.34-2.76-4.76-2.76-4.76-4.15-4.66-1-12.7-1-12.7,2.33-3.63,1.81-13.22,1.81-13.22,2.08-6,6.75-4.41,6.75-4.41l-1,11.41"/><polygon class="cls-5" points="52.46 69.95 52.72 79.02 78.65 78.25 79.17 63.73 52.46 69.95"/></g></g></svg>