<svg xmlns="http://www.w3.org/2000/svg" viewBox="0 0 92.7 29.3"><defs><style>.cls-1,.cls-2{fill:none;stroke-miterlimit:10;}.cls-1{stroke:#067dbe;stroke-width:0.75px;}.cls-2{stroke:#024861;stroke-width:0.69px;}</style></defs><g id="Layer_2" data-name="Layer 2"><g id="Layer_1-2" data-name="Layer 1"><path class="cls-1" d="M84.33,21.49,71.07,9.7H68.23V8.29L61.3,6.07H52.83L48.42.38h-1l1.5,5.69H47V8.29H45.25L42.71,9.7H16.41L10.48,2.05H9.08l2,7.65H6.48A19.74,19.74,0,0,0,4.82,12H3.23a7.6,7.6,0,0,0-.46.78H4.36c-.15.26-.28.53-.42.79H2.35c-.13.26-.25.52-.37.79h1.6c-.12.26-.23.53-.33.79H1.67c-.11.26-.21.52-.3.79H3c-.09.26-.17.53-.25.79H1.13c-.08.26-.15.53-.21.79H2.51c-.06.26-.12.53-.17.79H.75a7.27,7.27,0,0,0-.14.79H2.2c0,.26-.08.52-.11.79H.5c0,.26-.06.53-.07.79H2c0,.27,0,.54,0,.81H.38a14.35,14.35,0,0,0,2,7.43H85.83l6.08-7.43Zm-33.49-9.8h18L70.77,13H50.84Zm0,2.68h20.9l1.93,1.27H50.84Zm0,2.68h23.8l1.94,1.27H50.84ZM26,11.69H49.5V13H26Zm0,2.68H49.5v1.27H26Zm0,2.68H49.5v1.27H26Zm0,2.67H49.5V21H26Zm-17.1-8H24.65V13H7.85A13.74,13.74,0,0,1,8.89,11.69ZM7.4,14.37H24.65v1.27h-18A14.33,14.33,0,0,1,7.4,14.37Zm-1,2.68H24.65v1.27H6A9.58,9.58,0,0,1,6.4,17.05Zm-.6,2.67H24.65V21H5.6A7.81,7.81,0,0,1,5.8,19.72Zm45,1.27V19.72H77.55L79.48,21Z"/><circle class="cls-2" cx="75.05" cy="24.67" r="0.78"/><circle class="cls-2" cx="68.85" cy="24.67" r="0.78"/><circle class="cls-2" cx="62.64" cy="24.67" r="0.78"/><circle class="cls-2" cx="56.44" cy="24.67" r="0.78"/><circle class="cls-2" cx="50.23" cy="24.67" r="0.78"/><circle class="cls-2" cx="44.03" cy="24.67" r="0.78"/><circle class="cls-2" cx="37.83" cy="24.67" r="0.78"/><circle class="cls-2" cx="31.62" cy="24.67" r="0.78"/><circle class="cls-2" cx="25.42" cy="24.67" r="0.78"/><circle class="cls-2" cx="19.21" cy="24.67" r="0.78"/><circle class="cls-2" cx="13.01" cy="24.67" r="0.78"/><circle class="cls-2" cx="6.8" cy="24.67" r="0.78"/></g></g></svg>