<svg xmlns="http://www.w3.org/2000/svg" viewBox="0 0 50.14 50.14"><defs><style>.cls-1,.cls-2{fill:none;stroke-linecap:round;stroke-linejoin:round;stroke-width:2.44px;}.cls-1{stroke:#067dbe;}.cls-2{stroke:#024861;}</style></defs><g id="Layer_2" data-name="Layer 2"><g id="Layer_1-2" data-name="Layer 1"><path class="cls-1" d="M1.22,37.38l4-2.64A.77.77,0,0,1,6.25,35l6.86,11A.77.77,0,0,1,12.85,47l-3.17,1.9"/><path class="cls-1" d="M21.22,35.84h9.23a3.08,3.08,0,1,0,0-6.16H18a4.59,4.59,0,0,0-2.56.78L7,36.11"/><path class="cls-1" d="M31.49,35.66l13.17-4.95A3.08,3.08,0,0,1,47,36.39L33.43,42.15a7.56,7.56,0,0,1-3,.61h-12a4.69,4.69,0,0,0-2.54.76l-3.06,2"/><path class="cls-2" d="M18,26.61a16.16,16.16,0,1,1,25.95.77"/><path class="cls-2" d="M26.61,22a4.09,4.09,0,0,0,3.46,2.31h2.31a3.47,3.47,0,0,0,3.46-3.46h0a3.47,3.47,0,0,0-3.46-3.46H30.07a3.48,3.48,0,0,1-3.46-3.47h0a3.47,3.47,0,0,1,3.46-3.46h2.31a4.09,4.09,0,0,1,3.46,2.31"/><line class="cls-2" x1="31.22" y1="8.14" x2="31.22" y2="10.45"/><line class="cls-2" x1="31.22" y1="24.3" x2="31.22" y2="26.61"/></g></g></svg>