<svg xmlns="http://www.w3.org/2000/svg" viewBox="0 0 52.3 52.3"><defs><style>.cls-1{fill:#034861;}.cls-2,.cls-3{fill:#067dbe;}.cls-3{fill-rule:evenodd;}</style></defs><g id="Layer_2" data-name="Layer 2"><g id="Layer_1-2" data-name="Layer 1"><path class="cls-1" d="M13.13,23.06a12.52,12.52,0,1,0,16.11,16.1h5.2A17.49,17.49,0,1,1,13.13,17.85Z"/><path class="cls-2" d="M17.5,17.3A17.5,17.5,0,0,1,35,34.8V35H30V34.8A12.53,12.53,0,0,0,17.5,22.28h-.18v-5h.18"/><path class="cls-2" d="M17.5,0A34.81,34.81,0,0,1,52.3,34.8v.11h-5V34.8A29.82,29.82,0,0,0,17.5,5Z"/><path class="cls-2" d="M17.5,8.65A26.14,26.14,0,0,1,43.64,34.8v.11h-5V34.8A21.17,21.17,0,0,0,17.5,13.63Z"/><path class="cls-3" d="M9.11,28.48h7.75v2.61H11.61l-.28,1.76a6,6,0,0,1,1.07-.38,4.88,4.88,0,0,1,1.06-.13,3.94,3.94,0,0,1,2.79,1,6.25,6.25,0,0,1,10.81-3.07l-2.29,1.63A3.44,3.44,0,0,0,22.41,31a3.48,3.48,0,1,0,3.16,4.93H21.23V33.42h7.35a6,6,0,0,1,.09,1,6.26,6.26,0,0,1-11.58,3.3,4.9,4.9,0,0,1-.24.52,3.86,3.86,0,0,1-1.6,1.6,5.61,5.61,0,0,1-2.66.56,8.16,8.16,0,0,1-2-.22,4,4,0,0,1-1.41-.66,3.82,3.82,0,0,1-.94-1,5.55,5.55,0,0,1-.61-1.38L11,36.82A1.94,1.94,0,0,0,11.51,38a1.49,1.49,0,0,0,1.05.41,1.39,1.39,0,0,0,1.12-.52,2.28,2.28,0,0,0,.45-1.54,2.23,2.23,0,0,0-.45-1.54,1.57,1.57,0,0,0-1.19-.49,2,2,0,0,0-.92.23,2.82,2.82,0,0,0-.71.61l-2.79-.4Z"/></g></g></svg>