<svg xmlns="http://www.w3.org/2000/svg" viewBox="0 0 84.88 106.2"><defs><style>.cls-1{fill:#034861;}.cls-2{fill:#0e7dbd;}.cls-3{fill:#00c2f5;}</style></defs><g id="Layer_2" data-name="Layer 2"><g id="Layer_1-2" data-name="Layer 1"><path class="cls-1" d="M7.8,73.47a8.69,8.69,0,1,0,8.69-8.69A8.69,8.69,0,0,0,7.8,73.47Z"/><path class="cls-1" d="M23.94,84.45a13.26,13.26,0,0,1-14.9,0,13.73,13.73,0,0,0-7,12v1.78a3.51,3.51,0,0,0,3.51,3.51H24.16v-.82a18.2,18.2,0,0,1,4.54-12A13.91,13.91,0,0,0,23.94,84.45Z"/><path class="cls-1" d="M70,64.78a8.69,8.69,0,1,0,8.69,8.69A8.7,8.7,0,0,0,70,64.78Z"/><path class="cls-1" d="M77.41,84.45a13.28,13.28,0,0,1-14.91,0,13.69,13.69,0,0,0-4.74,4.4,18.21,18.21,0,0,1,4.54,12.06v.82H80.93a3.49,3.49,0,0,0,3.5-3.51V96.44A13.73,13.73,0,0,0,77.41,84.45Z"/><path class="cls-1" d="M34.53,77.93a8.69,8.69,0,1,0,8.69-8.69A8.69,8.69,0,0,0,34.53,77.93Z"/><path class="cls-1" d="M50.67,88.91a13.22,13.22,0,0,1-14.9,0,13.73,13.73,0,0,0-7,12v1.79a3.51,3.51,0,0,0,3.51,3.51H54.19a3.51,3.51,0,0,0,3.51-3.51V100.9A13.72,13.72,0,0,0,50.67,88.91Z"/><path class="cls-1" d="M67.2,38.7l2-5.13L64.66,29l-5.13,2L58,30.4l-2.21-5H49.35l-2.21,5L45.59,31l-5.14-2-4.54,4.54,2,5.13-.64,1.55-5.05,2.21v6.42l5.05,2.22.64,1.54-2,5.14,4.54,4.54,5.14-2,1.55.63,2.21,5h6.42L58,61l1.55-.63,5.13,2,4.54-4.54-2-5.14.64-1.54,5-2.22V42.46l-5-2.21Zm2.08,7.83-4.22,1.85-1.74,4.23L65,56.9l-1.21,1.21-4.29-1.68-4.23,1.74L53.41,62.4H51.7l-1.85-4.23-4.23-1.74-4.28,1.68L40.13,56.9l1.67-4.29-1.74-4.23-4.23-1.85V44.82L40.06,43l1.74-4.23-1.67-4.29,1.21-1.21,4.28,1.68,4.23-1.74L51.7,29h1.71l1.85,4.23,4.23,1.74,4.29-1.68L65,34.45l-1.67,4.29L65.06,43l4.22,1.85Z"/><path class="cls-2" d="M52.56,37.7a8,8,0,1,0,8,8A8,8,0,0,0,52.56,37.7Zm0,12.34a4.37,4.37,0,1,1,4.36-4.37A4.37,4.37,0,0,1,52.56,50Z"/><path class="cls-3" d="M81.73,26A14.6,14.6,0,0,0,76,21.68,23.37,23.37,0,0,0,52.53,0a23.73,23.73,0,0,0-18.2,8.61,19.42,19.42,0,0,0-23.7,12.55,14.76,14.76,0,0,0-7,4.52A15,15,0,0,0,0,35.46,14.8,14.8,0,0,0,14.79,50.25H29.84V44h-15a8.57,8.57,0,0,1-1.2-17l2.15-.3.48-2.12A13.09,13.09,0,0,1,29.07,14.16a13.51,13.51,0,0,1,5.19,1.07l2.37,1,1.44-2.13A17.49,17.49,0,0,1,52.53,6.28a17,17,0,0,1,17.2,17.21v3l2.45.55a8.2,8.2,0,0,1,6.42,8.33v.09a8.52,8.52,0,0,1-3.44,6.83v7.05a14.8,14.8,0,0,0,9.73-13.83A14.65,14.65,0,0,0,81.73,26Z"/></g></g></svg>