<svg xmlns="http://www.w3.org/2000/svg" viewBox="0 0 101.36 92.94"><defs><style>.cls-1{fill:#034861;}.cls-2{fill:#00c2f5;}.cls-3{fill:#005691;}</style></defs><g id="Layer_2" data-name="Layer 2"><g id="Layer_1-2" data-name="Layer 1"><polygon class="cls-1" points="66.68 73.98 0 73.98 0 0 92.58 0 92.58 38.52 88.6 38.52 88.6 3.98 3.98 3.98 3.98 70 66.68 70 66.68 73.98"/><path class="cls-1" d="M2,2v9.68h88.6V2ZM72.31,9.11H67.76V4.56h4.55V9.11Zm7.85,0H75.61V4.56h4.55V9.11Zm7.85,0H83.46V4.56H88Z"/><path class="cls-2" d="M98.63,37.09H68.29a2.72,2.72,0,0,0-2.73,2.72v50.4a2.73,2.73,0,0,0,2.73,2.73H98.63a2.73,2.73,0,0,0,2.73-2.73V39.81A2.72,2.72,0,0,0,98.63,37.09Zm.44,47.73a2.35,2.35,0,0,1-2.35,2.35H70.2a2.35,2.35,0,0,1-2.35-2.35V41.93a2.35,2.35,0,0,1,2.35-2.35H96.72a2.35,2.35,0,0,1,2.35,2.35Z"/><path class="cls-3" d="M63.58,39.81a4.71,4.71,0,0,1,4.71-4.71H78.53V20H14.59V62.57h49V39.81Zm-6.79,4.58L42,52.9a2.84,2.84,0,0,1-4.26-2.46v-17A2.84,2.84,0,0,1,42,31l14.75,8.51A2.84,2.84,0,0,1,56.79,44.39Z"/><path class="cls-2" d="M70.91,54.62V73.56H96.25V54.62Zm18.4,11.11L81.2,70.42a1.56,1.56,0,0,1-2.34-1.36V59.7a1.56,1.56,0,0,1,2.34-1.36L89.31,63A1.56,1.56,0,0,1,89.31,65.73Z"/></g></g></svg>