<svg xmlns="http://www.w3.org/2000/svg" viewBox="0 0 134.96 103.5"><defs><style>.cls-1{fill:#00c2f5;}.cls-2{fill:#fff;}.cls-3{fill:#067dbe;}.cls-4{fill:#034861;}</style></defs><g id="Layer_2" data-name="Layer 2"><g id="Layer_1-2" data-name="Layer 1"><path class="cls-1" d="M85.82,42.69A42.91,42.91,0,1,1,42.91,0,42.8,42.8,0,0,1,85.82,42.69ZM20.63,40.6a60.35,60.35,0,0,1,3-17l-14.33,0a38.21,38.21,0,0,0-5,17Zm20.19-17H28a55.81,55.81,0,0,0-3.23,17h16Zm0-19.39A45.92,45.92,0,0,0,29.75,19.4H40.82ZM12.05,19.4H25.19A53.41,53.41,0,0,1,34,5.22,38.4,38.4,0,0,0,12.05,19.4ZM81.58,40.6a38.07,38.07,0,0,0-5-17l-14.34,0a60,60,0,0,1,3,17ZM45,40.6H61a56.42,56.42,0,0,0-3.23-17H45Zm0-21.2H56.07A45.89,45.89,0,0,0,45,4.21ZM51.88,5.22A53.67,53.67,0,0,1,60.64,19.4H73.78A38.44,38.44,0,0,0,51.88,5.22ZM4.24,44.78a38.17,38.17,0,0,0,5,17H23.6a60.54,60.54,0,0,1-3-17Zm36.58,0h-16a55.75,55.75,0,0,0,3.23,17H40.82Zm0,21.21H29.75A45.88,45.88,0,0,0,40.82,81.17ZM34,80.17A53.73,53.73,0,0,1,25.19,66H12.05A38.5,38.5,0,0,0,34,80.17ZM65.2,44.78a60.19,60.19,0,0,1-3,17H76.56a38,38,0,0,0,5-17ZM45,61.78H57.79a56.36,56.36,0,0,0,3.23-17H45Zm0,19.39A45.85,45.85,0,0,0,56.07,66H45ZM73.78,66H60.64a54,54,0,0,1-8.76,14.18A38.53,38.53,0,0,0,73.78,66Z"/><path class="cls-2" d="M62,82.91l3.84-3.49s.34-26.51,25.47-32.1l18.14.35s7.33,3.14,9.07,6.28,5.58,23,5.58,23L80.82,96.17l-16.75-7Z"/><path class="cls-3" d="M132.74,81.69c-.1,1-.26,2.06-.46,3.09a2.6,2.6,0,0,1-1.21,1.73,29.62,29.62,0,0,1-3.61,1.87c-7.32,3.23-17.94,5.07-29.17,5.07s-21.85-1.84-29.17-5.07a29.62,29.62,0,0,1-3.61-1.87,2.64,2.64,0,0,1-1.21-1.73c-.2-1-.35-2.06-.46-3.09a2.83,2.83,0,0,0-2.21,3c0,3.32,3.21,6.35,8.56,8.7,6.72,3,16.81,10.12,28.1,10.12s21.38-7.15,28.11-10.12C131.74,91,135,88,135,84.68a2.84,2.84,0,0,0-2.22-3Z"/><path class="cls-4" d="M66.89,84.27a26.68,26.68,0,0,0,3.3,1.7c6.72,3,16.81,4.85,28.1,4.85S119.67,88.94,126.4,86a27.25,27.25,0,0,0,3.29-1.7c.19-1,.34-1.93.44-2.91a32.51,32.51,0,0,0,.16-3.29A31.11,31.11,0,0,0,130,74a32,32,0,0,0-14.3-22.72c0,.5-.09,1-.15,1.57a51.13,51.13,0,0,1-7.09,21.25,1.3,1.3,0,0,1-1.11.62,1.38,1.38,0,0,1-.7-.2,1.32,1.32,0,0,1-.42-1.82A48.36,48.36,0,0,0,113,52.58c.11-1,.19-1.95.24-2.84a32.07,32.07,0,0,0-7.72-2.87,7.18,7.18,0,0,0-14.36,0,32.07,32.07,0,0,0-7.72,2.87c0,.89.13,1.84.24,2.84a48.36,48.36,0,0,0,6.69,20.07,1.32,1.32,0,0,1-.42,1.82,1.34,1.34,0,0,1-.69.2,1.32,1.32,0,0,1-1.12-.62A51,51,0,0,1,81,52.8c-.06-.54-.11-1.07-.16-1.57A32,32,0,0,0,66.55,74a32.9,32.9,0,0,0-.26,4.12,32.49,32.49,0,0,0,.17,3.29,28.34,28.34,0,0,0,.43,2.91Z"/></g></g></svg>