<svg xmlns="http://www.w3.org/2000/svg" viewBox="0 0 122.16 107.82"><defs><style>.cls-1{fill:#034861;}.cls-2{fill:#00c2f5;}.cls-3{fill:none;stroke:#0e7dbd;stroke-linecap:round;stroke-miterlimit:10;stroke-width:5px;}</style></defs><g id="Layer_2" data-name="Layer 2"><g id="Layer_1-2" data-name="Layer 1"><path class="cls-1" d="M122.16,5.05a5,5,0,0,0-4.82-5H4.81A4.94,4.94,0,0,0,0,5.05v73.2a4.94,4.94,0,0,0,4.81,5H117.34a4.94,4.94,0,0,0,4.82-5V5.05Zm-4.82,73.53H4.81a.39.39,0,0,1-.42-.33V5.05a.4.4,0,0,1,.42-.33H117.34a.39.39,0,0,1,.42.33v73.2A.39.39,0,0,1,117.34,78.58Z"/><path class="cls-2" d="M72.79,16.6c-.43-1.45-4-3.75-5.11-4.44l-.1-.07L67.36,12a18.08,18.08,0,0,0-6.78-1.71h-.11A18,18,0,0,0,53.7,12l-.23.13-.1.07c-1.11.69-4.68,3-5.1,4.44-.5,1.72-1.15,10.26-.72,10.83s.46,3.67,1.7,4.17l.52.21a3.26,3.26,0,0,1-.33,1.91S51.21,36,51.5,36a6.54,6.54,0,0,1,2.39,1.1c.48.47,1.48,1.33,1.48,1.33l2.87.58,1.53.24h1.52L62.82,39l2.86-.58s1-.86,1.49-1.33A6.47,6.47,0,0,1,69.56,36a14.93,14.93,0,0,0,2-2.25,3.26,3.26,0,0,1-.33-1.91l.53-.21c1.24-.5,1.26-3.59,1.69-4.17S73.29,18.32,72.79,16.6ZM57.23,31.23a6.91,6.91,0,0,1-3.34.29c-1.68-.24-1.44-1.72-1.77-1.91S52,28,51.88,27.22s1.19-1.44,1.34-1.72,2.87-.63,4-.39,1.39,2.11,1.39,2.11L59,28.31v1.87l-.67.34A8.21,8.21,0,0,1,57.23,31.23Zm5.3,4.26s-.81,1.19-1.82,1-1.72-.24-1.77-.48-.71-.38-.62-.91.19-2.24.19-2.24l.67-1,.43-.35L61,31.38l1,1.1.67,1.19Zm6.65-8.27c-.1.76.09,2.2-.24,2.39s-.1,1.67-1.77,1.91a6.94,6.94,0,0,1-3.35-.29,9,9,0,0,1-1.1-.71l-.67-.34V28.31l.38-1.09s.24-1.87,1.39-2.11,3.87.1,4,.39S69.27,26.45,69.18,27.22Z"/><path class="cls-2" d="M68.55,34.54v1s-1.43.26-1.57.55a35.18,35.18,0,0,0-.22,3.75s-.52,1.84-.62,2.34-3.42,1.51-3.42,1.51H58.33s-3.32-1-3.42-1.51-.62-2.34-.62-2.34-.07-3.47-.21-3.75-1.58-.55-1.58-.55v-1c-.5-1.07-.93,0-.93,0v2.58l.3,4.51a9.2,9.2,0,0,1,1.06,2.08c0,.43,1.15.5,1.29,1.43s1.87,1.22,2,1.58,1.22.58,2.1.93a6.18,6.18,0,0,0,2.2.29,6.13,6.13,0,0,0,2.19-.29c.89-.35,2-.57,2.1-.93s1.87-.64,2-1.58,1.29-1,1.29-1.43a9.2,9.2,0,0,1,1.06-2.08l.31-4.51V34.54S69.06,33.47,68.55,34.54Z"/><path class="cls-2" d="M60.28,41.31a14.89,14.89,0,0,0-1.53,0s-.21-.3-.13-.4-.06-2.1.62-2.33.69,0,.69,0a2.6,2.6,0,0,1,.62,2.73Z"/><path class="cls-2" d="M57.18,39.55s.1-1,.34-1a.47.47,0,0,1,.45.1,5.12,5.12,0,0,1,.23.7,2.83,2.83,0,0,0,.42.53c.1,0,0,1,0,1s-.22.3-.36.3h-.94a.73.73,0,0,1-.16-.56C57.2,40.25,57.18,39.55,57.18,39.55Z"/><path class="cls-2" d="M56,40.62a9.69,9.69,0,0,1-.11-2c.13-.21.18-.31.29-.26s.44.28.48.43a5.37,5.37,0,0,0,.34.71s.34.33.27.43,0,.68-.2.72c0,0-.07.27-.18.27a.44.44,0,0,0-.23.1.48.48,0,0,1-.22.11C56.34,41.1,56.15,41.07,56,40.62Z"/><path class="cls-2" d="M55,40.32A8.89,8.89,0,0,1,55,38.7c.09-.17.13-.25.21-.21s.31.22.33.34a6.1,6.1,0,0,0,.25.57s.24.26.19.34,0,.54-.14.58,0,.21-.13.21a.32.32,0,0,0-.17.08s-.09.09-.15.09S55.14,40.67,55,40.32Z"/><path class="cls-2" d="M54.45,40a7.74,7.74,0,0,1-.07-1.34c.08-.14.11-.21.18-.17s.26.18.28.28l.1.47s.15.22.11.28.11.45,0,.48,0,.17-.06.17a.29.29,0,0,0-.14.07s-.08.08-.13.08S54.55,40.29,54.45,40Z"/><path class="cls-2" d="M60.55,41.58a11.64,11.64,0,0,1,0,1.45c0,.12-.25.8-.49.8a.35.35,0,0,1-.31-.13l-.32-.6s-.19-1.37,0-1.52S60.37,41.31,60.55,41.58Z"/><path class="cls-2" d="M59.25,41.46a5.06,5.06,0,0,1-.09,2s-.11.34-.33.38a.68.68,0,0,1-.45-.13,3.08,3.08,0,0,1-.26-.61c0-.11-.18-1.52,0-1.62A2.27,2.27,0,0,1,59.25,41.46Z"/><path class="cls-2" d="M56.68,43.32s-.33-1.6,0-1.8.27-.58.42-.58a2.34,2.34,0,0,1,.76.37,1.82,1.82,0,0,1-.16,1.55s-.31.44-.45.46S56.74,43.62,56.68,43.32Z"/><path class="cls-2" d="M55.55,42.94s-.26-1.6,0-1.8.22-.58.33-.58a1.83,1.83,0,0,1,.62.37,2.3,2.3,0,0,1-.13,1.54s-.25.45-.37.47S55.59,43.24,55.55,42.94Z"/><path class="cls-2" d="M54.59,42.38s.09-1.3.3-1.43.25-.43.33-.42a1,1,0,0,1,.35.37,2.07,2.07,0,0,1-.34,1.21s-.25.33-.33.33S54.57,42.63,54.59,42.38Z"/><path class="cls-2" d="M53.66,42.17s.07-1.45.37-1.58.33-.47.44-.45a1.69,1.69,0,0,1,.53.45,1.9,1.9,0,0,1-.44,1.33s-.34.34-.46.34S53.64,42.45,53.66,42.17Z"/><path class="cls-2" d="M61,41.31a14.69,14.69,0,0,1,1.52,0s.22-.3.14-.4,0-2.1-.63-2.33-.68,0-.68,0a2.62,2.62,0,0,0-.63,2.73Z"/><path class="cls-2" d="M64.13,39.55s-.1-1-.33-1a.46.46,0,0,0-.45.1,5.33,5.33,0,0,0-.24.7,2.83,2.83,0,0,1-.42.53c-.1,0,0,1,0,1s.23.3.36.3H64a.75.75,0,0,0,.15-.56C64.11,40.25,64.13,39.55,64.13,39.55Z"/><path class="cls-2" d="M65.32,40.62a9.69,9.69,0,0,0,.11-2c-.12-.21-.18-.31-.29-.26s-.43.28-.47.43a6.72,6.72,0,0,1-.35.71s-.34.33-.27.43,0,.68.2.72c0,0,.07.27.18.27a.5.5,0,0,1,.24.1.48.48,0,0,0,.22.11C65,41.1,65.16,41.07,65.32,40.62Z"/><path class="cls-2" d="M66.29,40.32a9,9,0,0,0,.07-1.62c-.09-.17-.12-.25-.2-.21s-.31.22-.34.34a4.44,4.44,0,0,1-.24.57s-.25.26-.2.34,0,.54.14.58.06.21.13.21a.32.32,0,0,1,.17.08s.09.09.16.09S66.17,40.67,66.29,40.32Z"/><path class="cls-2" d="M66.87,40a6.93,6.93,0,0,0,.06-1.34c-.07-.14-.11-.21-.17-.17a.71.71,0,0,0-.29.28l-.09.47s-.15.22-.11.28-.11.45,0,.48,0,.17,0,.17a.24.24,0,0,1,.14.07s.08.08.14.08S66.77,40.29,66.87,40Z"/><path class="cls-2" d="M60.76,41.58a14,14,0,0,0,0,1.45c.06.12.26.8.49.8a.33.33,0,0,0,.31-.13l.33-.6s.18-1.37,0-1.52S60.94,41.31,60.76,41.58Z"/><path class="cls-2" d="M62.07,41.46a5.06,5.06,0,0,0,.09,2s.11.34.33.38a.71.71,0,0,0,.45-.13,3.14,3.14,0,0,0,.25-.61c0-.11.18-1.52,0-1.62A2.23,2.23,0,0,0,62.07,41.46Z"/><path class="cls-2" d="M64.63,43.32s.33-1.6,0-1.8-.27-.58-.41-.58a2.4,2.4,0,0,0-.77.37,1.88,1.88,0,0,0,.17,1.55s.3.44.45.46S64.58,43.62,64.63,43.32Z"/><path class="cls-2" d="M65.77,42.94s.26-1.6,0-1.8-.22-.58-.34-.58a1.69,1.69,0,0,0-.61.37A2.17,2.17,0,0,0,65,42.47s.24.45.36.47S65.72,43.24,65.77,42.94Z"/><path class="cls-2" d="M66.73,42.38s-.09-1.3-.3-1.43-.25-.43-.33-.42-.34.31-.36.37a2.13,2.13,0,0,0,.35,1.21s.24.33.33.33S66.75,42.63,66.73,42.38Z"/><path class="cls-2" d="M67.65,42.17s-.06-1.45-.36-1.58-.33-.47-.45-.45a1.65,1.65,0,0,0-.52.45,1.84,1.84,0,0,0,.44,1.33s.33.34.45.34S67.67,42.45,67.65,42.17Z"/><path class="cls-2" d="M73.5,57.23,49.65,48.12c0-1.63-1.57-3.45-3.9-4.34-2.69-1-5.38-.41-6,1.38a3.16,3.16,0,0,0,.73,3,2.91,2.91,0,0,0-2.35,1.78c-.61,1.79,1.08,4.07,3.78,5.1,2.33.89,4.64.56,5.62-.7l23.85,9.1c0,1.64,1.57,3.46,3.9,4.35,2.7,1,5.38.41,6-1.38a3.17,3.17,0,0,0-.74-3,2.91,2.91,0,0,0,2.35-1.78c.61-1.79-1.08-4.08-3.77-5.11C76.8,55.63,74.49,56,73.5,57.23Z"/><path class="cls-2" d="M47.55,57.23,71.4,48.12c0-1.63,1.58-3.45,3.9-4.34,2.7-1,5.38-.41,6,1.38a3.17,3.17,0,0,1-.74,3,2.89,2.89,0,0,1,2.35,1.78c.61,1.79-1.08,4.07-3.77,5.1-2.33.89-4.64.56-5.63-.7l-23.85,9.1c0,1.64-1.57,3.46-3.9,4.35-2.69,1-5.37.41-6-1.38a3.16,3.16,0,0,1,.73-3,2.93,2.93,0,0,1-2.35-1.78c-.61-1.79,1.08-4.08,3.78-5.11C44.26,55.63,46.57,56,47.55,57.23Z"/><rect class="cls-1" x="54.38" y="79.31" width="13.39" height="20.24"/><path class="cls-1" d="M87.06,98.75a5.46,5.46,0,0,0-5.46-5.47h-41a5.47,5.47,0,0,0-5.47,5.47v9.07h52Z"/><line class="cls-3" x1="6.22" y1="6.86" x2="115.55" y2="77.11"/></g></g></svg>