<svg xmlns="http://www.w3.org/2000/svg" viewBox="0 0 112.14 76.76"><defs><style>.cls-1{fill:#034861;}.cls-2{fill:#00c2f5;}.cls-3{fill:#067dbe;}</style></defs><g id="Layer_2" data-name="Layer 2"><g id="Layer_1-2" data-name="Layer 1"><path class="cls-1" d="M5.61,76.76H32.45a5.62,5.62,0,0,0,3.83-1.51l14-13.1a5.62,5.62,0,0,1,3.83-1.51H58a5.62,5.62,0,0,1,3.83,1.51l14,13.1a5.62,5.62,0,0,0,3.83,1.51h26.84a5.61,5.61,0,0,0,5.61-5.6V61.67a6.48,6.48,0,0,1-1.83.26h-23a6.46,6.46,0,0,1-6.46-6.46V46.15a6.53,6.53,0,0,1,.26-1.83H6a6,6,0,0,0-6,6V71.16a5.61,5.61,0,0,0,5.61,5.6Z"/><path class="cls-2" d="M92.66,48.14A2.68,2.68,0,1,1,90,50.81a2.67,2.67,0,0,1,2.67-2.67Zm12.26,0a2.68,2.68,0,1,1-2.67,2.67,2.67,2.67,0,0,1,2.67-2.67Zm-19.47-2v9.32a1.83,1.83,0,0,0,1.83,1.83h23a1.83,1.83,0,0,0,1.83-1.83V46.15a1.83,1.83,0,0,0-1.83-1.83h-23a1.83,1.83,0,0,0-1.83,1.83Z"/><path class="cls-3" d="M65.13,11.88l3.31,2.67a1.67,1.67,0,0,0,2.12,0l2.59-2.15a1.5,1.5,0,0,1,2.12.56L89.48,39.69h18.88L77.56,1.28a3.42,3.42,0,0,0-5.19-.17L64.93,9.46a1.68,1.68,0,0,0,.2,2.42Z"/><path class="cls-3" d="M22.66,39.69,36.87,12.94A1.5,1.5,0,0,1,39,12.38l2.59,2.15a1.67,1.67,0,0,0,2.12,0L47,11.88a1.67,1.67,0,0,0,.2-2.42L39.77,1.11a3.42,3.42,0,0,0-5.19.17L3.56,40A10.86,10.86,0,0,1,6,39.69Z"/></g></g></svg>