<svg xmlns="http://www.w3.org/2000/svg" viewBox="0 0 122.16 107.82"><defs><style>.cls-1{fill:#034861;}.cls-2{fill:#00c2f5;}.cls-3{fill:#0e7dbd;}</style></defs><g id="Layer_2" data-name="Layer 2"><g id="Layer_1-2" data-name="Layer 1"><path class="cls-1" d="M122.16,5.05a5,5,0,0,0-4.82-5H4.81A4.94,4.94,0,0,0,0,5.05v73.2a4.94,4.94,0,0,0,4.81,5H117.34a4.94,4.94,0,0,0,4.82-5V5.05Zm-4.82,73.53H4.81a.39.39,0,0,1-.42-.33V5.05a.4.4,0,0,1,.42-.33H117.34a.39.39,0,0,1,.42.33v73.2A.39.39,0,0,1,117.34,78.58Z"/><rect class="cls-1" x="54.38" y="79.31" width="13.39" height="20.24"/><path class="cls-1" d="M87.06,98.75a5.46,5.46,0,0,0-5.46-5.47h-41a5.47,5.47,0,0,0-5.47,5.47v9.07h52Z"/><path class="cls-2" d="M86.06,35.11,80,34.54a22.92,22.92,0,0,0-3.23-7.79l3.9-4.7a1,1,0,0,0-.06-1.37L76,16.09A1,1,0,0,0,74.63,16l-4.7,3.9a22.73,22.73,0,0,0-7.79-3.23l-.57-6.08a1,1,0,0,0-1-.92h-6.5a1,1,0,0,0-1,.92l-.57,6.07a22.94,22.94,0,0,0-7.79,3.24L40,16a1,1,0,0,0-1.37.06L34,20.68A1,1,0,0,0,34,22.05l3.89,4.7a23.13,23.13,0,0,0-3.23,7.79l-6.07.57a1,1,0,0,0-.92,1v6.49a1,1,0,0,0,.92,1l6.08.57A22.92,22.92,0,0,0,37.87,52L34,56.69A1,1,0,0,0,34,58.06l4.59,4.59a1,1,0,0,0,1.37.06l4.71-3.9a23,23,0,0,0,7.78,3.24l.57,6.07a1,1,0,0,0,1,.92h6.5a1,1,0,0,0,1-.92L62.14,62a22.18,22.18,0,0,0,5.22-1.78l-6.3-6.53a14.83,14.83,0,0,1-9.42-.65h0a14.88,14.88,0,0,1-8-8v0a14.79,14.79,0,0,1,0-11.34v0a14.93,14.93,0,0,1,8-8h0a14.79,14.79,0,0,1,11.34,0h0a14.88,14.88,0,0,1,8,8v0a14.83,14.83,0,0,1,.65,9.42l6.54,6.3A23.13,23.13,0,0,0,80,44.2l6.07-.57a1,1,0,0,0,.92-1V36.12A1,1,0,0,0,86.06,35.11Z"/><path class="cls-3" d="M83.91,60.06,66.77,43.55a10.19,10.19,0,0,0,.76-2.69,9.92,9.92,0,0,0,0-3,10.19,10.19,0,0,0-2-4.69,12,12,0,0,0-.94-1.09,10.4,10.4,0,0,0-1.15-1,9.82,9.82,0,0,0-4.69-2,10.4,10.4,0,0,0-2.94,0,9.13,9.13,0,0,0-1.9.48.71.71,0,0,0-.25,1.25L59,36.15a1.15,1.15,0,0,1,0,1.63L55.72,41a1.18,1.18,0,0,1-.81.34A1.14,1.14,0,0,1,54.1,41l-5.25-5.25a.84.84,0,0,0-.59-.28.76.76,0,0,0-.67.53,9.13,9.13,0,0,0-.48,1.9,10.92,10.92,0,0,0,0,2.94,9.92,9.92,0,0,0,2,4.69,12.83,12.83,0,0,0,1,1.15,11.91,11.91,0,0,0,1.09.93,10.25,10.25,0,0,0,4.7,2,9.64,9.64,0,0,0,3,0,10.21,10.21,0,0,0,2.69-.77L78,66a4.18,4.18,0,0,0,5.91-5.91Z"/></g></g></svg>