<svg xmlns="http://www.w3.org/2000/svg" viewBox="0 0 127.53 107.82"><defs><style>.cls-1{fill:#067dbe;}.cls-2{fill:#00c2f5;}.cls-3{fill:#034861;}.cls-4,.cls-5,.cls-6{fill:none;stroke-miterlimit:10;}.cls-4,.cls-5{stroke:#034861;}.cls-4{stroke-width:2.93px;}.cls-5,.cls-6{stroke-width:3.75px;}.cls-6{stroke:#19313e;}</style></defs><g id="Layer_2" data-name="Layer 2"><g id="Layer_1-2" data-name="Layer 1"><ellipse class="cls-1" cx="40.06" cy="24.02" rx="4.76" ry="4.54"/><ellipse class="cls-1" cx="23.31" cy="51.23" rx="4.76" ry="4.54"/><ellipse class="cls-1" cx="57.11" cy="44.95" rx="4.76" ry="4.54"/><ellipse class="cls-2" cx="88.91" cy="43.56" rx="17.22" ry="16.4"/><path class="cls-3" d="M39.77,67.7H28.4a2.16,2.16,0,0,0,0,4.31H39.77a2.16,2.16,0,0,0,0-4.31Z"/><path class="cls-3" d="M68.91,67.7H48.78a2.16,2.16,0,1,0,0,4.31H68.91a2.16,2.16,0,0,0,0-4.31Z"/><circle class="cls-4" cx="23.26" cy="51.23" r="5.58"/><circle class="cls-4" cx="39.84" cy="23.5" r="5.58"/><circle class="cls-4" cx="57.11" cy="44.95" r="5.58"/><line class="cls-5" x1="25.69" y1="46.38" x2="36.87" y2="28.55"/><line class="cls-6" x1="53.97" y1="41.81" x2="43.5" y2="28.21"/><line class="cls-5" x1="85.87" y1="38.69" x2="61.99" y2="43.56"/><path class="cls-3" d="M122.16,5.05a5,5,0,0,0-4.82-5H4.81A4.94,4.94,0,0,0,0,5.05v73.2a4.94,4.94,0,0,0,4.81,5H117.34a4.94,4.94,0,0,0,4.82-5V5.05Zm-4.82,73.53H4.81a.39.39,0,0,1-.42-.33V5.05a.4.4,0,0,1,.42-.33H117.34a.39.39,0,0,1,.42.33v73.2A.39.39,0,0,1,117.34,78.58Z"/><rect class="cls-3" x="54.38" y="79.31" width="13.39" height="20.24"/><path class="cls-3" d="M87.06,98.75a5.46,5.46,0,0,0-5.46-5.47h-41a5.47,5.47,0,0,0-5.47,5.47v9.07h52Z"/><path class="cls-3" d="M126.21,81.4,124,78.8,114.91,86l2,2.75a5.49,5.49,0,0,0,7.84,1h0l.68-.54h0a5.49,5.49,0,0,0,.75-7.87Z"/><path class="cls-3" d="M98.75,56.48A16.33,16.33,0,0,1,72.33,41.92l1.09-4.35A16.34,16.34,0,1,1,98.75,56.48Zm15,10.43a55,55,0,0,1-6.54-9.49,2.65,2.65,0,0,0-.28-2.86,2.61,2.61,0,0,0-.74-.63A20.39,20.39,0,1,0,68.85,38.49a20,20,0,0,0-.65,4.27A20.38,20.38,0,0,0,94.61,63.18a2.45,2.45,0,0,0,.45.86,2.62,2.62,0,0,0,2.06,1,3.07,3.07,0,0,0,.67-.08,54.12,54.12,0,0,1,7.79,8.49L115.9,87l8.84-7-11-13Z"/><circle class="cls-4" cx="90.25" cy="39.02" r="5.58"/></g></g></svg>