<svg xmlns="http://www.w3.org/2000/svg" viewBox="0 0 106.29 94.5"><defs><style>.cls-1{fill:#005691;}.cls-1,.cls-2{fill-rule:evenodd;}.cls-2{fill:#00c2f5;}</style></defs><g id="Layer_2" data-name="Layer 2"><g id="Layer_1-2" data-name="Layer 1"><path class="cls-1" d="M12.52,88H3.28A3.29,3.29,0,0,0,0,91.23H0A3.29,3.29,0,0,0,3.28,94.5H103a3.29,3.29,0,0,0,3.29-3.27h0A3.29,3.29,0,0,0,103,88H12.52Zm35.69,2.23h9.86a1.07,1.07,0,0,1,1.08,1.06h0a1.08,1.08,0,0,1-1.08,1.07H48.21a1.07,1.07,0,0,1-1.07-1.07h0a1.06,1.06,0,0,1,1.07-1.06ZM93.77,25.71H67.6a18,18,0,0,1-1.63.88.74.74,0,0,0-.22,1.16,9.5,9.5,0,0,1,2.71,3.78H89.89a1.56,1.56,0,0,1,1.55,1.55v45.5a1.56,1.56,0,0,1-1.55,1.55H16.39a1.56,1.56,0,0,1-1.54-1.55V33.08a1.56,1.56,0,0,1,1.54-1.55h9.92a10.29,10.29,0,0,1,2.2-3.06.8.8,0,0,0-.32-1.38,11.5,11.5,0,0,1-2.42-1.38H12.52a4,4,0,0,0-4,3.94V82a4,4,0,0,0,4,3.94H93.77a4,4,0,0,0,4-3.94V29.65a4,4,0,0,0-4-3.94Z"/><path class="cls-2" d="M46,43.31c-2.45.14-3.94,1.62-5.56,2.78a11.52,11.52,0,0,0-2.17-.34c-1.17-1.61-2.13-3.48-4.41-4.38a4.44,4.44,0,0,0-3.64,1.38C29.08,45,29.62,47,29.82,49a9.62,9.62,0,0,0-.68.74c-.25.31-.49.63-.7.95-2,.21-4.09.1-6,1.62a4.39,4.39,0,0,0-.62,3.83c1.35,2,3.38,2.59,5.2,3.41a11.88,11.88,0,0,0,.79,2.05c-.82,1.82-2,3.58-1.6,6a4.38,4.38,0,0,0,3,2.44c2.45-.14,3.94-1.62,5.55-2.79a11.65,11.65,0,0,0,2.18.35c1.17,1.61,2.12,3.48,4.41,4.38A4.43,4.43,0,0,0,45,70.56c1.1-2.2.55-4.22.35-6.21.24-.23.47-.49.69-.74s.48-.63.7-1c2-.21,4.08-.1,6-1.62.69-.55,1.11-3.1.61-3.83C52,55.16,50,54.62,48.15,53.8a10.22,10.22,0,0,0-.79-2c.82-1.82,2-3.58,1.61-6a4.4,4.4,0,0,0-3-2.44Zm3.79-28.07a7.3,7.3,0,1,0,3.61,9.66,7.31,7.31,0,0,0-3.61-9.66Zm18.33,32a5.89,5.89,0,1,0,6.47,5.25,5.89,5.89,0,0,0-6.47-5.25ZM38.46,51.4a5.33,5.33,0,1,0,4.39,6.14,5.33,5.33,0,0,0-4.39-6.14ZM53.24,6.77A15.53,15.53,0,0,0,50.92,6c-.53-1.9-.8-3.94-2.61-5.55a4.43,4.43,0,0,0-3.89.06c-1.76,1.66-2,3.72-2.44,5.63A16.61,16.61,0,0,0,39.69,7c-1.63-1.11-3.16-2.5-5.58-2.57A4.4,4.4,0,0,0,31.17,7c-.27,2.4.89,4.1,1.76,5.87A15.43,15.43,0,0,0,31.73,15c-2,.19-4,.11-5.93,1.6a4.42,4.42,0,0,0-.61,3.83c1.34,2,3.33,2.58,5.13,3.37a15.1,15.1,0,0,0,.47,2.41c-1.38,1.41-3,2.67-3.51,5a4.41,4.41,0,0,0,2,3.32c2.32.69,4.2-.15,6.1-.7a17,17,0,0,0,1.91,1.55c-.15,2-.59,4,.55,6.09a4.42,4.42,0,0,0,3.68,1.28c2.22-1,3.12-2.82,4.22-4.45a16.84,16.84,0,0,0,2.46-.05c1.15,1.6,2.1,3.43,4.35,4.32a4.41,4.41,0,0,0,3.64-1.39c1.08-2.16.57-4.15.36-6.11a14.91,14.91,0,0,0,1.86-1.61c1.91.49,3.82,1.27,6.12.52a4.42,4.42,0,0,0,1.88-3.39c-.56-2.35-2.23-3.56-3.65-4.92a17.06,17.06,0,0,0,.39-2.43c1.77-.85,3.74-1.47,5-3.52a4.36,4.36,0,0,0-.74-3.81c-1.94-1.44-4-1.3-6-1.43a18,18,0,0,0-1.26-2.1c.81-1.8,1.91-3.53,1.57-5.92a4.42,4.42,0,0,0-3-2.45c-2.42.14-3.9,1.58-5.5,2.75ZM74,36.29c-2.34.79-3.39,2.62-4.66,4.17a12.5,12.5,0,0,0-2.21.08c-1.33-1.48-2.48-3.21-4.83-3.85a4.42,4.42,0,0,0-3.46,1.77c-.85,2.32-.08,4.28.34,6.24a12.72,12.72,0,0,0-1.32,1.77c-2,.12-4.05-.07-6,1.36a4.45,4.45,0,0,0-.77,3.8c1.28,2.11,3.29,2.74,5.09,3.63a11.92,11.92,0,0,0,.56,2.13C55.54,59,54.1,60.51,54,62.94a4.39,4.39,0,0,0,2.49,3c2.45.33,4.2-.85,6-1.69a12.19,12.19,0,0,0,2,.9c.55,1.9.82,4,2.65,5.58a4.43,4.43,0,0,0,3.89-.08c1.78-1.7,2-3.8,2.45-5.75a13.91,13.91,0,0,0,2-1c1.83.76,3.61,1.84,6,1.42a4.38,4.38,0,0,0,2.37-3.07c-.21-2.46-1.74-3.91-3-5.5a14.09,14.09,0,0,0,.36-1.59c0-.19.05-.38.07-.57,1.75-1,3.7-1.66,4.88-3.79A4.39,4.39,0,0,0,85.27,47c-2-1.37-4.14-1.08-6.16-1.13a12.3,12.3,0,0,0-1.55-1.83c.32-2,1-3.93,0-6.17A4.5,4.5,0,0,0,74,36.29Z"/></g></g></svg>