<svg xmlns="http://www.w3.org/2000/svg" viewBox="0 0 87.49 97.39"><defs><style>.cls-1{fill:#00c2f5;}.cls-2{fill:#005691;}.cls-3{fill:#024861;}</style></defs><g id="Layer_2" data-name="Layer 2"><g id="Layer_1-2" data-name="Layer 1"><path class="cls-1" d="M74.66,28.15l-6.73-.63a25.71,25.71,0,0,0-3.58-8.63l4.32-5.2a1.16,1.16,0,0,0-.07-1.52L63.51,7.09A1.14,1.14,0,0,0,62,7l-5.21,4.32a25.62,25.62,0,0,0-8.63-3.58L47.53,1a1.15,1.15,0,0,0-1.12-1H39.22a1.16,1.16,0,0,0-1.13,1l-.63,6.73a25.57,25.57,0,0,0-8.62,3.58L23.63,7a1.15,1.15,0,0,0-1.52.07L17,12.17A1.16,1.16,0,0,0,17,13.69l4.31,5.21a25.77,25.77,0,0,0-3.58,8.62L11,28.15a1.15,1.15,0,0,0-1,1.12v7.19a1.16,1.16,0,0,0,1,1.13l6.73.63a25.55,25.55,0,0,0,3.57,8.62L17,52.05A1.16,1.16,0,0,0,17,53.57l5.08,5.08a1.16,1.16,0,0,0,1.52.07l5.21-4.31A25.77,25.77,0,0,0,37.46,58l.63,6.73a1.16,1.16,0,0,0,1.13,1h7.19a1.15,1.15,0,0,0,1.12-1L48.16,58A25.37,25.37,0,0,0,54,56l-7-7.24a16.55,16.55,0,0,1-10.44-.71h0a16.51,16.51,0,0,1-8.88-8.88v0a16.52,16.52,0,0,1,0-12.56v0a16.47,16.47,0,0,1,8.88-8.88h0a16.4,16.4,0,0,1,12.56,0h0A16.44,16.44,0,0,1,58,26.57v0a16.36,16.36,0,0,1,1.25,6.28A16.68,16.68,0,0,1,58.72,37L66,44a25.93,25.93,0,0,0,2-5.78l6.73-.63a1.16,1.16,0,0,0,1-1.13V29.27A1.15,1.15,0,0,0,74.66,28.15Z"/><path class="cls-2" d="M72.27,55.79l-19-18.29a11.65,11.65,0,0,0,.85-3A11.39,11.39,0,0,0,52,26a11.76,11.76,0,0,0-1-1.2,12.6,12.6,0,0,0-1.27-1.11,10.77,10.77,0,0,0-5.2-2.17,11.18,11.18,0,0,0-1.49-.1,13.21,13.21,0,0,0-1.77.13,10.28,10.28,0,0,0-2.1.53.79.79,0,0,0-.28,1.39l5.82,5.82a1.26,1.26,0,0,1,0,1.79l-3.59,3.6a1.3,1.3,0,0,1-.9.37,1.32,1.32,0,0,1-.9-.37l-5.81-5.82a1,1,0,0,0-.65-.3.83.83,0,0,0-.74.57,9.75,9.75,0,0,0-.53,2.11,11.63,11.63,0,0,0,0,3.26,10.94,10.94,0,0,0,2.17,5.19A11.73,11.73,0,0,0,34.76,41,10.73,10.73,0,0,0,36,42a11.3,11.3,0,0,0,5.2,2.17,11.38,11.38,0,0,0,6.27-.84l18.3,19a4.62,4.62,0,1,0,6.53-6.54Z"/><path class="cls-3" d="M0,76.57c-.06,4,3.67,8.2,7.78,8.1A6.33,6.33,0,0,0,13,81.55a8.48,8.48,0,0,0,.72-2.09c.1-.35.24-.69.32-1-.06.25-.1.08,0,0-.24.15-.31.4-.63.47l-2.7-1.53c.6,3,2.23,6.09,5.5,6.68a5.5,5.5,0,0,0,5.17-1.53,17.12,17.12,0,0,0,1.75-2.15A4.66,4.66,0,0,0,23.82,79a6.21,6.21,0,0,0,.14-.88c.05-.49.23-.47-.17,0a2.26,2.26,0,0,0,0-3.1,2.21,2.21,0,0,0-3.1,0,4.3,4.3,0,0,0-1,2.36c0,.19-.2.79,0,.34a3.39,3.39,0,0,1-.46.68A5.28,5.28,0,0,1,18,79.71a1.21,1.21,0,0,1-.76.09,1.84,1.84,0,0,1-1.39-1A7.85,7.85,0,0,1,15,76.21a2.24,2.24,0,0,0-2.7-1.53C10.75,75,10,76.51,9.63,77.87c-.16.53-.27,1.09-.46,1.61.17-.46,0,0-.07,0a3.57,3.57,0,0,1-.54.49c-1.82,1.21-4.21-1.71-4.18-3.45,0-2.82-4.33-2.82-4.38,0Z"/><path class="cls-3" d="M21.05,76.57c-.06,4,3.68,8.2,7.78,8.1a6.36,6.36,0,0,0,5.24-3.12,9.39,9.39,0,0,0,.72-2.09c.09-.35.23-.69.32-1-.06.25-.11.08,0,0-.25.15-.32.4-.64.47l-2.7-1.53c.61,3,2.23,6.09,5.5,6.68a5.5,5.5,0,0,0,5.17-1.53,17.12,17.12,0,0,0,1.75-2.15A4.66,4.66,0,0,0,44.87,79a5,5,0,0,0,.14-.88c.06-.49.23-.47-.17,0a2.25,2.25,0,0,0,0-3.1,2.2,2.2,0,0,0-3.09,0,4.38,4.38,0,0,0-1,2.36c0,.19-.19.79,0,.34a3.82,3.82,0,0,1-.45.68,5.7,5.7,0,0,1-1.18,1.31,1.24,1.24,0,0,1-.77.09,1.84,1.84,0,0,1-1.39-1A8.08,8.08,0,0,1,36,76.21a2.23,2.23,0,0,0-2.7-1.53c-1.52.34-2.23,1.83-2.64,3.19-.16.53-.26,1.09-.46,1.61.18-.46,0,0-.07,0a3.57,3.57,0,0,1-.54.49c-1.81,1.21-4.2-1.71-4.18-3.45.05-2.82-4.33-2.82-4.38,0Z"/><path class="cls-3" d="M42,76.57c-.07,4,3.67,8.2,7.77,8.1a6.35,6.35,0,0,0,5.24-3.12,8.48,8.48,0,0,0,.72-2.09c.09-.35.24-.69.32-1-.06.25-.11.08,0,0-.24.15-.32.4-.64.47l-2.69-1.53c.6,3,2.22,6.09,5.49,6.68a5.49,5.49,0,0,0,5.17-1.53,16.36,16.36,0,0,0,1.76-2.15A5.19,5.19,0,0,0,65.86,79a6.21,6.21,0,0,0,.13-.88c.06-.49.24-.47-.16,0a2.27,2.27,0,0,0,0-3.1,2.21,2.21,0,0,0-3.1,0,4.3,4.3,0,0,0-1,2.36c0,.19-.2.79,0,.34a3.82,3.82,0,0,1-.45.68,5.7,5.7,0,0,1-1.18,1.31,1.24,1.24,0,0,1-.77.09,1.81,1.81,0,0,1-1.38-1,7.86,7.86,0,0,1-.9-2.63,2.22,2.22,0,0,0-2.69-1.53c-1.53.34-2.24,1.83-2.65,3.19-.16.53-.26,1.09-.46,1.61.18-.46,0,0-.06,0a4.2,4.2,0,0,1-.55.49c-1.81,1.21-4.2-1.71-4.17-3.45,0-2.82-4.34-2.82-4.38,0Z"/><path class="cls-3" d="M63.09,76.57c-.06,4,3.67,8.2,7.78,8.1a6.35,6.35,0,0,0,5.23-3.12,8.48,8.48,0,0,0,.72-2.09c.1-.35.24-.69.32-1-.06.25-.1.08,0,0-.24.15-.32.4-.64.47l-2.69-1.53c.6,3,2.23,6.09,5.5,6.68a5.51,5.51,0,0,0,5.17-1.53,17.12,17.12,0,0,0,1.75-2.15A4.91,4.91,0,0,0,86.91,79a6.21,6.21,0,0,0,.14-.88c0-.49.23-.47-.17,0a2.26,2.26,0,0,0,0-3.1,2.21,2.21,0,0,0-3.1,0,4.3,4.3,0,0,0-1,2.36c0,.19-.2.79,0,.34a3.39,3.39,0,0,1-.46.68,5.48,5.48,0,0,1-1.18,1.31,1.21,1.21,0,0,1-.76.09,1.81,1.81,0,0,1-1.39-1,8.09,8.09,0,0,1-.9-2.63,2.22,2.22,0,0,0-2.69-1.53c-1.53.34-2.24,1.83-2.64,3.19-.16.53-.27,1.09-.46,1.61.17-.46,0,0-.07,0a4.12,4.12,0,0,1-.54.49c-1.82,1.21-4.21-1.71-4.18-3.45,0-2.82-4.34-2.82-4.38,0Z"/><path class="cls-3" d="M0,89.28c-.06,4,3.67,8.21,7.78,8.11A6.38,6.38,0,0,0,13,94.27a8.69,8.69,0,0,0,.72-2.1c.1-.34.24-.68.32-1-.06.26-.1.09,0,0-.24.14-.31.4-.63.47l-2.7-1.53c.6,3,2.23,6.09,5.5,6.67a5.5,5.5,0,0,0,5.17-1.52,16.52,16.52,0,0,0,1.75-2.16,4.61,4.61,0,0,0,.66-1.4A6.71,6.71,0,0,0,24,90.8c.05-.49.23-.47-.17,0a2.25,2.25,0,0,0,0-3.09,2.2,2.2,0,0,0-3.1,0,4.3,4.3,0,0,0-1,2.35c0,.2-.2.79,0,.34a3.13,3.13,0,0,1-.46.68A5.51,5.51,0,0,1,18,92.43a1.29,1.29,0,0,1-.76.08,1.83,1.83,0,0,1-1.39-1A7.83,7.83,0,0,1,15,88.92a2.24,2.24,0,0,0-2.7-1.53c-1.52.35-2.23,1.83-2.64,3.19-.16.54-.27,1.1-.46,1.62.17-.47,0,0-.07,0a4.12,4.12,0,0,1-.54.48C6.74,93.94,4.35,91,4.38,89.28c0-2.82-4.33-2.82-4.38,0Z"/><path class="cls-3" d="M21.05,89.28c-.06,4,3.68,8.21,7.78,8.11a6.41,6.41,0,0,0,5.24-3.12,9.65,9.65,0,0,0,.72-2.1c.09-.34.23-.68.32-1-.06.26-.11.09,0,0-.25.14-.32.4-.64.47l-2.7-1.53c.61,3,2.23,6.09,5.5,6.67a5.5,5.5,0,0,0,5.17-1.52,16.52,16.52,0,0,0,1.75-2.16,4.61,4.61,0,0,0,.66-1.4A5.37,5.37,0,0,0,45,90.8c.06-.49.23-.47-.17,0a2.24,2.24,0,0,0,0-3.09,2.19,2.19,0,0,0-3.09,0,4.39,4.39,0,0,0-1,2.35c0,.2-.19.79,0,.34a3.49,3.49,0,0,1-.45.68,6,6,0,0,1-1.18,1.32,1.32,1.32,0,0,1-.77.08,1.83,1.83,0,0,1-1.39-1A8.06,8.06,0,0,1,36,88.92a2.23,2.23,0,0,0-2.7-1.53c-1.52.35-2.23,1.83-2.64,3.19-.16.54-.26,1.1-.46,1.62.18-.47,0,0-.07,0a4.12,4.12,0,0,1-.54.48c-1.81,1.21-4.2-1.7-4.18-3.45.05-2.82-4.33-2.82-4.38,0Z"/><path class="cls-3" d="M42,89.28c-.07,4,3.67,8.21,7.77,8.11a6.4,6.4,0,0,0,5.24-3.12,8.69,8.69,0,0,0,.72-2.1c.09-.34.24-.68.32-1-.06.26-.11.09,0,0-.24.14-.32.4-.64.47l-2.69-1.53c.6,3,2.22,6.09,5.49,6.67a5.49,5.49,0,0,0,5.17-1.52,15.81,15.81,0,0,0,1.76-2.16,5.13,5.13,0,0,0,.66-1.4A6.67,6.67,0,0,0,66,90.8c.06-.49.24-.47-.16,0a2.26,2.26,0,0,0,0-3.09,2.2,2.2,0,0,0-3.1,0,4.3,4.3,0,0,0-1,2.35c0,.2-.2.79,0,.34a3.49,3.49,0,0,1-.45.68,6,6,0,0,1-1.18,1.32,1.32,1.32,0,0,1-.77.08,1.8,1.8,0,0,1-1.38-1,7.84,7.84,0,0,1-.9-2.64,2.22,2.22,0,0,0-2.69-1.53c-1.53.35-2.24,1.83-2.65,3.19-.16.54-.26,1.1-.46,1.62.18-.47,0,0-.06,0a5,5,0,0,1-.55.48c-1.81,1.21-4.2-1.7-4.17-3.45,0-2.82-4.34-2.82-4.38,0Z"/><path class="cls-3" d="M63.09,89.28c-.06,4,3.67,8.21,7.78,8.11a6.39,6.39,0,0,0,5.23-3.12,8.69,8.69,0,0,0,.72-2.1c.1-.34.24-.68.32-1-.06.26-.1.09,0,0-.24.14-.32.4-.64.47l-2.69-1.53c.6,3,2.23,6.09,5.5,6.67a5.5,5.5,0,0,0,5.17-1.52,16.52,16.52,0,0,0,1.75-2.16,4.86,4.86,0,0,0,.66-1.4,6.71,6.71,0,0,0,.14-.88c0-.49.23-.47-.17,0a2.25,2.25,0,0,0,0-3.09,2.2,2.2,0,0,0-3.1,0,4.3,4.3,0,0,0-1,2.35c0,.2-.2.79,0,.34a3.13,3.13,0,0,1-.46.68,5.73,5.73,0,0,1-1.18,1.32,1.29,1.29,0,0,1-.76.08,1.8,1.8,0,0,1-1.39-1,8.06,8.06,0,0,1-.9-2.64,2.22,2.22,0,0,0-2.69-1.53c-1.53.35-2.24,1.83-2.64,3.19-.16.54-.27,1.1-.46,1.62.17-.47,0,0-.07,0a4.88,4.88,0,0,1-.54.48c-1.82,1.21-4.21-1.7-4.18-3.45,0-2.82-4.34-2.82-4.38,0Z"/></g></g></svg>