<svg xmlns="http://www.w3.org/2000/svg" viewBox="0 0 118.81 108.31"><defs><style>.cls-1{fill:#067dbe;}.cls-1,.cls-2,.cls-3{fill-rule:evenodd;}.cls-2{fill:none;stroke:#034861;stroke-miterlimit:10;stroke-width:4.95px;}.cls-3{fill:#00c2f5;}</style></defs><g id="Layer_2" data-name="Layer 2"><g id="Layer_1-2" data-name="Layer 1"><path class="cls-1" d="M62.13,18.81,60.06,23.1l13.47-4.38L69,6,67.58,9.47a1.59,1.59,0,0,1-2.07.85,1.46,1.46,0,0,1-.3-.17c-6.47-4-12.45-5.25-17.58-4.63a19.69,19.69,0,0,0-10.8,4.89,36.84,36.84,0,0,1,11.11.34,29.82,29.82,0,0,1,13.8,6.13,1.57,1.57,0,0,1,.39,1.93Zm-6.52,6.25,3.15-6.52a27.58,27.58,0,0,0-11.39-4.69,31.84,31.84,0,0,0-14.46.59A1.58,1.58,0,0,1,31.19,12,23.09,23.09,0,0,1,47.26,2.38c5.37-.64,11.52.5,18.1,4.2L67.69,1a1.53,1.53,0,0,1,.93-.88,1.58,1.58,0,0,1,2,1l6.43,18.19a1.58,1.58,0,0,1-1,2l-18.54,6a1.57,1.57,0,0,1-1.9-2.19Z"/><path class="cls-2" d="M38.11,46.89l1.85.83c8.15,3.6,12.36,5.47,12.83,22.86a4.67,4.67,0,0,1-.31,1.8,4.59,4.59,0,0,1-1,1.54A4.69,4.69,0,0,1,50,75a4.59,4.59,0,0,1-1.8.36H7.09A4.59,4.59,0,0,1,5.29,75a4.71,4.71,0,0,1-2.51-2.58,4.49,4.49,0,0,1-.3-1.8C3,53.19,7.16,51.32,15.31,47.72l1.85-.83a14.48,14.48,0,1,1,21,0Z"/><path class="cls-2" d="M101.66,46.89l1.85.83c8.15,3.6,12.35,5.47,12.82,22.86a4.49,4.49,0,0,1-.3,1.8l0,.1a4.54,4.54,0,0,1-1,1.44,4.69,4.69,0,0,1-1.51,1,4.59,4.59,0,0,1-1.8.36H70.64a4.59,4.59,0,0,1-1.8-.36,4.69,4.69,0,0,1-1.51-1,4.59,4.59,0,0,1-1-1.54,4.49,4.49,0,0,1-.3-1.8c.46-17.39,4.67-19.26,12.82-22.86l1.85-.83a14.47,14.47,0,1,1,21,0Z"/><path class="cls-3" d="M58.47,88.62,59.83,84,47.24,90.52l6.52,11.85.86-3.68a1.58,1.58,0,0,1,1.9-1.18,1.61,1.61,0,0,1,.33.12c7,2.89,13.14,3.15,18.1,1.71a19.66,19.66,0,0,0,9.86-6.58,37.36,37.36,0,0,1-11,1.47,29.8,29.8,0,0,1-14.63-3.81,1.57,1.57,0,0,1-.7-1.8Zm5.43-7.26-2,6.94a27.43,27.43,0,0,0,12,2.78,31.89,31.89,0,0,0,14.09-2.89,1.58,1.58,0,0,1,2.18,2.08,23.08,23.08,0,0,1-14.3,12.1c-5.2,1.51-11.45,1.39-18.54-1.19l-1.38,5.9a1.56,1.56,0,0,1-.78,1,1.59,1.59,0,0,1-2.15-.62l-9.29-16.9a1.58,1.58,0,0,1,.68-2.13l17.3-8.95a1.58,1.58,0,0,1,2.24,1.85Z"/></g></g></svg>