<svg xmlns="http://www.w3.org/2000/svg" viewBox="0 0 45.64 45.55"><defs><style>.cls-1{fill:#fff;}.cls-2{fill:#034861;}</style></defs><g id="Layer_2" data-name="Layer 2"><g id="Layer_1-2" data-name="Layer 1"><path class="cls-1" d="M45.63,22.8V6.15c0-1,0-2.06,0-3.07a3.6,3.6,0,0,0-.52-1.59,3.26,3.26,0,0,0-3-1.49h-38c-.41,0-.83,0-1.24.07A3.23,3.23,0,0,0,0,3.29v39a3.23,3.23,0,0,0,3.23,3.28q19.56,0,39.12,0A3.59,3.59,0,0,0,44,45.08,3.21,3.21,0,0,0,45.64,42C45.62,35.61,45.63,29.21,45.63,22.8Z"/><path class="cls-1" d="M45.63,22.8c0,6.41,0,12.81,0,19.22A3.21,3.21,0,0,1,44,45.08a3.59,3.59,0,0,1-1.66.45q-19.56,0-39.12,0A3.23,3.23,0,0,1,0,42.27v-39A3.23,3.23,0,0,1,2.88.07C3.29,0,3.71,0,4.12,0h38a3.26,3.26,0,0,1,3,1.49,3.6,3.6,0,0,1,.52,1.59c.09,1,0,2,0,3.07ZM24.26,19.91c0-.81,0-1.62,0-2.42,0-.37-.11-.49-.49-.48-1.88,0-3.76,0-5.64,0-.42,0-.5.15-.5.52q0,10.45,0,20.92c0,.39.1.52.51.51,1.92,0,3.84,0,5.77,0,.54,0,.54,0,.54-.56V27.66a13.64,13.64,0,0,1,.09-1.57,4,4,0,0,1,1.39-2.7,4.25,4.25,0,0,1,3.2-.76,2.85,2.85,0,0,1,2.44,1.62,5.3,5.3,0,0,1,.52,2.48V38.39c0,.55,0,.55.57.55h5.69c.55,0,.55,0,.55-.56,0-4.48,0-9,0-13.45a12.93,12.93,0,0,0-.18-2.33,6.77,6.77,0,0,0-2.9-4.79,8.34,8.34,0,0,0-7.8-.66A9,9,0,0,0,24.26,19.91ZM13.51,28q0-5.25,0-10.5c0-.37-.09-.49-.47-.48-2,0-3.91,0-5.86,0-.41,0-.5.15-.49.52q0,10.45,0,20.92c0,.38.11.52.51.51,1.92,0,3.85,0,5.77,0,.43,0,.55-.1.55-.54C13.5,34.94,13.51,31.46,13.51,28ZM10.16,6.17a3.92,3.92,0,0,0-4,3.91,4,4,0,1,0,7.9,0A3.94,3.94,0,0,0,10.16,6.17Z"/><path class="cls-2" d="M24.26,19.91A9,9,0,0,1,28,17.15a8.34,8.34,0,0,1,7.8.66,6.77,6.77,0,0,1,2.9,4.79,12.93,12.93,0,0,1,.18,2.33c0,4.48,0,9,0,13.45,0,.56,0,.56-.55.56H32.67c-.57,0-.57,0-.57-.55V26.73a5.3,5.3,0,0,0-.52-2.48,2.85,2.85,0,0,0-2.44-1.62,4.25,4.25,0,0,0-3.2.76,4,4,0,0,0-1.39,2.7,13.64,13.64,0,0,0-.09,1.57V38.38c0,.56,0,.56-.54.56-1.93,0-3.85,0-5.77,0-.41,0-.51-.12-.51-.51q0-10.45,0-20.92c0-.37.08-.52.5-.52,1.88,0,3.76,0,5.64,0,.38,0,.5.11.49.48C24.25,18.29,24.26,19.1,24.26,19.91Z"/><path class="cls-2" d="M13.51,28c0,3.47,0,7,0,10.42,0,.44-.12.55-.55.54-1.92,0-3.85,0-5.77,0-.4,0-.51-.13-.51-.51q0-10.45,0-20.92c0-.37.08-.52.49-.52,2,0,3.9,0,5.86,0,.38,0,.47.11.47.48Q13.51,22.74,13.51,28Z"/><path class="cls-2" d="M10.16,6.17a3.94,3.94,0,0,1,3.92,3.95,4,4,0,1,1-7.9,0A3.92,3.92,0,0,1,10.16,6.17Z"/></g></g></svg>