<svg xmlns="http://www.w3.org/2000/svg" viewBox="0 0 98.85 99.6"><defs><style>.cls-1,.cls-2,.cls-3,.cls-4{fill:none;}.cls-1{stroke:#034861;}.cls-1,.cls-2,.cls-3{stroke-miterlimit:10;stroke-width:4.95px;}.cls-2{stroke:#0e7dbd;}.cls-3,.cls-4{stroke:#00c2f5;}.cls-4{stroke-linecap:round;stroke-linejoin:round;stroke-width:3.06px;}</style></defs><g id="Layer_2" data-name="Layer 2"><g id="Layer_1-2" data-name="Layer 1"><g id="save-salary"><path class="cls-1" d="M1.37,74.49l7.88-5.24a1.53,1.53,0,0,1,2.15.46L25.06,91.57a1.54,1.54,0,0,1-.52,2.13l-6.31,3.78"/><path class="cls-1" d="M41.21,71.43H59.6a6.13,6.13,0,1,0,0-12.26H34.8a9.19,9.19,0,0,0-5.1,1.55L12.81,72"/><path class="cls-1" d="M61.67,71.07,87.9,61.21a6.13,6.13,0,1,1,4.69,11.32L65.53,84a15.33,15.33,0,0,1-6,1.21H35.69a9.23,9.23,0,0,0-5,1.51l-6.1,4"/><path class="cls-2" d="M34.72,53.05a32.18,32.18,0,1,1,51.69,1.53"/><path class="cls-3" d="M51.94,43.85a8.16,8.16,0,0,0,6.89,4.6h4.6a6.93,6.93,0,0,0,6.9-6.9h0a6.93,6.93,0,0,0-6.9-6.9h-4.6a6.91,6.91,0,0,1-6.89-6.89h0a6.92,6.92,0,0,1,6.89-6.9h4.6a8.17,8.17,0,0,1,6.9,4.6"/><line class="cls-4" x1="61.13" y1="16.27" x2="61.13" y2="20.86"/><line class="cls-4" x1="61.13" y1="48.45" x2="61.13" y2="53.04"/></g></g></g></svg>