<svg xmlns="http://www.w3.org/2000/svg" viewBox="0 0 103.64 98.89"><defs><style>.cls-1{fill:#034861;}.cls-2{fill:#0e7dbd;}.cls-3{fill:#00c2f5;}</style></defs><g id="Layer_2" data-name="Layer 2"><g id="Layer_1-2" data-name="Layer 1"><path class="cls-1" d="M97.67,70.24l2.1-5.4L95,60.08l-5.39,2.1L88,61.52l-2.32-5.31H78.93l-2.32,5.31L75,62.18l-5.39-2.1-4.76,4.76,2.1,5.4-.67,1.62L61,74.18v6.74l5.3,2.32.67,1.63-2.1,5.39L69.59,95,75,92.92l1.63.67,2.32,5.3h6.74L88,93.59l1.63-.67L95,95l4.76-4.76-2.1-5.39.67-1.63,5.3-2.32V74.18l-5.3-2.32Zm2.19,8.21-4.44,1.94-1.83,4.44,1.76,4.5L94.08,90.6l-4.5-1.76-4.44,1.83L83.2,95.11H81.4l-1.94-4.44L75,88.84l-4.5,1.76-1.27-1.27L71,84.83l-1.83-4.44-4.44-1.94v-1.8l4.44-1.94L71,70.27l-1.76-4.5,1.27-1.27L75,66.26l4.44-1.83L81.4,60h1.8l1.94,4.43,4.44,1.83,4.5-1.76,1.27,1.27-1.76,4.5,1.83,4.44,4.44,1.94Z"/><path class="cls-2" d="M82.3,69.18a8.37,8.37,0,1,0,8.37,8.37A8.39,8.39,0,0,0,82.3,69.18Zm0,13a4.59,4.59,0,1,1,4.58-4.59A4.6,4.6,0,0,1,82.3,82.14Z"/><path class="cls-3" d="M54.25,84.4H4.86L9.22,67.09,31.15,57.7A12.81,12.81,0,0,0,42.8,65.19h0A12.81,12.81,0,0,0,54.45,57.7l6.3,2.7,1.49-3.48-7-3V50a17,17,0,0,0,7.12-10.49c2.59-1.21,4.36-4.59,4.44-8.69h2.67V25l-3.11-1.46C66.28,12.19,59.76,4.24,49.2,2a3.43,3.43,0,0,0-3.11-2H39.5a3.43,3.43,0,0,0-3.11,2C25.84,4.24,19.31,12.19,19.28,23.51L16.17,25V30.8h2.66c.08,4.1,1.85,7.48,4.44,8.69A16.91,16.91,0,0,0,30.4,50v3.93L7.57,63.68A3.43,3.43,0,0,0,5.6,66L0,88.18H54.25Zm-11.45-23h0A9,9,0,0,1,34.18,55V52.2a21.14,21.14,0,0,0,8.62,2.08,21.18,21.18,0,0,0,8.62-2.08V55A9,9,0,0,1,42.8,61.41ZM23.06,25.92V23.6c0-10.4,6-15.68,13-17.6V18.14h3.78V3.78h5.89V18.14h3.79V6c7.06,1.92,13,7.2,13,17.6v2.32L64.89,27H20.71Zm3.79,11.94L26.7,36.4l-1.45-.22C24,36,22.7,33.77,22.62,30.8H63c-.09,3-1.42,5.2-2.63,5.38l-1.45.22-.16,1.46C57.92,45.69,48.9,50.5,42.8,50.5S27.67,45.69,26.85,37.86Z"/></g></g></svg>