<svg xmlns="http://www.w3.org/2000/svg" viewBox="0 0 94.85 88.98"><defs><style>.cls-1{fill:#067dbe;}.cls-2{fill:#00c2f5;}.cls-3{fill:none;stroke:#034861;stroke-linecap:round;stroke-linejoin:round;stroke-width:3.72px;}</style></defs><g id="Layer_2" data-name="Layer 2"><g id="Layer_1-2" data-name="Layer 1"><circle class="cls-1" cx="63.01" cy="33.7" r="5.37"/><circle class="cls-2" cx="64.05" cy="54.78" r="5.37"/><circle class="cls-2" cx="78.46" cy="66.04" r="5.37"/><circle class="cls-2" cx="88.13" cy="44.26" r="5.37"/><circle class="cls-2" cx="59.11" cy="82.28" r="5.37"/><circle class="cls-1" cx="58.92" cy="7.29" r="5.37"/><circle class="cls-1" cx="78.8" cy="23.87" r="5.37"/><path id="Layer2_1_1_STROKES" data-name="Layer2 1 1 STROKES" class="cls-3" d="M10.8,18.2Q9.06,20.6,7.34,23A40.83,40.83,0,0,0,1.86,44h19.9a64.49,64.49,0,0,1,4.13-22.59A112.2,112.2,0,0,1,10.8,18.2a41.94,41.94,0,0,1,3.27-3.65A39.24,39.24,0,0,1,35.6,3.2a32.65,32.65,0,0,1,8-.86V22.81H58.77V12a5.19,5.19,0,0,1-3.66-1.44,5,5,0,0,1-1.44-3.65A4.51,4.51,0,0,1,55.11,3.4a4.78,4.78,0,0,1,3.66-1.54A4.65,4.65,0,0,1,62.32,3.4a4.66,4.66,0,0,1,1.35,3.46,5.13,5.13,0,0,1-1.35,3.65A5.52,5.52,0,0,1,58.77,12M35.6,3.2a72.83,72.83,0,0,0-9.71,18.17,111.13,111.13,0,0,0,17.69,1.44V44h19.7V38.48a5.09,5.09,0,0,1-5.09-5.09,4.36,4.36,0,0,1,1.54-3.46,4.62,4.62,0,0,1,3.55-1.44,4.84,4.84,0,0,1,3.56,1.44,4.51,4.51,0,0,1,1.44,3.46A5,5,0,0,1,66.84,37a5.27,5.27,0,0,1-3.56,1.44M58.77,22.81H73.86a5.26,5.26,0,0,1,1.44-3.55A5,5,0,0,1,79,17.72a5.08,5.08,0,0,1,3.56,1.54,5,5,0,0,1,1.35,3.55,5,5,0,0,1-1.35,3.56l-1.44,1.15a5.15,5.15,0,0,1-2.12.39,5,5,0,0,1-3.65-1.54A4.88,4.88,0,0,1,74,24l-.09-1.16M63.28,44H83a5.26,5.26,0,0,1,1.44-3.55A4.67,4.67,0,0,1,88,38.87a5.41,5.41,0,0,1,3.65,1.54,5.36,5.36,0,0,1,0,7.11A5.22,5.22,0,0,1,88,49.06a4.71,4.71,0,0,1-3.56-1.54A5.06,5.06,0,0,1,83,44M73.86,66.17a5.62,5.62,0,0,0,1.44,3.65A5.16,5.16,0,0,0,79,71.26a5.27,5.27,0,0,0,3.56-1.44,5.34,5.34,0,0,0,1.35-3.65,4.66,4.66,0,0,0-1.35-3.46A4.75,4.75,0,0,0,79,61.07a4.86,4.86,0,0,0-3.65,1.64,4.71,4.71,0,0,0-1.44,3.46H58.77v11a5.52,5.52,0,0,1,3.55,1.44,4.8,4.8,0,0,1,1.35,3.56,5,5,0,0,1-1.35,3.55,4.82,4.82,0,0,1-3.55,1.44,5,5,0,0,1-3.66-1.44,4.82,4.82,0,0,1-1.44-3.55,4.64,4.64,0,0,1,1.44-3.56,5.19,5.19,0,0,1,3.66-1.44M63.28,44v5.48A5.08,5.08,0,0,1,66.84,51a4.64,4.64,0,0,1,1.44,3.56,4.94,4.94,0,0,1-5,5,5.11,5.11,0,0,1-5.09-5A4.48,4.48,0,0,1,59.73,51a4.65,4.65,0,0,1,3.55-1.54M35.6,84.82a64.7,64.7,0,0,0,8,.77V66.17a118.77,118.77,0,0,0-17.31,1.25,80.59,80.59,0,0,0,9.33,17.4A39.54,39.54,0,0,1,14.07,73.57l-2.6-2.79a50.82,50.82,0,0,1-4.13-6A40,40,0,0,1,1.86,44m41.72,0V66.17H58.77M43.58,44H21.76a64.42,64.42,0,0,0,4.51,23.46Q19,68.77,11.47,70.78"/></g></g></svg>