<svg xmlns="http://www.w3.org/2000/svg" viewBox="0 0 59.27 59.88"><defs><style>.cls-1,.cls-2{fill:none;stroke-linecap:round;stroke-linejoin:round;stroke-width:2.43px;}.cls-1{stroke:#024861;}.cls-2{stroke:#067dbe;}</style></defs><g id="Layer_2" data-name="Layer 2"><g id="Layer_1-2" data-name="Layer 1"><path class="cls-1" d="M11.74,41.71V55.94c0,3.68,6.67,3.63,6.63-.06l-.12-9.58,0-1.68M12.53,21.24c-5,0-10.27,1-10.59,2.91a53.48,53.48,0,0,0-.64,9.54c0,1.94-.69,5.92,2,5.61.78,0,1.63-.76,2.27-2.58m.17-8.41-.15,18L5.5,55.88c0,3.69,6.23,3.74,6.23.06m0-48.77a4.94,4.94,0,0,1,4.72,5.15,5.26,5.26,0,0,1-2.39,4.49,4.41,4.41,0,0,1-2.39.71A5,5,0,0,1,7,12.36,5.25,5.25,0,0,1,9.39,7.88a4.41,4.41,0,0,1,2.39-.71ZM47.21,41.71V55.94c0,3.68,6.67,3.63,6.63-.06l-.12-9.58-.15-18m.17,8c.91,2.59,2.26,2.92,3.22,2.33,1.57-1,1-3,1-4.65l-.49-9.79c-.12-2.27-6.1-3.18-11.5-2.9M41.14,45l0,1.33L41,55.88c0,3.69,6.23,3.74,6.23.06m0-48.77A4.94,4.94,0,0,1,52,12.32a5.28,5.28,0,0,1-2.39,4.49,4.43,4.43,0,0,1-2.39.71,5,5,0,0,1-4.72-5.16,5.23,5.23,0,0,1,2.39-4.48,4.41,4.41,0,0,1,2.39-.71Z"/><path class="cls-2" d="M29.67,38.17l0,17.45c0,4.1,7.23,4.05,7.19-.06L36.71,44.7l-.17-20.07m.19,11.5c1,2.9,2.52,3.26,3.59,2.6,1.76-1.09,1.14-3.38,1.07-5.19l-.54-13.66c-.19-4.56-21.63-4.22-22.33-.05-.56,2.58-.64,8.47-.71,12.92,0,2.16-.77,6.6,2.26,6.26.87-.06,1.83-.85,2.53-2.88m.2-11.5L22.63,44.7l-.14,10.86c0,4.11,7.17,4.17,7.16.06M29.51,1.21A5.53,5.53,0,0,1,34.77,7a5.87,5.87,0,0,1-2.67,5,4.94,4.94,0,0,1-2.67.79A5.52,5.52,0,0,1,24.17,7a5.84,5.84,0,0,1,2.67-5,4.85,4.85,0,0,1,2.67-.8Z"/></g></g></svg>