<svg xmlns="http://www.w3.org/2000/svg" viewBox="0 0 58.45 53.59"><defs><style>.cls-1{fill:#034861;}.cls-2{fill:#067dbe;}</style></defs><g id="Layer_2" data-name="Layer 2"><g id="Layer_1-2" data-name="Layer 1"><polygon class="cls-1" points="38.45 42.66 0 42.66 0 0 53.39 0 53.39 22.21 51.09 22.21 51.09 2.29 2.29 2.29 2.29 40.37 38.45 40.37 38.45 42.66"/><path class="cls-1" d="M1.15,1.15V6.73H52.24V1.15ZM41.7,5.25H39.07V2.63H41.7V5.25Zm4.52,0H43.6V2.63h2.62V5.25Zm4.53,0H48.13V2.63h2.62Z"/><path class="cls-2" d="M56.88,21.39H39.38A1.57,1.57,0,0,0,37.81,23V52a1.57,1.57,0,0,0,1.57,1.57h17.5A1.57,1.57,0,0,0,58.45,52V23A1.57,1.57,0,0,0,56.88,21.39Zm.25,27.52a1.36,1.36,0,0,1-1.35,1.36H40.48a1.35,1.35,0,0,1-1.35-1.36V24.18a1.35,1.35,0,0,1,1.35-1.36h15.3a1.36,1.36,0,0,1,1.35,1.36Z"/><path class="cls-1" d="M36.66,23a2.72,2.72,0,0,1,2.72-2.72h5.9V11.51H8.41V36.08H36.66V23ZM32.75,25.6l-8.51,4.91a1.63,1.63,0,0,1-2.45-1.42V19.27a1.63,1.63,0,0,1,2.45-1.42l8.51,4.91A1.64,1.64,0,0,1,32.75,25.6Z"/><path class="cls-2" d="M40.89,31.49V42.42H55.5V31.49ZM51.5,37.91l-4.68,2.7a.9.9,0,0,1-1.35-.79V34.43a.9.9,0,0,1,1.35-.79l4.68,2.7A.91.91,0,0,1,51.5,37.91Z"/></g></g></svg>