<svg xmlns="http://www.w3.org/2000/svg" viewBox="0 0 53.28 64.76"><defs><style>.cls-1{fill:#067dbe;}.cls-2{fill:#034861;}</style></defs><g id="Layer_2" data-name="Layer 2"><g id="Layer_1-2" data-name="Layer 1"><path class="cls-1" d="M36.55,60.1a1.32,1.32,0,0,1-1.32-1.32v-6.1a1.32,1.32,0,0,1,2.63,0v6.1A1.31,1.31,0,0,1,36.55,60.1Z"/><path class="cls-1" d="M52,60.1a1.32,1.32,0,0,1-1.32-1.32v-6.1a1.32,1.32,0,0,1,2.64,0v6.1A1.32,1.32,0,0,1,52,60.1Z"/><path class="cls-1" d="M43.59,64.27A1.32,1.32,0,0,1,42.28,63v-6.1a1.32,1.32,0,0,1,2.63,0V63A1.32,1.32,0,0,1,43.59,64.27Z"/><path class="cls-1" d="M29.06,64.27A1.32,1.32,0,0,1,27.75,63v-6.1a1.32,1.32,0,0,1,2.63,0V63A1.32,1.32,0,0,1,29.06,64.27Z"/><path class="cls-2" d="M45.38,49.07H17.5a13.78,13.78,0,0,1-1.63-.13,10.24,10.24,0,0,1,1-20.34,15,15,0,0,1,28.91,5.46,7.51,7.51,0,0,1-.38,15ZM17.5,31.21a7.61,7.61,0,0,0-1.21,15.13h0a11.66,11.66,0,0,0,1.24.1H45.38a4.88,4.88,0,1,0,0-9.76,5.29,5.29,0,0,0-.8.07,1.33,1.33,0,0,1-1.11-.35,1.27,1.27,0,0,1-.4-1.09,12.35,12.35,0,0,0-24-5,1.32,1.32,0,0,1-1.35.9Z"/><path class="cls-1" d="M30.71,11.52a1.32,1.32,0,0,1-.93-2.25L33.06,6a1.32,1.32,0,0,1,1.86,1.86l-3.28,3.28A1.3,1.3,0,0,1,30.71,11.52Z"/><path class="cls-1" d="M10.2,11.52a1.29,1.29,0,0,1-.93-.39L6,7.85A1.32,1.32,0,0,1,7.85,6l3.28,3.28a1.32,1.32,0,0,1-.93,2.25Z"/><path class="cls-1" d="M6,21.77H1.32a1.32,1.32,0,1,1,0-2.63H6a1.32,1.32,0,1,1,0,2.63Z"/><path class="cls-1" d="M20.45,7.27A1.32,1.32,0,0,1,19.14,6V1.32a1.32,1.32,0,1,1,2.63,0V6A1.32,1.32,0,0,1,20.45,7.27Z"/><path class="cls-1" d="M12.73,27.64a1.32,1.32,0,0,1-1.05-.52,10.91,10.91,0,0,1-2.25-6.67,11,11,0,0,1,20.42-5.76,1.32,1.32,0,1,1-2.24,1.38,8.39,8.39,0,1,0-13.84,9.46,1.31,1.31,0,0,1-.25,1.84A1.26,1.26,0,0,1,12.73,27.64Z"/><path class="cls-2" d="M23.39,57.59H21.87l.94-.94a.4.4,0,0,0-.56-.56l-1.5,1.5H18.84a.4.4,0,0,0-.26.1,1.58,1.58,0,0,0-.24-.6l.71-.7H20.5a.31.31,0,1,0,0-.62h-.84l.69-.68a.31.31,0,0,0-.44-.44l-.68.68V54.5a.31.31,0,0,0-.62,0V56l-.71.71a1.53,1.53,0,0,0-.59-.24.4.4,0,0,0,.1-.26V54.25l1.5-1.5a.4.4,0,0,0,0-.56.39.39,0,0,0-.56,0l-.94.94V51.61a.4.4,0,1,0-.8,0v1.52l-.93-.94a.4.4,0,0,0-.57,0,.4.4,0,0,0,0,.56l1.5,1.5v1.91a.36.36,0,0,0,.11.26,1.58,1.58,0,0,0-.6.24L15.41,56V54.5a.31.31,0,1,0-.62,0v.83l-.68-.68a.31.31,0,0,0-.44.44l.69.68h-.84a.31.31,0,0,0,0,.62H15l.7.7a1.58,1.58,0,0,0-.24.6.4.4,0,0,0-.26-.1H13.27l-1.5-1.5a.39.39,0,0,0-.56,0,.4.4,0,0,0,0,.56l.94.94H10.63a.4.4,0,0,0,0,.8h1.52l-.94.93a.42.42,0,0,0,0,.57.41.41,0,0,0,.56,0l1.5-1.5h1.91a.36.36,0,0,0,.26-.11,1.58,1.58,0,0,0,.24.6l-.7.71H13.52a.31.31,0,1,0,0,.61h.84l-.68.69a.31.31,0,0,0,.21.52.31.31,0,0,0,.22-.09l.68-.68v.84a.31.31,0,0,0,.62,0V60l.71-.7a1.6,1.6,0,0,0,.59.24.4.4,0,0,0-.1.26v1.91l-1.5,1.5a.4.4,0,0,0,0,.56.42.42,0,0,0,.57,0l.93-.94v1.52a.4.4,0,0,0,.8,0V62.85l.94.94a.39.39,0,0,0,.56,0,.4.4,0,0,0,0-.56l-1.5-1.5V59.82a.4.4,0,0,0-.1-.26,1.47,1.47,0,0,0,.59-.24l.71.7v1.46a.31.31,0,0,0,.62,0v-.84l.68.68a.31.31,0,0,0,.44,0,.3.3,0,0,0,0-.43l-.68-.69h.83a.31.31,0,1,0,0-.61H19.05l-.71-.71a1.58,1.58,0,0,0,.24-.6.36.36,0,0,0,.26.11h1.91l1.5,1.5a.43.43,0,0,0,.28.11.41.41,0,0,0,.28-.11.4.4,0,0,0,0-.57l-.94-.93h1.52a.4.4,0,1,0,0-.8Zm-5.62,1-.08,0s0,.06-.06.08A.91.91,0,0,1,17,59a1,1,0,0,1-.62-.22.41.41,0,0,0-.05-.09l-.09,0A1,1,0,0,1,16,58a1,1,0,0,1,.22-.62.47.47,0,0,0,.09-.06.56.56,0,0,0,.05-.08,1,1,0,0,1,1.24,0,.24.24,0,0,0,.06.08.14.14,0,0,0,.08,0A1,1,0,0,1,18,58,1,1,0,0,1,17.77,58.61Z"/></g></g></svg>