<svg xmlns="http://www.w3.org/2000/svg" xmlns:xlink="http://www.w3.org/1999/xlink" viewBox="0 0 263.38 162.16"><defs><style>.cls-1{fill:#fff;}.cls-2{fill:#ffc629;}.cls-3,.cls-4,.cls-5{fill-rule:evenodd;}.cls-3{fill:url(#linear-gradient);}.cls-4,.cls-5{fill:none;stroke-miterlimit:10;stroke-width:6.69px;}.cls-4{stroke:#034861;}.cls-5{stroke:#00c2f5;}</style><linearGradient id="linear-gradient" x1="147.21" y1="29.39" x2="166.47" y2="29.39" gradientUnits="userSpaceOnUse"><stop offset="0.08" stop-color="#fff"/><stop offset="0.99" stop-color="#fff"/></linearGradient></defs><g id="Layer_2" data-name="Layer 2"><g id="Layer_1-2" data-name="Layer 1"><path class="cls-1" d="M23.69,127.65h-6L7.07,107.85H6.93c0,.52.05,1.06.07,1.64s0,1.17.09,1.77l.09,1.82c0,.61,0,1.23,0,1.84v12.73H3V102.4H8.91l10.61,19.66h.14c0-.47-.05-1-.07-1.54s-.05-1.12-.07-1.71-.05-1.19-.07-1.81,0-1.2,0-1.76V102.4h4.28Z" transform="translate(-2.97)"/><path class="cls-1" d="M41.83,127.65H28.21V102.4H41.83v3.79H33v6.43h8.31v3.78H33v7.43h8.88Z" transform="translate(-2.97)"/><path class="cls-1" d="M59.89,127.65,58,121H49.32l-1.94,6.69H42.29l8.48-25.35h5.69L65,127.65ZM54.8,110.57c-.09-.38-.22-.83-.37-1.36s-.3-1.08-.42-1.65-.26-1.09-.38-1.59c-.16.88-.35,1.71-.56,2.51s-.4,1.5-.57,2.09l-2,6.51h6.3Z" transform="translate(-2.97)"/><path class="cls-1" d="M73.58,102.4a14,14,0,0,1,5.18.82,6.14,6.14,0,0,1,3,2.45,7.86,7.86,0,0,1,1,4.16,7.49,7.49,0,0,1-.6,3.14,6.34,6.34,0,0,1-1.59,2.18,8.69,8.69,0,0,1-2.19,1.4l6.79,11.1H79.83l-5.48-10H71.28v10H66.54V102.4Zm-.22,3.79H71.28V114h2.15A6.16,6.16,0,0,0,76,113.5a3.13,3.13,0,0,0,1.5-1.34A4.43,4.43,0,0,0,78,110a4.28,4.28,0,0,0-.5-2.21,2.8,2.8,0,0,0-1.52-1.2A7.75,7.75,0,0,0,73.36,106.19Z" transform="translate(-2.97)"/><path class="cls-1" d="M101.05,120.75a7.21,7.21,0,0,1-1,3.86,6.54,6.54,0,0,1-3,2.51,11.83,11.83,0,0,1-4.86.88,19,19,0,0,1-2.58-.16,12.59,12.59,0,0,1-2.25-.48,15,15,0,0,1-2-.77v-4.25a30.7,30.7,0,0,0,3.45,1.29,12.07,12.07,0,0,0,3.63.59,5.12,5.12,0,0,0,2.19-.41,2.77,2.77,0,0,0,1.25-1.13,3.37,3.37,0,0,0,.41-1.68,3.08,3.08,0,0,0-.51-1.8,5,5,0,0,0-1.58-1.38,18.09,18.09,0,0,0-2.76-1.31,17.11,17.11,0,0,1-2.93-1.59,6.54,6.54,0,0,1-2.12-2.37,7.56,7.56,0,0,1-.78-3.61,6.56,6.56,0,0,1,1-3.71,6.38,6.38,0,0,1,2.86-2.37,10.54,10.54,0,0,1,4.28-.81,16,16,0,0,1,3.75.42,15.74,15.74,0,0,1,3.25,1.2l-1.49,3.65a18.14,18.14,0,0,0-2.86-1.06,10.43,10.43,0,0,0-2.79-.39,4,4,0,0,0-1.84.37,2.44,2.44,0,0,0-1.11,1,3.16,3.16,0,0,0-.38,1.56,3,3,0,0,0,.48,1.73,4.72,4.72,0,0,0,1.56,1.33c.72.41,1.64.89,2.77,1.43a17.88,17.88,0,0,1,3.2,1.8,6.4,6.4,0,0,1,2,2.3A7.19,7.19,0,0,1,101.05,120.75Z" transform="translate(-2.97)"/><path class="cls-1" d="M123.18,127.65h-4.77V116.44h-9.76v11.21h-4.74V102.4h4.74v10.19h9.76V102.4h4.77Z" transform="translate(-2.97)"/><path class="cls-1" d="M149.13,115a19.1,19.1,0,0,1-.69,5.32,11.83,11.83,0,0,1-2.07,4.12,8.91,8.91,0,0,1-3.5,2.65,12.47,12.47,0,0,1-5,.92,12.22,12.22,0,0,1-5-.94,9.1,9.1,0,0,1-3.5-2.65,11.5,11.5,0,0,1-2.07-4.12,19.3,19.3,0,0,1-.69-5.34,17.56,17.56,0,0,1,1.22-6.82,9.65,9.65,0,0,1,3.73-4.51,11.59,11.59,0,0,1,6.36-1.61,11.37,11.37,0,0,1,6.3,1.61,9.7,9.7,0,0,1,3.69,4.53A17.67,17.67,0,0,1,149.13,115Zm-17.5,0a16.43,16.43,0,0,0,.64,4.91,6.17,6.17,0,0,0,2,3.15,5.65,5.65,0,0,0,3.59,1.1,5.57,5.57,0,0,0,3.57-1.1,6.2,6.2,0,0,0,2-3.15,16.43,16.43,0,0,0,.64-4.91,13.15,13.15,0,0,0-1.45-6.72,5.09,5.09,0,0,0-4.74-2.44,5.7,5.7,0,0,0-3.62,1.1,6.18,6.18,0,0,0-2,3.14A16.55,16.55,0,0,0,131.63,115Z" transform="translate(-2.97)"/><path class="cls-1" d="M159.63,102.4a13.92,13.92,0,0,1,5.18.82,6.05,6.05,0,0,1,3,2.45,7.86,7.86,0,0,1,1,4.16,7.49,7.49,0,0,1-.6,3.14,6.34,6.34,0,0,1-1.59,2.18,8.57,8.57,0,0,1-2.2,1.4l6.79,11.1h-5.37l-5.48-10h-3.08v10h-4.74V102.4Zm-.21,3.79h-2.09V114h2.16a6.11,6.11,0,0,0,2.56-.46,3.15,3.15,0,0,0,1.51-1.34,4.43,4.43,0,0,0,.49-2.19,4.28,4.28,0,0,0-.49-2.21,2.8,2.8,0,0,0-1.52-1.2A7.79,7.79,0,0,0,159.42,106.19Z" transform="translate(-2.97)"/><path class="cls-1" d="M186.47,127.65H172.85V102.4h13.62v3.79h-8.88v6.43h8.31v3.78h-8.31v7.43h8.88Z" transform="translate(-2.97)"/><path class="cls-2" d="M35.24,154.21l12.25-24H53.9l.77,24H49.45l0-6h-6l-2.76,6Zm10.14-9.87H49.6l.08-6.91c0-.58,0-1.15,0-1.69a11,11,0,0,1,.09-1.7h-.11q-.24.78-.54,1.56c-.21.53-.44,1.08-.69,1.66Z" transform="translate(-2.97)"/><path class="cls-2" d="M63.27,154.54A4.16,4.16,0,0,1,59.34,152a7.3,7.3,0,0,1-.6-3.14,17.59,17.59,0,0,1,.35-3.3,20.71,20.71,0,0,1,1-3.58,15.83,15.83,0,0,1,1.69-3.22,8.67,8.67,0,0,1,2.35-2.33,5.3,5.3,0,0,1,3-.89,4.94,4.94,0,0,1,1.73.29,3.9,3.9,0,0,1,1.34.82,4.27,4.27,0,0,1,1,1.31h.12c0-.29.06-.63.11-1s.12-.78.2-1.19.14-.77.19-1.06l1.5-6h4.91L72,154.21H68.07l.12-2.25h-.12a8.11,8.11,0,0,1-1.38,1.37,6.15,6.15,0,0,1-1.54.89A4.9,4.9,0,0,1,63.27,154.54ZM65.38,151a2.33,2.33,0,0,0,1.43-.5,4.7,4.7,0,0,0,1.13-1.31,11.1,11.1,0,0,0,.86-1.83,17.46,17.46,0,0,0,.64-2.06,20.21,20.21,0,0,0,.36-2,13.27,13.27,0,0,0,.12-1.59,3.15,3.15,0,0,0-.44-1.8,1.51,1.51,0,0,0-1.29-.62,2.15,2.15,0,0,0-1.5.67,6.43,6.43,0,0,0-1.21,1.71,15.38,15.38,0,0,0-.9,2.29,17,17,0,0,0-.58,2.45,13.36,13.36,0,0,0-.19,2.11,3.44,3.44,0,0,0,.4,1.84A1.3,1.3,0,0,0,65.38,151Z" transform="translate(-2.97)"/><path class="cls-2" d="M82.63,154.54a4.28,4.28,0,0,1-2.36-.64A4.33,4.33,0,0,1,78.65,152a7.46,7.46,0,0,1-.59-3.14,18.18,18.18,0,0,1,.34-3.34,20.11,20.11,0,0,1,1-3.59,15,15,0,0,1,1.71-3.2,8.31,8.31,0,0,1,2.4-2.3,5.79,5.79,0,0,1,3.11-.85,4.79,4.79,0,0,1,1.71.28,3.58,3.58,0,0,1,1.31.87,5.17,5.17,0,0,1,.94,1.46h.11l.92-2.28h4.11l-4.45,18.29H87.39l.12-2.39h-.12A10.17,10.17,0,0,1,86,153.23a6.09,6.09,0,0,1-1.54,1A4.78,4.78,0,0,1,82.63,154.54Zm2.07-3.62a2.33,2.33,0,0,0,1.77-.84A7.73,7.73,0,0,0,87.79,148a15,15,0,0,0,.87-2.52,16.68,16.68,0,0,0,.5-2.25,14.59,14.59,0,0,0,.11-1.67,2.74,2.74,0,0,0-.46-1.71,1.53,1.53,0,0,0-1.3-.61,2.08,2.08,0,0,0-1.44.62,6,6,0,0,0-1.21,1.63,12.89,12.89,0,0,0-.94,2.25,16.18,16.18,0,0,0-.6,2.45,13.84,13.84,0,0,0-.19,2.21,3.78,3.78,0,0,0,.38,1.9A1.31,1.31,0,0,0,84.7,150.92Z" transform="translate(-2.97)"/><path class="cls-2" d="M94.46,162.16l6.37-26.24h3.92l-.23,2.55h.15a12.12,12.12,0,0,1,1.42-1.56,5.54,5.54,0,0,1,1.6-1,4.93,4.93,0,0,1,1.86-.35,4.67,4.67,0,0,1,2.34.59A3.86,3.86,0,0,1,113.5,138a7.86,7.86,0,0,1,.58,3.26,18.43,18.43,0,0,1-.34,3.43,19.84,19.84,0,0,1-1.06,3.58,14.91,14.91,0,0,1-1.75,3.17,8.41,8.41,0,0,1-2.4,2.26,5.71,5.71,0,0,1-3,.84,4.26,4.26,0,0,1-1.67-.3,3.3,3.3,0,0,1-1.23-.89,6,6,0,0,1-.87-1.29h-.11c-.1.67-.21,1.31-.31,1.93a14.14,14.14,0,0,1-.38,1.69l-1.54,6.48Zm10.17-11.31a2.16,2.16,0,0,0,1.48-.59,5.54,5.54,0,0,0,1.21-1.59,12.15,12.15,0,0,0,.92-2.25,19.13,19.13,0,0,0,.6-2.46,13.74,13.74,0,0,0,.21-2.3,3.53,3.53,0,0,0-.4-1.88,1.3,1.3,0,0,0-1.17-.64,2.18,2.18,0,0,0-1.37.5A5.72,5.72,0,0,0,105,141a9.08,9.08,0,0,0-.9,1.82,17.39,17.39,0,0,0-.66,2.08c-.17.71-.31,1.38-.4,2a11.54,11.54,0,0,0-.13,1.64,2.85,2.85,0,0,0,.46,1.75A1.53,1.53,0,0,0,104.63,150.85Z" transform="translate(-2.97)"/><path class="cls-2" d="M121.34,154.54a4.34,4.34,0,0,1-3.13-1,3.76,3.76,0,0,1-1-2.83c0-.34.06-.71.1-1.13a8.81,8.81,0,0,1,.25-1.36l2.11-8.82h-2.11l.57-2.21L121,136l2-3.92h3.42l-1,3.89h3.76l-.84,3.49h-3.8l-2.19,9.19a6.21,6.21,0,0,0-.14.62,3.15,3.15,0,0,0-.06.56,1,1,0,0,0,.31.82,1.37,1.37,0,0,0,.89.25,5.52,5.52,0,0,0,1-.12,11.13,11.13,0,0,0,1.27-.31l0,3.35a7.51,7.51,0,0,1-2,.59A15.26,15.26,0,0,1,121.34,154.54Z" transform="translate(-2.97)"/><path class="cls-2" d="M128.83,154.21l4.45-18.29h4.92l-4.46,18.29Zm7.68-20.67a3.08,3.08,0,0,1-1.73-.44,1.51,1.51,0,0,1-.65-1.34,3.23,3.23,0,0,1,.34-1.46,2.62,2.62,0,0,1,1.08-1.11,3.58,3.58,0,0,1,1.8-.42,3,3,0,0,1,1.67.42,1.48,1.48,0,0,1,.64,1.33,2.92,2.92,0,0,1-3.15,3Z" transform="translate(-2.97)"/><path class="cls-2" d="M142.15,154.21l-1.07-18.29H146l.07,8.86a7.83,7.83,0,0,1,0,1.19c0,.46,0,.92,0,1.39a5.71,5.71,0,0,1-.11,1.24h.19c.1-.33.21-.67.33-1a8.53,8.53,0,0,1,.4-1c.15-.33.29-.62.42-.89l4.8-9.8h5.23l-9.87,18.29Z" transform="translate(-2.97)"/><path class="cls-2" d="M163.55,154.54a7.86,7.86,0,0,1-3.48-.72,5.16,5.16,0,0,1-2.28-2.1,6.47,6.47,0,0,1-.81-3.35,17,17,0,0,1,.65-4.68,13.48,13.48,0,0,1,1.94-4.08,10.08,10.08,0,0,1,3.21-2.92,8.72,8.72,0,0,1,4.45-1.1,6.31,6.31,0,0,1,4.07,1.2,4,4,0,0,1,1.5,3.26,5.34,5.34,0,0,1-1.23,3.54,7.56,7.56,0,0,1-3.51,2.21,17.93,17.93,0,0,1-5.55.76H162q-.07.36-.12.75c0,.26,0,.52,0,.79a3.1,3.1,0,0,0,.73,2.26,2.82,2.82,0,0,0,2.15.76,9.06,9.06,0,0,0,2.4-.3,18.49,18.49,0,0,0,2.51-.94v3.29a11.65,11.65,0,0,1-2.88,1.05A14.64,14.64,0,0,1,163.55,154.54Zm-.58-11a9.18,9.18,0,0,0,3.07-.42,3.28,3.28,0,0,0,1.65-1.14,2.68,2.68,0,0,0,.5-1.59,1.43,1.43,0,0,0-.4-1.09,1.68,1.68,0,0,0-1.21-.39,2.6,2.6,0,0,0-1.54.57,5.32,5.32,0,0,0-1.36,1.6,10.84,10.84,0,0,0-1,2.46Z" transform="translate(-2.97)"/><path class="cls-2" d="M186.32,154.21l-.73-24h5.18l0,13.89c0,.47,0,1,0,1.46s-.07,1-.12,1.53-.1,1.05-.15,1.61h.07c.18-.47.36-.94.52-1.41s.36-1,.56-1.46a13.65,13.65,0,0,1,.73-1.49L199,130.25h5.34l-12.21,24Z" transform="translate(-2.97)"/><path class="cls-2" d="M201.68,154.21l4.46-18.29h4.91l-4.45,18.29Zm7.68-20.67a3.08,3.08,0,0,1-1.73-.44,1.51,1.51,0,0,1-.65-1.34,3.24,3.24,0,0,1,.35-1.46,2.65,2.65,0,0,1,1.07-1.11,3.59,3.59,0,0,1,1.81-.42,3,3,0,0,1,1.67.42,1.49,1.49,0,0,1,.63,1.33,3,3,0,0,1-.82,2.15A3.08,3.08,0,0,1,209.36,133.54Z" transform="translate(-2.97)"/><path class="cls-2" d="M217.23,154.54A4.16,4.16,0,0,1,213.3,152a7.3,7.3,0,0,1-.6-3.14,17.59,17.59,0,0,1,.35-3.3,19.9,19.9,0,0,1,1-3.58,15.8,15.8,0,0,1,1.68-3.22,8.67,8.67,0,0,1,2.35-2.33,5.3,5.3,0,0,1,3-.89,4.94,4.94,0,0,1,1.73.29,4,4,0,0,1,1.35.82,4.63,4.63,0,0,1,1,1.31h.11c0-.29.06-.63.12-1s.11-.78.19-1.19.14-.77.19-1.06l1.5-6h4.91L226,154.21H222l.11-2.25H222a8.54,8.54,0,0,1-1.39,1.37,6.1,6.1,0,0,1-1.53.89A5,5,0,0,1,217.23,154.54Zm2.12-3.59a2.32,2.32,0,0,0,1.42-.5,4.7,4.7,0,0,0,1.13-1.31,11.1,11.1,0,0,0,.86-1.83,17.46,17.46,0,0,0,.64-2.06,17.66,17.66,0,0,0,.36-2,13.27,13.27,0,0,0,.12-1.59,3.15,3.15,0,0,0-.44-1.8,1.51,1.51,0,0,0-1.29-.62,2.15,2.15,0,0,0-1.5.67,6.43,6.43,0,0,0-1.21,1.71,16.55,16.55,0,0,0-.9,2.29,17,17,0,0,0-.58,2.45,14.67,14.67,0,0,0-.19,2.11,3.44,3.44,0,0,0,.41,1.84A1.27,1.27,0,0,0,219.35,151Z" transform="translate(-2.97)"/><path class="cls-2" d="M238.66,154.54a7.82,7.82,0,0,1-3.47-.72,5.24,5.24,0,0,1-2.29-2.1,6.57,6.57,0,0,1-.8-3.35,16.64,16.64,0,0,1,.65-4.68,13.25,13.25,0,0,1,1.94-4.08,10.08,10.08,0,0,1,3.21-2.92,8.72,8.72,0,0,1,4.45-1.1,6.32,6.32,0,0,1,4.07,1.2,4,4,0,0,1,1.5,3.26,5.34,5.34,0,0,1-1.23,3.54,7.56,7.56,0,0,1-3.51,2.21,18,18,0,0,1-5.55.76h-.5q-.07.36-.12.75c0,.26,0,.52,0,.79a3.15,3.15,0,0,0,.73,2.26,2.85,2.85,0,0,0,2.15.76,9,9,0,0,0,2.4-.3,18.57,18.57,0,0,0,2.52-.94v3.29a11.65,11.65,0,0,1-2.88,1.05A14.67,14.67,0,0,1,238.66,154.54Zm-.57-11a9.18,9.18,0,0,0,3.07-.42,3.28,3.28,0,0,0,1.65-1.14,2.68,2.68,0,0,0,.5-1.59,1.43,1.43,0,0,0-.4-1.09,1.69,1.69,0,0,0-1.21-.39,2.58,2.58,0,0,0-1.54.57,5.32,5.32,0,0,0-1.36,1.6,10.84,10.84,0,0,0-1,2.46Z" transform="translate(-2.97)"/><path class="cls-2" d="M256.44,154.54a6.26,6.26,0,0,1-4.58-1.64,6.09,6.09,0,0,1-1.67-4.56,17.29,17.29,0,0,1,.34-3.34,15.84,15.84,0,0,1,1.1-3.44,11.88,11.88,0,0,1,1.93-3,9,9,0,0,1,2.83-2.15,8.56,8.56,0,0,1,3.74-.78,6.78,6.78,0,0,1,3.36.77,5,5,0,0,1,2.13,2.16,7.07,7.07,0,0,1,.73,3.34,17.46,17.46,0,0,1-.36,3.46,15,15,0,0,1-1.15,3.42,13.58,13.58,0,0,1-1.94,3,8.39,8.39,0,0,1-2.77,2.08A8.62,8.62,0,0,1,256.44,154.54ZM257,151a2.16,2.16,0,0,0,1.48-.59,5.8,5.8,0,0,0,1.23-1.57,10.69,10.69,0,0,0,.92-2.2,19,19,0,0,0,.56-2.43,14.64,14.64,0,0,0,.19-2.3,5.47,5.47,0,0,0-.17-1.44,1.61,1.61,0,0,0-1.67-1.25,2.29,2.29,0,0,0-1.58.64,6.19,6.19,0,0,0-1.23,1.68,12.49,12.49,0,0,0-.9,2.27,17.65,17.65,0,0,0-.54,2.43,16.06,16.06,0,0,0-.17,2.15,3.39,3.39,0,0,0,.46,1.92A1.59,1.59,0,0,0,257,151Z" transform="translate(-2.97)"/><path class="cls-3" d="M166.47,29.39l-19.26-9.51v19Z" transform="translate(-2.97)"/><polyline class="cls-4" points="116.47 26.12 116.47 3.34 139.26 3.34"/><polyline class="cls-5" points="139.24 53.81 116.47 53.81 116.47 31.02"/><polyline class="cls-4" points="188.09 31.03 188.09 53.81 165.3 53.81"/><polyline class="cls-5" points="165.31 3.34 188.09 3.34 188.09 26.13"/></g></g></svg>