<svg xmlns="http://www.w3.org/2000/svg" viewBox="0 0 210.58 160.48"><defs><style>.cls-1{fill:#067dbe;}.cls-2{fill:#034861;}.cls-3{fill:#00c2f5;}</style></defs><g id="Layer_2" data-name="Layer 2"><g id="Layer_1-2" data-name="Layer 1"><path class="cls-1" d="M23.69,133.59h-6L7.07,113.79H6.93c0,.52.05,1.07.07,1.64s0,1.17.09,1.77L7.18,119c0,.62,0,1.23,0,1.84v12.73H3V108.35H8.91L19.52,128h.14c0-.47-.05-1-.07-1.53s-.05-1.13-.07-1.72-.05-1.19-.07-1.8,0-1.21,0-1.77V108.35h4.28Z" transform="translate(-2.97)"/><path class="cls-1" d="M41.83,133.59H28.21V108.35H41.83v3.78H33v6.43h8.31v3.79H33v7.42h8.88Z" transform="translate(-2.97)"/><path class="cls-1" d="M59.89,133.59,58,126.91H49.32l-1.94,6.68H42.29l8.48-25.35h5.69L65,133.59ZM54.8,116.51c-.09-.37-.22-.83-.37-1.36s-.3-1.08-.42-1.64-.26-1.1-.38-1.59c-.16.87-.35,1.71-.56,2.51s-.4,1.49-.57,2.08l-2,6.51h6.3Z" transform="translate(-2.97)"/><path class="cls-1" d="M73.58,108.35a14.18,14.18,0,0,1,5.18.81,6.1,6.1,0,0,1,3,2.46,7.83,7.83,0,0,1,1,4.15,7.53,7.53,0,0,1-.6,3.15,6.4,6.4,0,0,1-1.59,2.17,8.69,8.69,0,0,1-2.19,1.4l6.79,11.1H79.83l-5.48-10H71.28v10H66.54V108.35Zm-.22,3.78H71.28v7.78h2.15a6.32,6.32,0,0,0,2.57-.46,3.2,3.2,0,0,0,1.5-1.35,4.43,4.43,0,0,0,.5-2.19,4.3,4.3,0,0,0-.5-2.21A2.85,2.85,0,0,0,76,112.5,7.75,7.75,0,0,0,73.36,112.13Z" transform="translate(-2.97)"/><path class="cls-1" d="M101.05,126.7a7.17,7.17,0,0,1-1,3.85,6.54,6.54,0,0,1-3,2.51,11.83,11.83,0,0,1-4.86.88,19,19,0,0,1-2.58-.16,13.54,13.54,0,0,1-2.25-.47,15.08,15.08,0,0,1-2-.78v-4.24a32.77,32.77,0,0,0,3.45,1.29,12.05,12.05,0,0,0,3.63.58,5,5,0,0,0,2.19-.41,2.71,2.71,0,0,0,1.25-1.13,3.37,3.37,0,0,0,.41-1.68,3.1,3.1,0,0,0-.51-1.8,5.09,5.09,0,0,0-1.58-1.38,19.09,19.09,0,0,0-2.76-1.31,17.11,17.11,0,0,1-2.93-1.59,6.54,6.54,0,0,1-2.12-2.37,7.52,7.52,0,0,1-.78-3.6,6.57,6.57,0,0,1,1-3.72,6.43,6.43,0,0,1,2.86-2.36A10.38,10.38,0,0,1,93.8,108a15.43,15.43,0,0,1,3.75.43,14.67,14.67,0,0,1,3.25,1.2l-1.49,3.64a18.14,18.14,0,0,0-2.86-1.06,10.43,10.43,0,0,0-2.79-.39,4,4,0,0,0-1.84.37,2.49,2.49,0,0,0-1.11,1,3.16,3.16,0,0,0-.38,1.56,3,3,0,0,0,.48,1.73,4.61,4.61,0,0,0,1.56,1.33c.72.41,1.64.89,2.77,1.43a19.2,19.2,0,0,1,3.2,1.8,6.49,6.49,0,0,1,2,2.3A7.26,7.26,0,0,1,101.05,126.7Z" transform="translate(-2.97)"/><path class="cls-1" d="M123.18,133.59h-4.77V122.38h-9.76v11.21h-4.74V108.35h4.74v10.18h9.76V108.35h4.77Z" transform="translate(-2.97)"/><path class="cls-1" d="M149.13,120.93a19.1,19.1,0,0,1-.69,5.32,11.75,11.75,0,0,1-2.07,4.12,8.82,8.82,0,0,1-3.5,2.65,14,14,0,0,1-10,0,9.12,9.12,0,0,1-3.5-2.66,11.53,11.53,0,0,1-2.07-4.11,19.4,19.4,0,0,1-.69-5.34,17.62,17.62,0,0,1,1.22-6.83,9.57,9.57,0,0,1,3.73-4.5,11.5,11.5,0,0,1,6.36-1.61,11.29,11.29,0,0,1,6.3,1.61,9.67,9.67,0,0,1,3.69,4.52A17.7,17.7,0,0,1,149.13,120.93Zm-17.5,0a16.55,16.55,0,0,0,.64,4.92,6.18,6.18,0,0,0,2,3.14,5.65,5.65,0,0,0,3.59,1.1,5.57,5.57,0,0,0,3.57-1.1,6.22,6.22,0,0,0,2-3.14,16.55,16.55,0,0,0,.64-4.92,13.15,13.15,0,0,0-1.45-6.72,5.1,5.1,0,0,0-4.74-2.43,5.7,5.7,0,0,0-3.62,1.09,6.17,6.17,0,0,0-2,3.15A16.43,16.43,0,0,0,131.63,120.93Z" transform="translate(-2.97)"/><path class="cls-1" d="M159.63,108.35a14.15,14.15,0,0,1,5.18.81,6,6,0,0,1,3,2.46,7.83,7.83,0,0,1,1,4.15,7.53,7.53,0,0,1-.6,3.15,6.4,6.4,0,0,1-1.59,2.17,8.57,8.57,0,0,1-2.2,1.4l6.79,11.1h-5.37l-5.48-10h-3.08v10h-4.74V108.35Zm-.21,3.78h-2.09v7.78h2.16a6.27,6.27,0,0,0,2.56-.46,3.22,3.22,0,0,0,1.51-1.35,4.43,4.43,0,0,0,.49-2.19,4.31,4.31,0,0,0-.49-2.21,2.85,2.85,0,0,0-1.52-1.2A7.79,7.79,0,0,0,159.42,112.13Z" transform="translate(-2.97)"/><path class="cls-1" d="M186.47,133.59H172.85V108.35h13.62v3.78h-8.88v6.43h8.31v3.79h-8.31v7.42h8.88Z" transform="translate(-2.97)"/><path class="cls-2" d="M102.1,160.48a7.79,7.79,0,0,1-4-1,6.05,6.05,0,0,1-2.48-2.8,10.52,10.52,0,0,1-.83-4.35,21.19,21.19,0,0,1,.5-4.47,20.22,20.22,0,0,1,1.54-4.45,17.36,17.36,0,0,1,2.55-3.88,11.44,11.44,0,0,1,3.54-2.73,9.94,9.94,0,0,1,4.51-1,14.53,14.53,0,0,1,3.36.37,10.32,10.32,0,0,1,2.9,1.21L111.35,141a9.05,9.05,0,0,0-1.9-.94,5.63,5.63,0,0,0-2-.34,4.47,4.47,0,0,0-2.71.89,8,8,0,0,0-2.09,2.32,15,15,0,0,0-1.46,3.1,21.22,21.22,0,0,0-.87,3.3,16.72,16.72,0,0,0-.29,2.81,5.63,5.63,0,0,0,.83,3.4,2.94,2.94,0,0,0,2.51,1.09,8.93,8.93,0,0,0,2.39-.32,22.69,22.69,0,0,0,2.42-.79l0,3.93a16.68,16.68,0,0,1-2.83.77A17.44,17.44,0,0,1,102.1,160.48Z" transform="translate(-2.97)"/><path class="cls-2" d="M119.69,160.48a7.89,7.89,0,0,1-3.48-.72,5.25,5.25,0,0,1-2.28-2.09,6.53,6.53,0,0,1-.81-3.36,17,17,0,0,1,.65-4.68,13.48,13.48,0,0,1,1.94-4.08,10.19,10.19,0,0,1,3.21-2.92,8.86,8.86,0,0,1,4.46-1.1,6.29,6.29,0,0,1,4.07,1.21,4,4,0,0,1,1.49,3.25,5.3,5.3,0,0,1-1.23,3.54,7.51,7.51,0,0,1-3.51,2.21,17.59,17.59,0,0,1-5.55.76h-.5a6.16,6.16,0,0,0-.11.75,6.85,6.85,0,0,0,0,.79,3.15,3.15,0,0,0,.73,2.27,2.85,2.85,0,0,0,2.15.75,9.06,9.06,0,0,0,2.4-.3,18,18,0,0,0,2.51-.94v3.29a11.37,11.37,0,0,1-2.88,1A14.58,14.58,0,0,1,119.69,160.48Zm-.58-11a9.14,9.14,0,0,0,3.07-.42,3.36,3.36,0,0,0,1.66-1.14,2.77,2.77,0,0,0,.49-1.6,1.43,1.43,0,0,0-.4-1.09,1.67,1.67,0,0,0-1.21-.38,2.55,2.55,0,0,0-1.53.57,5.16,5.16,0,0,0-1.37,1.59,11.71,11.71,0,0,0-1,2.47Z" transform="translate(-2.97)"/><path class="cls-2" d="M130.13,160.15l6.23-25.5h4.91l-6.22,25.5Z" transform="translate(-2.97)"/><path class="cls-2" d="M140.08,160.15l6.22-25.5h4.92L145,160.15Z" transform="translate(-2.97)"/><path class="cls-2" d="M155.6,160.48a5.12,5.12,0,0,1-2.42-.52,3.29,3.29,0,0,1-1.48-1.47,5,5,0,0,1-.48-2.27,12.15,12.15,0,0,1,.11-1.47,15.31,15.31,0,0,1,.31-1.61l2.73-11.28h4.91l-2.57,10.81c-.1.47-.2.92-.29,1.36a5.7,5.7,0,0,0-.13,1.15,1.73,1.73,0,0,0,.36,1.16,1.34,1.34,0,0,0,1.06.42,2.29,2.29,0,0,0,1.67-.76,6.3,6.3,0,0,0,1.3-2.11,20.9,20.9,0,0,0,1-3l2.19-9h4.92l-4.42,18.29h-3.88l.2-2.55h-.12a9.45,9.45,0,0,1-1.38,1.51,5.64,5.64,0,0,1-1.65,1A5,5,0,0,1,155.6,160.48Z" transform="translate(-2.97)"/><path class="cls-2" d="M169.42,160.15l6.22-25.5h4.92l-6.22,25.5Z" transform="translate(-2.97)"/><path class="cls-2" d="M184.94,160.48a4.36,4.36,0,0,1-2.36-.63A4.42,4.42,0,0,1,181,158a7.27,7.27,0,0,1-.59-3.14,18.08,18.08,0,0,1,.34-3.33,19.87,19.87,0,0,1,1-3.59,14.87,14.87,0,0,1,1.71-3.21,8.31,8.31,0,0,1,2.4-2.3,5.79,5.79,0,0,1,3.11-.85,4.79,4.79,0,0,1,1.71.28,3.37,3.37,0,0,1,1.3.88,5.13,5.13,0,0,1,1,1.45H193l.92-2.28h4.11l-4.45,18.29H189.7l.11-2.38h-.11a12.21,12.21,0,0,1-1.36,1.41,6,6,0,0,1-1.54.95A4.6,4.6,0,0,1,184.94,160.48Zm2.07-3.62a2.33,2.33,0,0,0,1.77-.84,7.73,7.73,0,0,0,1.32-2.08,14.74,14.74,0,0,0,.87-2.52,16.92,16.92,0,0,0,.5-2.24,14.9,14.9,0,0,0,.11-1.68,2.74,2.74,0,0,0-.46-1.71,1.56,1.56,0,0,0-1.31-.61,2.09,2.09,0,0,0-1.44.63,6.22,6.22,0,0,0-1.21,1.62,14.63,14.63,0,0,0-.94,2.25,16.13,16.13,0,0,0-.59,2.45,13.84,13.84,0,0,0-.19,2.21,3.65,3.65,0,0,0,.38,1.9A1.31,1.31,0,0,0,187,156.86Z" transform="translate(-2.97)"/><path class="cls-2" d="M198.69,160.15l4.45-18.29h3.8l-.31,3h.2a10.44,10.44,0,0,1,1.48-1.88,4.77,4.77,0,0,1,1.63-1.09,5.57,5.57,0,0,1,2-.35,5,5,0,0,1,.77.05,6.34,6.34,0,0,1,.81.15l-1.38,4.46a7.23,7.23,0,0,0-.79-.17,7.07,7.07,0,0,0-.94-.06,3.47,3.47,0,0,0-1.65.4,4,4,0,0,0-1.33,1.12,8.35,8.35,0,0,0-1,1.66,12.29,12.29,0,0,0-.69,2l-2.19,9Z" transform="translate(-2.97)"/><path class="cls-3" d="M147.72,32.64a17.73,17.73,0,1,0,22.79,22.8h7.37a24.76,24.76,0,1,1-30.16-30.17Z" transform="translate(-2.97)"/><path class="cls-2" d="M153.89,24.49a24.79,24.79,0,0,1,24.77,24.77v.25h-7a2.09,2.09,0,0,0,0-.25,17.72,17.72,0,0,0-17.73-17.72h-.25v-7h.25" transform="translate(-2.97)"/><path class="cls-2" d="M153.89,0a49.27,49.27,0,0,1,49.26,49.26v.15h-7v-.15A42.22,42.22,0,0,0,153.89,7Z" transform="translate(-2.97)"/><path class="cls-2" d="M153.89,12.25a37,37,0,0,1,37,37c0,.05,0,.1,0,.15h-7v-.15a30,30,0,0,0-30-30Z" transform="translate(-2.97)"/><circle class="cls-1" cx="150.91" cy="49.02" r="7.81"/></g></g></svg>