<svg xmlns="http://www.w3.org/2000/svg" viewBox="0 0 37.84 53.71"><defs><style>.cls-1{fill:#034861;}.cls-2{fill:#067dbe;}</style></defs><g id="Layer_2" data-name="Layer 2"><g id="Layer_1-2" data-name="Layer 1"><path class="cls-1" d="M31.15,46.7l0-.07-9.06-22.8a5.79,5.79,0,1,0-6.17,0L6.83,46.63l0,.07L4.71,52a1.28,1.28,0,0,0,.72,1.66,1.09,1.09,0,0,0,.47.09,1.28,1.28,0,0,0,1.19-.8l1.78-4.48H29.08l1.78,4.48a1.28,1.28,0,0,0,1.19.8,1.09,1.09,0,0,0,.47-.09A1.28,1.28,0,0,0,33.24,52ZM15.63,31.39h6.69l2.37,6H13.26ZM19,15.62a3.27,3.27,0,1,1-3.24,3.27A3.26,3.26,0,0,1,19,15.62Zm0,9.09a4.63,4.63,0,0,0,.65,0l1.65,4.17H16.65l1.65-4.17C18.53,24.69,18.76,24.71,19,24.71ZM9.88,45.87l2.36-5.94H25.7l2.37,5.94Z"/><path class="cls-2" d="M27.16,26.71A1.28,1.28,0,0,0,29,26.44,12.45,12.45,0,0,0,19,6.57h0A12.46,12.46,0,0,0,9,26.49,1.25,1.25,0,0,0,10,27a1.27,1.27,0,0,0,1-2,9.9,9.9,0,1,1,15.87,0A1.28,1.28,0,0,0,27.16,26.71Z"/><path class="cls-2" d="M36.59,12.18A18.91,18.91,0,0,0,18.92,0h-.06A18.9,18.9,0,0,0,.58,23.53a18.82,18.82,0,0,0,5.87,9.61,1.32,1.32,0,0,0,.85.32,1.28,1.28,0,0,0,.84-2.24A16.36,16.36,0,0,1,18.87,2.56h.05A16.35,16.35,0,0,1,29.77,31.15a1.28,1.28,0,1,0,1.7,1.91,18.89,18.89,0,0,0,5.12-20.88Z"/></g></g></svg>