<svg xmlns="http://www.w3.org/2000/svg" viewBox="0 0 55.69 35.43"><defs><style>.cls-1{fill:#034861;}.cls-2{fill:#0e7dbd;}.cls-3{fill:#067dbe;}</style></defs><g id="Layer_2" data-name="Layer 2"><g id="Layer_1-2" data-name="Layer 1"><path class="cls-1" d="M0,17.41v8.22H40.79V17.41Zm4.85,6.31H2.66v-4.4H4.85Zm4.1,0H6.76v-4.4H9Zm4.11,0H10.87v-4.4h2.19Zm4.1,0H15v-4.4h2.19Zm11.77.7a1.26,1.26,0,1,1,1.26-1.26A1.25,1.25,0,0,1,28.93,24.42Zm4,0a1.26,1.26,0,1,1,1.26-1.26A1.25,1.25,0,0,1,32.9,24.42Zm4,0a1.26,1.26,0,1,1,1.26-1.26A1.25,1.25,0,0,1,36.87,24.42Z"/><path class="cls-2" d="M0,7.12v8.21H40.79V7.12Zm4.85,6.3H2.66V9H4.85Zm4.1,0H6.76V9H9Zm4.11,0H10.87V9h2.19Zm4.1,0H15V9h2.19Zm11.77.7a1.26,1.26,0,1,1,1.26-1.26A1.25,1.25,0,0,1,28.93,14.12Zm4,0a1.26,1.26,0,1,1,1.26-1.26A1.25,1.25,0,0,1,32.9,14.12Zm4,0a1.26,1.26,0,1,1,1.26-1.26A1.25,1.25,0,0,1,36.87,14.12Z"/><path class="cls-1" d="M0,27.21v8.22H40.79V27.21Zm4.85,6.31H2.66v-4.4H4.85Zm4.1,0H6.76v-4.4H9Zm4.11,0H10.87v-4.4h2.19Zm4.1,0H15v-4.4h2.19Zm11.77.7A1.26,1.26,0,1,1,30.19,33,1.25,1.25,0,0,1,28.93,34.22Zm4,0A1.26,1.26,0,1,1,34.16,33,1.25,1.25,0,0,1,32.9,34.22Zm4,0A1.26,1.26,0,1,1,38.13,33,1.25,1.25,0,0,1,36.87,34.22Z"/><path class="cls-1" d="M54.89,3.22,48.45.14a1.33,1.33,0,0,0-1.2,0L40.81,3.22A1.39,1.39,0,0,0,40,4.48c0,4.38.83,8,2.39,10.6,1.43,2.33,3.41,3.67,5.45,3.67s4-1.34,5.45-3.67c1.56-2.56,2.39-6.22,2.39-10.6A1.39,1.39,0,0,0,54.89,3.22ZM52,14.31c-1.15,1.88-2.68,3-4.19,3s-3-1.08-4.19-3c-1.42-2.32-2.17-5.7-2.17-9.78l6.36-3.05,6.36,3.05C54.21,8.61,53.46,12,52,14.31Z"/><path class="cls-3" d="M47.85,2.84,42.48,5.41a16.13,16.13,0,0,0,1.84,8.25c1,1.59,2.25,2.5,3.53,2.5s2.56-.91,3.53-2.5a16.13,16.13,0,0,0,1.84-8.25Zm3.39,4.6L49.86,9.21,47.62,12.1c-.42.54-.76.53-1.16,0-.66-.91-1.32-1.82-2-2.72a.57.57,0,1,1,.84-.77l1.45,1.26.24.22.26-.24q1.53-1.54,3.07-3.07a1,1,0,0,1,.4-.26.5.5,0,0,1,.59.26A.58.58,0,0,1,51.24,7.44Z"/></g></g></svg>