<svg xmlns="http://www.w3.org/2000/svg" viewBox="0 0 203.99 162.16"><defs><style>.cls-1,.cls-4{fill:#067dbe;}.cls-2,.cls-3{fill:#034861;}.cls-3,.cls-4,.cls-5,.cls-6{fill-rule:evenodd;}.cls-5{fill:#00c2f5;}.cls-6{fill:#004685;}</style></defs><g id="Layer_2" data-name="Layer 2"><g id="Layer_1-2" data-name="Layer 1"><path class="cls-1" d="M23.69,135.27h-6L7.07,115.47H6.93c0,.52.05,1.06.07,1.64s0,1.17.09,1.77l.09,1.82c0,.61,0,1.22,0,1.84v12.73H3V110H8.91l10.61,19.66h.14c0-.47-.05-1-.07-1.54s-.05-1.12-.07-1.71-.05-1.19-.07-1.81,0-1.2,0-1.76V110h4.28Z" transform="translate(-2.97)"/><path class="cls-1" d="M41.83,135.27H28.21V110H41.83v3.78H33v6.44h8.31V124H33v7.43h8.88Z" transform="translate(-2.97)"/><path class="cls-1" d="M59.89,135.27,58,128.58H49.32l-1.94,6.69H42.29l8.48-25.35h5.69L65,135.27ZM54.8,118.19c-.09-.38-.22-.83-.37-1.36s-.3-1.08-.42-1.65-.26-1.09-.38-1.59c-.16.87-.35,1.71-.56,2.51s-.4,1.5-.57,2.09l-2,6.5h6.3Z" transform="translate(-2.97)"/><path class="cls-1" d="M73.58,110a13.86,13.86,0,0,1,5.17.82,6.05,6.05,0,0,1,3,2.45,7.77,7.77,0,0,1,1,4.16,7.49,7.49,0,0,1-.6,3.14,6.44,6.44,0,0,1-1.59,2.18,8.65,8.65,0,0,1-2.19,1.39l6.79,11.11H79.83l-5.48-10H71.28v10H66.54V110Zm-.22,3.78H71.28v7.78h2.15a6.16,6.16,0,0,0,2.57-.46,3.13,3.13,0,0,0,1.5-1.34,4.43,4.43,0,0,0,.49-2.19,4.28,4.28,0,0,0-.49-2.21,2.76,2.76,0,0,0-1.52-1.2A7.76,7.76,0,0,0,73.36,113.8Z" transform="translate(-2.97)"/><path class="cls-1" d="M101.05,128.37a7.15,7.15,0,0,1-1,3.85,6.5,6.5,0,0,1-3,2.52,12,12,0,0,1-4.86.88,19,19,0,0,1-2.58-.16,13.75,13.75,0,0,1-2.25-.48,15,15,0,0,1-2-.77V130a32.77,32.77,0,0,0,3.45,1.29,12.07,12.07,0,0,0,3.63.59,5.12,5.12,0,0,0,2.19-.41,2.77,2.77,0,0,0,1.25-1.13,3.37,3.37,0,0,0,.41-1.68,3.08,3.08,0,0,0-.51-1.8,5,5,0,0,0-1.58-1.38,18.09,18.09,0,0,0-2.76-1.31,17.11,17.11,0,0,1-2.93-1.59,6.62,6.62,0,0,1-2.12-2.37,7.56,7.56,0,0,1-.78-3.61,6.56,6.56,0,0,1,1-3.71,6.38,6.38,0,0,1,2.86-2.37,10.54,10.54,0,0,1,4.28-.81,16,16,0,0,1,3.75.42,15.74,15.74,0,0,1,3.25,1.2l-1.49,3.65a17.2,17.2,0,0,0-2.86-1.06,10.43,10.43,0,0,0-2.79-.39,4,4,0,0,0-1.84.37,2.44,2.44,0,0,0-1.11,1,3.16,3.16,0,0,0-.38,1.56,3,3,0,0,0,.48,1.73,4.59,4.59,0,0,0,1.56,1.32c.71.42,1.64.89,2.77,1.44a17.88,17.88,0,0,1,3.2,1.8,6.4,6.4,0,0,1,2,2.3A7.19,7.19,0,0,1,101.05,128.37Z" transform="translate(-2.97)"/><path class="cls-1" d="M123.18,135.27h-4.77V124.06h-9.76v11.21h-4.74V110h4.74V120.2h9.76V110h4.77Z" transform="translate(-2.97)"/><path class="cls-1" d="M149.13,122.61a19.15,19.15,0,0,1-.69,5.32,11.83,11.83,0,0,1-2.07,4.12,8.91,8.91,0,0,1-3.5,2.65,12.47,12.47,0,0,1-5,.92,12.22,12.22,0,0,1-5-.94,9.1,9.1,0,0,1-3.5-2.65,11.58,11.58,0,0,1-2.07-4.12,19.3,19.3,0,0,1-.69-5.34,17.38,17.38,0,0,1,1.22-6.82,9.6,9.6,0,0,1,3.73-4.51,11.59,11.59,0,0,1,6.36-1.61,11.37,11.37,0,0,1,6.3,1.61,9.65,9.65,0,0,1,3.69,4.53A17.67,17.67,0,0,1,149.13,122.61Zm-17.5,0a16.43,16.43,0,0,0,.64,4.91,6.17,6.17,0,0,0,2,3.15,5.63,5.63,0,0,0,3.59,1.1,5.57,5.57,0,0,0,3.57-1.1,6.2,6.2,0,0,0,2-3.15,16.43,16.43,0,0,0,.64-4.91,13.15,13.15,0,0,0-1.45-6.72,5.09,5.09,0,0,0-4.74-2.44,5.7,5.7,0,0,0-3.62,1.1,6.18,6.18,0,0,0-2,3.14A16.55,16.55,0,0,0,131.63,122.61Z" transform="translate(-2.97)"/><path class="cls-1" d="M159.63,110a13.89,13.89,0,0,1,5.18.82,6.05,6.05,0,0,1,3,2.45,7.86,7.86,0,0,1,1,4.16,7.49,7.49,0,0,1-.6,3.14,6.44,6.44,0,0,1-1.59,2.18,8.53,8.53,0,0,1-2.2,1.39l6.79,11.11h-5.37l-5.48-10h-3.08v10h-4.74V110Zm-.21,3.78h-2.09v7.78h2.16a6.11,6.11,0,0,0,2.56-.46,3.2,3.2,0,0,0,1.51-1.34,4.55,4.55,0,0,0,.49-2.19,4.39,4.39,0,0,0-.49-2.21,2.79,2.79,0,0,0-1.52-1.2A7.76,7.76,0,0,0,159.42,113.8Z" transform="translate(-2.97)"/><path class="cls-1" d="M186.47,135.27H172.85V110h13.62v3.78h-8.88v6.44h8.31V124h-8.31v7.43h8.88Z" transform="translate(-2.97)"/><path class="cls-2" d="M95.74,161.82l12.26-24h6.41l.77,24H110l0-6h-6l-2.76,6ZM105.88,152h4.23l.07-6.91c0-.58,0-1.15,0-1.7a10.93,10.93,0,0,1,.1-1.69h-.12c-.15.51-.33,1-.53,1.56s-.44,1.08-.69,1.66Z" transform="translate(-2.97)"/><path class="cls-2" d="M123.89,162.16a4.35,4.35,0,0,1-3.13-1,3.79,3.79,0,0,1-1-2.83c0-.34,0-.71.09-1.13a8.6,8.6,0,0,1,.25-1.36l2.12-8.82h-2.12l.58-2.22,2.84-1.24,2-3.92H129l-1,3.89h3.77l-.85,3.49h-3.8l-2.19,9.19c-.05.2-.09.41-.13.62a3.06,3.06,0,0,0-.06.56,1,1,0,0,0,.31.82,1.4,1.4,0,0,0,.88.25,5.61,5.61,0,0,0,1-.12,10.59,10.59,0,0,0,1.26-.32l0,3.36a7.69,7.69,0,0,1-2,.59A15.16,15.16,0,0,1,123.89,162.16Z" transform="translate(-2.97)"/><path class="cls-2" d="M131.42,161.82l6.18-25.49h4.92l-1.31,5.26c-.1.36-.2.74-.3,1.13s-.21.77-.33,1.14-.23.71-.34,1-.22.6-.29.82h.11a7.36,7.36,0,0,1,1.27-1.38,5,5,0,0,1,1.54-.87,5.31,5.31,0,0,1,1.8-.3,4.9,4.9,0,0,1,2.38.52,3.35,3.35,0,0,1,1.44,1.49,5.19,5.19,0,0,1,.48,2.32,9.14,9.14,0,0,1-.13,1.46c-.09.55-.2,1.09-.33,1.63l-2.69,11.23h-4.91l2.53-10.66q.19-.71.33-1.38a6.3,6.3,0,0,0,.13-1.24,1.73,1.73,0,0,0-.36-1.16,1.43,1.43,0,0,0-1.13-.42,2.21,2.21,0,0,0-1.5.61,5.47,5.47,0,0,0-1.27,1.82,15.58,15.58,0,0,0-1,3.07l-2.3,9.36Z" transform="translate(-2.97)"/><path class="cls-2" d="M158.42,162.16a7.89,7.89,0,0,1-3.48-.72,5.27,5.27,0,0,1-2.28-2.1,6.49,6.49,0,0,1-.81-3.35,17,17,0,0,1,.65-4.68,13.72,13.72,0,0,1,1.94-4.08,10.08,10.08,0,0,1,3.21-2.92,8.76,8.76,0,0,1,4.46-1.11,6.35,6.35,0,0,1,4.07,1.21,4,4,0,0,1,1.49,3.26,5.38,5.38,0,0,1-1.22,3.54,7.59,7.59,0,0,1-3.52,2.21,17.91,17.91,0,0,1-5.55.75h-.5a6.32,6.32,0,0,0-.11.76,6.85,6.85,0,0,0,0,.79,3.12,3.12,0,0,0,.73,2.26,2.83,2.83,0,0,0,2.15.76,9.06,9.06,0,0,0,2.4-.3,20,20,0,0,0,2.52-.94v3.28a11.23,11.23,0,0,1-2.89,1.06A15.21,15.21,0,0,1,158.42,162.16Zm-.58-11a9.25,9.25,0,0,0,3.08-.42,3.38,3.38,0,0,0,1.65-1.14,2.75,2.75,0,0,0,.5-1.59,1.42,1.42,0,0,0-.41-1.09,1.68,1.68,0,0,0-1.21-.39,2.55,2.55,0,0,0-1.53.57,5.09,5.09,0,0,0-1.37,1.6,11.32,11.32,0,0,0-1,2.46Z" transform="translate(-2.97)"/><path class="cls-2" d="M168.87,161.82l4.45-18.28h3.88l-.23,2.58h.11a8.79,8.79,0,0,1,1.41-1.54,6.1,6.1,0,0,1,1.65-1,5.06,5.06,0,0,1,1.9-.37,5.76,5.76,0,0,1,2.28.44A3.31,3.31,0,0,1,185.9,145a4.8,4.8,0,0,1,.56,2.45,9,9,0,0,1-.12,1.38c-.08.51-.18,1.07-.31,1.68l-2.72,11.3h-5l2.57-10.7c.13-.49.24-1,.33-1.42a6.31,6.31,0,0,0,.13-1.19,1.63,1.63,0,0,0-.36-1.16,1.42,1.42,0,0,0-1.09-.39,2.3,2.3,0,0,0-1.68.76,6.43,6.43,0,0,0-1.28,2.06,25.43,25.43,0,0,0-1,3l-2.19,9Z" transform="translate(-2.97)"/><path class="cls-2" d="M193.83,162.16a4.28,4.28,0,0,1-2.36-.64,4.33,4.33,0,0,1-1.62-1.89,7.46,7.46,0,0,1-.59-3.14,18.09,18.09,0,0,1,.34-3.34,20.11,20.11,0,0,1,1-3.59,15,15,0,0,1,1.71-3.2,8.31,8.31,0,0,1,2.4-2.3,5.8,5.8,0,0,1,3.11-.86,4.79,4.79,0,0,1,1.71.29,3.58,3.58,0,0,1,1.31.87,5.17,5.17,0,0,1,.94,1.46h.11l.92-2.28H207l-4.45,18.28h-3.92l.12-2.38h-.12a10.78,10.78,0,0,1-1.36,1.41,6.38,6.38,0,0,1-1.54,1A4.78,4.78,0,0,1,193.83,162.16Zm2.07-3.62a2.33,2.33,0,0,0,1.77-.84,7.73,7.73,0,0,0,1.32-2.08,15,15,0,0,0,.87-2.52,16.68,16.68,0,0,0,.5-2.25,14.59,14.59,0,0,0,.11-1.67,2.79,2.79,0,0,0-.46-1.72,1.55,1.55,0,0,0-1.3-.6,2.12,2.12,0,0,0-1.45.62,6.46,6.46,0,0,0-1.21,1.63,14.63,14.63,0,0,0-.94,2.25,17.09,17.09,0,0,0-.59,2.45,13.84,13.84,0,0,0-.19,2.21,3.68,3.68,0,0,0,.38,1.9A1.31,1.31,0,0,0,195.9,158.54Z" transform="translate(-2.97)"/><path class="cls-3" d="M144.49,66.11a34.09,34.09,0,0,0,13,2.38,32.6,32.6,0,0,0,5.76-.57c-.76-.24-1.52-.51-2.27-.8a38.25,38.25,0,0,1-23.83-29.93h0a20.24,20.24,0,0,1,1.19-10.33,20,20,0,0,1,6.18-8.34,19.49,19.49,0,0,1,2.08-1.46c-.5.06-1,.12-1.49.2A34.27,34.27,0,0,0,123,30.58a34.23,34.23,0,0,0,21.53,35.53Z" transform="translate(-2.97)"/><path class="cls-4" d="M135.66,7.46a34.3,34.3,0,0,0-8.54,10,33.8,33.8,0,0,0-2.39,5.28q.88-.81,1.83-1.56a38.18,38.18,0,0,1,37.83-5.67h0a20.29,20.29,0,0,1,8.36,6.2,20.08,20.08,0,0,1,4.35,12,34.35,34.35,0,0,0,.1-27.21,34.26,34.26,0,0,0-41.55.88Z" transform="translate(-2.97)"/><path class="cls-5" d="M190.87,29.14a34.17,34.17,0,0,0-4.42-12.43,33.54,33.54,0,0,0-3.38-4.7c.17.79.32,1.58.44,2.37a38.19,38.19,0,0,1-14,35.6,20.19,20.19,0,0,1-9.56,4.14A19.93,19.93,0,0,1,149.65,53a21.08,21.08,0,0,1-2.3-1.08c.29.4.59.79.9,1.18a34.29,34.29,0,0,0,22.62,12.51,34.23,34.23,0,0,0,20-36.42Z" transform="translate(-2.97)"/><path class="cls-6" d="M157.33,24.85a5.48,5.48,0,1,1-5.47,5.48A5.48,5.48,0,0,1,157.33,24.85Z" transform="translate(-2.97)"/><path class="cls-3" d="M157.33,25.91h0A3.08,3.08,0,0,1,160.4,29V42.17a3.08,3.08,0,0,1-3.07,3.07h0a3.08,3.08,0,0,1-3.07-3.07V29A3.08,3.08,0,0,1,157.33,25.91Z" transform="translate(-2.97)"/></g></g></svg>