<svg xmlns="http://www.w3.org/2000/svg" viewBox="0 0 789.85 34.1"><defs><style>.cls-1{isolation:isolate;}.cls-2{fill:#fff;}.cls-3{fill:none;stroke:#fff;stroke-miterlimit:10;stroke-width:1.48px;mix-blend-mode:overlay;}</style></defs><g class="cls-1"><g id="Layer_2" data-name="Layer 2"><g id="Layer_1-2" data-name="Layer 1"><circle class="cls-2" cx="15.73" cy="18.37" r="9.96" transform="translate(-8.43 17.29) rotate(-46.87)"/><path class="cls-2" d="M22.88,4.35l-.41-.2a15.58,15.58,0,0,0-4.38-1.34l-.46-.06a16.85,16.85,0,0,0-1.9-.12A15.75,15.75,0,0,0,9.54,3.9l-.42.19a15.72,15.72,0,0,0-8,20.17,3.25,3.25,0,0,0,.18.43,15.74,15.74,0,0,0,9.93,8.76l.45.13a15.71,15.71,0,0,0,4,.52,15.48,15.48,0,0,0,3.43-.38l.46-.1A15.71,15.71,0,0,0,27.29,29c.11-.11.21-.23.31-.35A15.7,15.7,0,0,0,31,22.27c0-.15.07-.3.11-.45a16.35,16.35,0,0,0,.38-3.45,15.6,15.6,0,0,0-.91-5.27c0-.15-.11-.29-.16-.44A15.84,15.84,0,0,0,22.88,4.35Zm2.66,23.83a13.88,13.88,0,1,1,4.06-9.81A13.81,13.81,0,0,1,25.54,28.18Z"/><line class="cls-3" x1="14.96" y1="17.15" x2="775.85" y2="17.49"/><circle class="cls-2" cx="774.12" cy="15.73" r="9.96" transform="translate(233.38 569.91) rotate(-46.87)"/><path class="cls-2" d="M781.27,1.72l-.42-.21A15.72,15.72,0,0,0,776.48.18L776,.12A14.75,14.75,0,0,0,774.12,0a15.57,15.57,0,0,0-6.19,1.27l-.43.19a15.76,15.76,0,0,0-8,20.17l.18.43a15.78,15.78,0,0,0,9.94,8.76l.45.13a15.65,15.65,0,0,0,4,.52,16.09,16.09,0,0,0,3.43-.38L778,31a15.68,15.68,0,0,0,7.68-4.57l.31-.35a15.79,15.79,0,0,0,3.38-6.43c0-.15.07-.3.1-.45a15.66,15.66,0,0,0,.38-3.45,15.89,15.89,0,0,0-.9-5.27c-.06-.14-.11-.29-.17-.43A15.74,15.74,0,0,0,781.27,1.72Zm2.66,23.82A13.87,13.87,0,1,1,788,15.73,13.85,13.85,0,0,1,783.93,25.54Z"/></g></g></g></svg>