<svg xmlns="http://www.w3.org/2000/svg" viewBox="0 0 111.63 59.52"><defs><style>.cls-1{fill:#00c2f5;}.cls-2{fill:#fff;}.cls-3{fill:#034861;}</style></defs><g id="Layer_2" data-name="Layer 2"><g id="Layer_1-2" data-name="Layer 1"><circle class="cls-1" cx="55.81" cy="29.76" r="16.15"/><path class="cls-2" d="M63.41,31,53.5,36.68A1.9,1.9,0,0,1,50.64,35V23.59a1.91,1.91,0,0,1,2.86-1.66l9.91,5.72A1.91,1.91,0,0,1,63.41,31Z"/><path class="cls-3" d="M95.36.9a3,3,0,0,0,0,4.3,34.74,34.74,0,0,1,0,49.13,3,3,0,0,0,4.31,4.3,40.81,40.81,0,0,0,0-57.74A3,3,0,0,0,95.36.9Z"/><path class="cls-3" d="M91.19,9.37a3,3,0,0,0-4.31,4.31,22.68,22.68,0,0,1,0,32.11,3,3,0,1,0,4.27,4.34,28.78,28.78,0,0,0,.06-40.76Z"/><path class="cls-3" d="M82.69,17.85a3,3,0,0,0-4.31,4.31,10.73,10.73,0,0,1,0,15.21,3,3,0,0,0,4.31,4.3,16.83,16.83,0,0,0,0-23.82Z"/><path class="cls-3" d="M16.27,58.63a3,3,0,0,0,0-4.31,34.73,34.73,0,0,1,0-49.12,3,3,0,0,0,0-4.31A3.05,3.05,0,0,0,12,.89a40.82,40.82,0,0,0,0,57.75A3,3,0,0,0,16.27,58.63Z"/><path class="cls-3" d="M20.44,50.15a3,3,0,0,0,4.31-4.3,22.69,22.69,0,0,1,0-32.12,3,3,0,0,0,0-4.3,3,3,0,0,0-4.3,0,28.78,28.78,0,0,0-.06,40.76Z"/><path class="cls-3" d="M28.94,41.67a3,3,0,0,0,4.31-4.3,10.73,10.73,0,0,1,0-15.21,3,3,0,0,0-4.31-4.31,16.83,16.83,0,0,0,0,23.82Z"/></g></g></svg>