<svg xmlns="http://www.w3.org/2000/svg" viewBox="0 0 56.61 58.84"><defs><style>.cls-1{fill:#034861;}.cls-2{fill:#067dbe;}</style></defs><g id="Layer_2" data-name="Layer 2"><g id="Layer_1-2" data-name="Layer 1"><path class="cls-1" d="M27,50h0L53.07,34.92h0a2.84,2.84,0,0,0,1.38-2.18,2.77,2.77,0,0,0-1-2.37h0a18.88,18.88,0,0,0-14.81-4.16L34,18.2l1.18-.68,2.34,4h0a2.8,2.8,0,0,0,1.69,1.3A3,3,0,0,0,40,23a2.76,2.76,0,0,0,1.34-.35l0,0,12-6.9h0A2.77,2.77,0,0,0,54.6,14a2.7,2.7,0,0,0-.27-2.1h0L48.25,1.39h0a2.78,2.78,0,0,0-3.79-1h0l-12,6.91h0a2.75,2.75,0,0,0-1,3.77h0l2.35,4.06-1.19.68L30.8,12.6h0A5.44,5.44,0,0,0,27.43,10a7.49,7.49,0,0,0-5.7.69c-3.15,1.82-4.49,5.81-2.94,8.73l0,0h0l1.85,3.21-1.2.69-2.34-4h0a2.76,2.76,0,0,0-3.77-1h0l-12,6.9h0A2.77,2.77,0,0,0,.08,27,2.81,2.81,0,0,0,.38,29h0L6.43,39.55h0s0,0,0,0l0,0a2.76,2.76,0,0,0,3.66,1l0,0,0,0h0l12-6.94h0a2.76,2.76,0,0,0,1-3.77h0l-2.34-4.05,1.2-.69,4.61,8A18.85,18.85,0,0,0,22.87,48h0a2.73,2.73,0,0,0,1.56,2,2.76,2.76,0,0,0,1.22.28A2.69,2.69,0,0,0,26.92,50L27,50ZM33.89,9.68l1.41-.82,6.05,10.51-1.39.8h0Zm5-2.88,6.06,10.5-1.61.93-6-10.51Zm3.6-2.08,6.06,10.5-1.62.94L40.86,5.65Zm3.36-1.94h0l6.06,10.5-1.39.8L44.46,3.58ZM20.79,31.24,19.4,32,13.33,21.55l1.4-.81Zm-5,2.88L9.74,23.62l1.61-.93,6.07,10.5Zm-3.6,2.08L6.15,25.69l1.61-.93,6.07,10.51Zm-3.37,2h0L2.78,27.65h0l1.38-.8,6.07,10.52Zm14.28-25a4.72,4.72,0,0,1,3.55-.43A2.73,2.73,0,0,1,28.38,14v0l7.42,12.87A19,19,0,0,0,32,28.53,19.44,19.44,0,0,0,28.65,31L21.24,18.15C20.39,16.54,21.27,14.2,23.12,13.14Zm6.22,21.14a1.07,1.07,0,0,0,.14-.16,15.94,15.94,0,0,1,3.91-3.18A16.19,16.19,0,0,1,38,29.16a1.25,1.25,0,0,0,.42-.08A16.08,16.08,0,0,1,51.68,32.5v0l-26,15,0,0A16.12,16.12,0,0,1,29.34,34.28Z"/><path class="cls-2" d="M39.33,47.92a6.66,6.66,0,0,0,3.35-.9,6.73,6.73,0,0,0,3.21-4.45,1.14,1.14,0,1,0-2.24-.46,4.42,4.42,0,0,1-5.71,3.3,1.14,1.14,0,1,0-.72,2.17A6.61,6.61,0,0,0,39.33,47.92Z"/><path class="cls-2" d="M34.8,51.21a1.15,1.15,0,0,0,.73,1.45,12.05,12.05,0,0,0,15.6-9,1.14,1.14,0,1,0-2.24-.46,9.76,9.76,0,0,1-12.64,7.3A1.14,1.14,0,0,0,34.8,51.21Z"/><path class="cls-2" d="M55.7,43.41a1.15,1.15,0,0,0-1.35.89A15.34,15.34,0,0,1,34.49,55.77a1.14,1.14,0,1,0-.72,2.17A17.62,17.62,0,0,0,56.59,44.76,1.16,1.16,0,0,0,55.7,43.41Z"/></g></g></svg>