<svg xmlns="http://www.w3.org/2000/svg" viewBox="0 0 71.16 71.14"><defs><style>.cls-1{fill:#005691;}.cls-2{fill:#00c2f5;}</style></defs><g id="Layer_2" data-name="Layer 2"><g id="Layer_1-2" data-name="Layer 1"><path class="cls-1" d="M4.93,41.82H66.22a4.94,4.94,0,0,0,1-9.77,31.06,31.06,0,0,0-6.16-17.36A31.6,31.6,0,0,0,46.35,3.86V3.54A3.55,3.55,0,0,0,42.81,0H28.35a3.55,3.55,0,0,0-3.54,3.54v.32a31.48,31.48,0,0,0-11.74,7.4A31,31,0,0,0,4,32.05a4.93,4.93,0,0,0,1,9.77M15.05,13.24a28.57,28.57,0,0,1,9.76-6.38v19.4a1.41,1.41,0,1,0,2.81,0V3.54a.72.72,0,0,1,.73-.73h5.79V28.32a1.41,1.41,0,0,0,2.81,0V2.81h5.86a.73.73,0,0,1,.73.73V26.26a1.41,1.41,0,1,0,2.81,0V6.86a28.71,28.71,0,0,1,12.46,9.51A28.15,28.15,0,0,1,64.4,32H6.75a28.29,28.29,0,0,1,8.3-18.71M4.93,34.76H66.22a2.13,2.13,0,1,1,0,4.26H4.93a2.13,2.13,0,1,1,0-4.26"/><path class="cls-2" d="M69.76,51.89H65.21a5.86,5.86,0,0,0-5.73-4.69H11.8a5.86,5.86,0,0,0-5.73,4.69H1.52a1.4,1.4,0,0,0-1.4,1.4V62.6A1.4,1.4,0,0,0,1.52,64H6.07a8.56,8.56,0,0,0,8.42,7.14h7.89a11.47,11.47,0,0,0,7.68-3l4.56-4.1a1.53,1.53,0,0,1,2,0l4.56,4.1a11.47,11.47,0,0,0,7.69,3h7.88A8.56,8.56,0,0,0,65.21,64h4.55a1.4,1.4,0,0,0,1.4-1.4V53.29a1.4,1.4,0,0,0-1.4-1.4M2.93,54.69H6v6.5h-3Zm65.42,6.5h-3v-6.5h3Z"/></g></g></svg>