<svg xmlns="http://www.w3.org/2000/svg" viewBox="0 0 45.6 48.88"><defs><style>.cls-1{fill:#067dbe;}.cls-1,.cls-2,.cls-3,.cls-4,.cls-6{fill-rule:evenodd;}.cls-2,.cls-3,.cls-6{fill:none;stroke-miterlimit:10;}.cls-2,.cls-3{stroke:#067dbe;}.cls-2{stroke-width:0.85px;}.cls-3{stroke-width:1.71px;}.cls-4{fill:#024861;}.cls-5{fill:#9fb3bf;}.cls-6{stroke:#024861;stroke-width:2.56px;}</style></defs><g id="Layer_2" data-name="Layer 2"><g id="Layer_1-2" data-name="Layer 1"><path class="cls-1" d="M28.5,19,32,25.6,13.33,28.2c.65-3.09,1.16-5.58,1.59-7.64,1.73-8.37,9.67-9.11,13.58-1.6Z"/><path class="cls-2" d="M13.24,28.21l18.82-2.63a1.06,1.06,0,0,1,1.18.91h0a1,1,0,0,1-.89,1.17L13.53,30.29a1,1,0,0,1-1.17-.89h0a1.06,1.06,0,0,1,.88-1.19Z"/><path class="cls-3" d="M30.74,35c.41-2,.91-4.39,1.52-7.34l-18.64,2.6c1.48,2.8,2.65,5.07,3.62,6.91,4,7.58,11.8,6.12,13.5-2.17Z"/><path class="cls-1" d="M17.79,14l6-.84a.55.55,0,0,1,.61.48h0a.55.55,0,0,1-.46.63l-6,.84a.57.57,0,0,1-.63-.48h0a.57.57,0,0,1,.47-.63Z"/><path class="cls-4" d="M20.14,13.65l1.3-.18L19.64.57A.66.66,0,0,0,18.89,0h0a.66.66,0,0,0-.55.74Z"/><path class="cls-1" d="M18.34,1.94,20,1.71a.1.1,0,0,1,.12.09L21,8.36a.1.1,0,0,1-.09.12l-1.63.22a.1.1,0,0,1-.12-.09l-.91-6.55a.1.1,0,0,1,.09-.12Z"/><polygon class="cls-3" points="20.13 2.13 28 4.05 20.96 8.03 20.13 2.13"/><rect class="cls-5" x="19.48" y="8.59" width="1.31" height="0.6" transform="translate(-1.04 2.87) rotate(-7.95)"/><path class="cls-6" d="M.79,43.14a19.77,19.77,0,0,1,22.91,0s11,10,21,0"/></g></g></svg>