<svg xmlns="http://www.w3.org/2000/svg" viewBox="0 0 79.99 108.77"><defs><style>.cls-1{fill:#034861;}.cls-2{fill:#00c2f5;}.cls-3{fill:#067dbe;}</style></defs><g id="Layer_2" data-name="Layer 2"><g id="Layer_1-2" data-name="Layer 1"><path class="cls-1" d="M16.67,13.15a2.45,2.45,0,0,0,3.48,0,28.07,28.07,0,0,1,39.7,0,2.46,2.46,0,0,0,3.48-3.48,33,33,0,0,0-46.67,0A2.45,2.45,0,0,0,16.67,13.15Z"/><path class="cls-1" d="M23.52,16.52A2.46,2.46,0,0,0,27,20a18.34,18.34,0,0,1,26,0,2.46,2.46,0,1,0,3.51-3.45,23.26,23.26,0,0,0-32.94-.05Z"/><path class="cls-1" d="M30.37,23.39a2.46,2.46,0,1,0,3.48,3.48,8.68,8.68,0,0,1,12.29,0,2.46,2.46,0,0,0,3.48-3.48,13.6,13.6,0,0,0-19.25,0Z"/><path class="cls-2" d="M62.91,49.93h-6.5v-7H44L43,33H37l-1,9.94H23.58v7h-6.5L16,63.89l4.2-2.37.59-7.59H59.21l.59,7.59L64,63.89Zm-10.5,0H27.58v-3H52.41Z"/><path class="cls-1" d="M19.6,99.93c.1.11.24.29.4.46.15-.17.29-.35.38-.46,1.51-1.8,4.3-5.16,9.61-5.16s8.11,3.36,9.61,5.16l.39.46.39-.46c1.5-1.8,4.3-5.16,9.61-5.16s8.11,3.36,9.61,5.16c.09.12.24.29.39.47l.39-.47a13.35,13.35,0,0,1,6.25-4.65,197.86,197.86,0,0,1,7.71-21L40,55,5.65,74.3a200.1,200.1,0,0,1,7.72,21A13.34,13.34,0,0,1,19.6,99.93Z"/><path class="cls-3" d="M80,108.77c-3.43,0-5.23-2.15-6.53-3.71s-2-2.29-3.47-2.29-2.22.79-3.46,2.28-3.1,3.72-6.54,3.72-5.23-2.15-6.54-3.72-2-2.28-3.46-2.28-2.22.79-3.47,2.28-3.09,3.72-6.53,3.72-5.23-2.15-6.54-3.72-2-2.28-3.46-2.28-2.21.79-3.46,2.28-3.1,3.72-6.53,3.72-5.23-2.15-6.54-3.72-2-2.28-3.46-2.28-2.22.79-3.46,2.28-3.1,3.72-6.54,3.72v-4c1.49,0,2.21-.78,3.46-2.28s3.1-3.72,6.54-3.72,5.23,2.15,6.53,3.72,2,2.28,3.47,2.28,2.21-.78,3.46-2.28,3.1-3.72,6.53-3.72,5.23,2.15,6.54,3.72,2,2.28,3.46,2.28,2.21-.78,3.46-2.28,3.1-3.72,6.54-3.72,5.23,2.15,6.53,3.72,2,2.28,3.47,2.28,2.21-.78,3.46-2.28,3.1-3.72,6.54-3.72,5.23,2.15,6.54,3.72,2,2.28,3.46,2.28Z"/></g></g></svg>