<svg xmlns="http://www.w3.org/2000/svg" viewBox="0 0 55.45 50.35"><defs><style>.cls-1{fill:#2d7cba;}.cls-2{fill:#024861;}</style></defs><g id="Layer_2" data-name="Layer 2"><g id="Layer_1-2" data-name="Layer 1"><path class="cls-1" d="M53.9,20.25l-12.48-6a2.67,2.67,0,0,0-2.34,0l-12.47,6a2.73,2.73,0,0,0-1.55,2.45c0,8.48,1.61,15.59,4.64,20.55,2.76,4.51,6.61,7.1,10.55,7.1s7.8-2.59,10.56-7.1c3-5,4.63-12.07,4.63-20.55A2.72,2.72,0,0,0,53.9,20.25ZM48.37,41.76c-2.23,3.64-5.19,5.73-8.12,5.73s-5.88-2.09-8.11-5.73c-2.75-4.5-4.21-11-4.22-19L40.25,16.9l12.34,5.89C52.57,30.71,51.12,37.26,48.37,41.76Z"/><path class="cls-1" d="M40.25,19.53l-10.4,5c0,6.68,1.24,12.21,3.56,16,1.88,3.07,4.37,4.83,6.84,4.83s5-1.76,6.85-4.83c2.32-3.79,3.55-9.32,3.55-16Zm6.57,8.91c-.89,1.14-1.79,2.28-2.68,3.43l-4.33,5.6c-.82,1-1.47,1-2.25,0l-3.85-5.27a1.1,1.1,0,1,1,1.61-1.49l2.82,2.46.47.42.49-.47c2-2,4-4,6-6a2,2,0,0,1,.78-.49.94.94,0,0,1,1.13.5A1.12,1.12,0,0,1,46.82,28.44Z"/><path class="cls-2" d="M53.51,0H1.94A1.94,1.94,0,0,0,0,1.94V40.25a1.93,1.93,0,0,0,1.94,1.93h23a33.64,33.64,0,0,1-1.31-3.34H3.15V8.22H52.28v7.07l3.17,1.51V1.94A1.94,1.94,0,0,0,53.51,0ZM4.91,6A1.92,1.92,0,1,1,6.83,4.11,1.92,1.92,0,0,1,4.91,6Zm5.22,0A1.92,1.92,0,1,1,12,4.11,1.92,1.92,0,0,1,10.13,6Zm5.2,0a1.92,1.92,0,1,1,1.93-1.92A1.92,1.92,0,0,1,15.33,6Zm35,0H27.27a1.92,1.92,0,1,1,0-3.84H50.36a1.92,1.92,0,1,1,0,3.84Z"/></g></g></svg>