<svg xmlns="http://www.w3.org/2000/svg" viewBox="0 0 63.6 41.8"><defs><style>.cls-1{fill:#067dbe;}.cls-2{fill:#024861;}.cls-3{fill:none;stroke:#024861;stroke-miterlimit:10;stroke-width:1.3px;}</style></defs><g id="Layer_2" data-name="Layer 2"><g id="Layer_1-2" data-name="Layer 1"><path class="cls-1" d="M61.24,19.51a11,11,0,0,0-4.33-3.27A17.51,17.51,0,0,0,39.36,0,17.75,17.75,0,0,0,25.73,6.45a14.82,14.82,0,0,0-3.95-.55A14.47,14.47,0,0,0,8,15.85a11,11,0,0,0-5.26,3.39A11.22,11.22,0,0,0,0,26.57,11.1,11.1,0,0,0,11.08,37.66H22.36V33H11.08a6.43,6.43,0,0,1-.89-12.78l1.61-.23.35-1.59a9.81,9.81,0,0,1,9.63-7.74,10.14,10.14,0,0,1,3.89.8l1.77.74,1.08-1.59A13.11,13.11,0,0,1,39.36,4.71,12.75,12.75,0,0,1,52.25,17.6v2.25l1.84.41a6.14,6.14,0,0,1,4.8,6.25v.06a6.39,6.39,0,0,1-2.58,5.12V37A11.1,11.1,0,0,0,63.6,26.61,11,11,0,0,0,61.24,19.51Z"/><path class="cls-2" d="M31.93,30,28.1,41.64H24.39L20.59,30h3.54l1.59,5.92c.06.22.12.5.2.85s.15.7.22,1,.1.63.12.85q0-.33.12-.84c.06-.34.12-.68.2-1a8.44,8.44,0,0,1,.2-.85l1.62-6Z"/><path class="cls-2" d="M41.64,37.1a6.24,6.24,0,0,1-.31,2,4,4,0,0,1-.91,1.48,3.87,3.87,0,0,1-1.42.9,5.35,5.35,0,0,1-1.89.31,4.93,4.93,0,0,1-1.8-.31,4.09,4.09,0,0,1-1.43-.9,4.17,4.17,0,0,1-.94-1.48,5.73,5.73,0,0,1-.33-2,5.33,5.33,0,0,1,.55-2.54A3.66,3.66,0,0,1,34.72,33a5.13,5.13,0,0,1,2.43-.54,4.87,4.87,0,0,1,2.32.54,4,4,0,0,1,1.59,1.58A5.1,5.1,0,0,1,41.64,37.1Zm-5.86,0a5.33,5.33,0,0,0,.14,1.3,1.57,1.57,0,0,0,.43.81,1.13,1.13,0,0,0,.79.27,1.08,1.08,0,0,0,.77-.27,1.64,1.64,0,0,0,.42-.81,5.37,5.37,0,0,0,.13-1.3,5.18,5.18,0,0,0-.13-1.29,1.61,1.61,0,0,0-.42-.79,1.17,1.17,0,0,0-.79-.26,1.08,1.08,0,0,0-1,.59A3.81,3.81,0,0,0,35.78,37.1Z"/><path class="cls-2" d="M43.6,41.64V30h3.17V41.64Z"/><path class="cls-2" d="M53.33,30a4.88,4.88,0,0,1,3.32,1,3.44,3.44,0,0,1,1.11,2.74,5.15,5.15,0,0,1-.23,1.53,3.48,3.48,0,0,1-.74,1.31,3.4,3.4,0,0,1-1.37.91,5.54,5.54,0,0,1-2.09.34h-.89v3.87H49.29V30Zm-.07,2.55h-.82V35.2h.63a2,2,0,0,0,.75-.14,1.17,1.17,0,0,0,.57-.46,1.49,1.49,0,0,0,.21-.84,1.28,1.28,0,0,0-.33-.9A1.34,1.34,0,0,0,53.26,32.52Z"/><path class="cls-3" d="M47.05,16.88l1.18,1.29c.66.68.17,1.26-.42,1.68a5.22,5.22,0,0,1-3,1.26c-2.16.09-3.66-1.1-5.25-2.37-1.44-1.15-5.32-4.23-4.8-8.13a5.77,5.77,0,0,1,.55-1.8c.32-.65.88-1,1.75-.37l1.68,1.15c1,.71,1.12,1.1.86,1.84a2,2,0,0,1-.22.41,3.53,3.53,0,0,1-.59.63l-.35.38a1.77,1.77,0,0,1,.16-.22c-.56.68-.27,1.44.39,2l2.57,2.4a1.79,1.79,0,0,0,2.44,0l.15-.14C45.1,15.57,45.91,15.69,47.05,16.88Z"/></g></g></svg>